<?xml version="1.0" encoding="UTF-8"?>
<svg width="18px" height="11px" viewBox="0 0 18 11" version="1.1" xmlns="http://www.w3.org/2000/svg" xmlns:xlink="http://www.w3.org/1999/xlink">
    <!-- Generator: Sketch 45.2 (43514) - http://www.bohemiancoding.com/sketch -->
    <title>caret-down-icon</title>
    <desc>Created with Sketch.</desc>
    <defs></defs>
    <g id="Page-1" stroke="none" stroke-width="1" fill="none" fill-rule="evenodd">
        <g id="caret-down-icon" fill-rule="nonzero" fill="#333333">
            <path d="M10.3797875,9.22897 L17.1938555,2.4149 C17.5834805,2.02527 17.5836511,1.3926 17.1935343,1.00248 L16.4849519,0.2939 C16.0915911,-0.09946 15.4624746,-0.09636 15.0725352,0.29358 L8.7430491,6.62306 L2.4135629,0.29358 C2.0236235,-0.09636 1.394507,-0.09946 1.0011462,0.2939 L0.2925638,1.00248 C-0.097553,1.3926 -0.0973824,2.02527 0.2922426,2.4149 L7.1063106,9.22897 C7.1530065,9.32177 7.2150887,9.40881 7.2925638,9.48629 L8.0011462,10.19487 C8.2066692,10.40039 8.4765498,10.49769 8.7430491,10.48813 C9.0095483,10.49769 9.2794289,10.40039 9.4849519,10.19487 L10.1935343,9.48629 C10.2710094,9.40881 10.3330916,9.32177 10.3797875,9.22897 Z" id="Combined-Shape-Copy"></path>
        </g>
    </g>
</svg>