<?xml version="1.0" encoding="UTF-8" standalone="no"?>
<svg width="17px" height="18px" viewBox="0 0 17 18" version="1.1" xmlns="http://www.w3.org/2000/svg" xmlns:xlink="http://www.w3.org/1999/xlink">
    <!-- Generator: sketchtool 41.2 (35397) - http://www.bohemiancoding.com/sketch -->
    <title>8337D5C5-73B7-4144-83A1-D484A38AF3A3</title>
    <desc>Created with sketchtool.</desc>
    <defs></defs>
    <g id="Homepage" stroke="none" stroke-width="1" fill="none" fill-rule="evenodd">
        <g id="mobile-menu" transform="translate(-48.000000, -587.000000)" fill="#666666">
            <path d="M49.2857158,603.714306 L49.2857158,600.821445 L52.1785764,600.821445 L52.1785764,603.714306 L49.2857158,603.714306 Z M52.8214343,603.714306 L52.8214343,600.821445 L56.0357239,600.821445 L56.0357239,603.714306 L52.8214343,603.714306 Z M49.2857158,600.178587 L49.2857158,596.964298 L52.1785764,596.964298 L52.1785764,600.178587 L49.2857158,600.178587 Z M52.8214343,600.178587 L52.8214343,596.964298 L56.0357239,596.964298 L56.0357239,600.178587 L52.8214343,600.178587 Z M49.2857158,596.32144 L49.2857158,593.428579 L52.1785764,593.428579 L52.1785764,596.32144 L49.2857158,596.32144 Z M56.6785818,603.714306 L56.6785818,600.821445 L59.8928713,600.821445 L59.8928713,603.714306 L56.6785818,603.714306 Z M52.8214343,596.32144 L52.8214343,593.428579 L56.0357239,593.428579 L56.0357239,596.32144 L52.8214343,596.32144 Z M60.5357292,603.714306 L60.5357292,600.821445 L63.4285898,600.821445 L63.4285898,603.714306 L60.5357292,603.714306 Z M56.6785818,600.178587 L56.6785818,596.964298 L59.8928713,596.964298 L59.8928713,600.178587 L56.6785818,600.178587 Z M53.1428633,591.500005 C53.1428633,591.670764 52.9921935,591.821434 52.8214343,591.821434 L52.1785764,591.821434 C52.0078173,591.821434 51.8571475,591.670764 51.8571475,591.500005 L51.8571475,588.607145 C51.8571475,588.436386 52.0078173,588.285716 52.1785764,588.285716 L52.8214343,588.285716 C52.9921935,588.285716 53.1428633,588.436386 53.1428633,588.607145 L53.1428633,591.500005 Z M60.5357292,600.178587 L60.5357292,596.964298 L63.4285898,596.964298 L63.4285898,600.178587 L60.5357292,600.178587 Z M56.6785818,596.32144 L56.6785818,593.428579 L59.8928713,593.428579 L59.8928713,596.32144 L56.6785818,596.32144 Z M60.5357292,596.32144 L60.5357292,593.428579 L63.4285898,593.428579 L63.4285898,596.32144 L60.5357292,596.32144 Z M60.8571582,591.500005 C60.8571582,591.670764 60.7064884,591.821434 60.5357292,591.821434 L59.8928713,591.821434 C59.7221122,591.821434 59.5714424,591.670764 59.5714424,591.500005 L59.5714424,588.607145 C59.5714424,588.436386 59.7221122,588.285716 59.8928713,588.285716 L60.5357292,588.285716 C60.7064884,588.285716 60.8571582,588.436386 60.8571582,588.607145 L60.8571582,591.500005 Z M64.7143056,590.857147 C64.7143056,590.154022 64.1317157,589.571432 63.4285898,589.571432 L62.142874,589.571432 L62.142874,588.607145 C62.142874,587.723215 61.4196589,587 60.5357292,587 L59.8928713,587 C59.0089417,587 58.2857265,587.723215 58.2857265,588.607145 L58.2857265,589.571432 L54.4285791,589.571432 L54.4285791,588.607145 C54.4285791,587.723215 53.7053639,587 52.8214343,587 L52.1785764,587 C51.2946468,587 50.5714316,587.723215 50.5714316,588.607145 L50.5714316,589.571432 L49.2857158,589.571432 C48.58259,589.571432 48,590.154022 48,590.857147 L48,603.714306 C48,604.417431 48.58259,605.000021 49.2857158,605.000021 L63.4285898,605.000021 C64.1317157,605.000021 64.7143056,604.417431 64.7143056,603.714306 L64.7143056,590.857147 Z" id="calendar"></path>
        </g>
    </g>
</svg>