<?xml version="1.0" encoding="UTF-8" standalone="no"?>
<svg width="12px" height="19px" viewBox="0 0 12 19" version="1.1" xmlns="http://www.w3.org/2000/svg" xmlns:xlink="http://www.w3.org/1999/xlink">
    <!-- Generator: sketchtool 41.2 (35397) - http://www.bohemiancoding.com/sketch -->
    <title>970BB4ED-966B-4F31-A335-CCCD3EE0A497</title>
    <desc>Created with sketchtool.</desc>
    <defs></defs>
    <g id="Homepage" stroke="none" stroke-width="1" fill="none" fill-rule="evenodd">
        <g id="mobile-menu" transform="translate(-51.000000, -520.000000)" fill="#666666">
            <path d="M60.0000107,526.499987 C60.0000107,528.152333 58.6523529,529.499991 57.0000072,529.499991 C55.3476614,529.499991 54.0000036,528.152333 54.0000036,526.499987 C54.0000036,524.847642 55.3476614,523.499984 57.0000072,523.499984 C58.6523529,523.499984 60.0000107,524.847642 60.0000107,526.499987 Z M63.0000143,526.499987 C63.0000143,523.183577 60.3164174,520.49998 57.0000072,520.49998 C53.6835969,520.49998 51,523.183577 51,526.499987 C51,527.214832 51.0820313,527.953114 51.3867192,528.597646 L55.6640681,537.66797 C55.8984433,538.183595 56.4375065,538.500002 57.0000072,538.500002 C57.5625078,538.500002 58.101571,538.183595 58.347665,537.66797 L62.6132951,528.597646 C62.917983,527.953114 63.0000143,527.214832 63.0000143,526.499987 Z" id="near-you"></path>
        </g>
    </g>
</svg>