<?xml version="1.0" encoding="utf-8"?>
<!-- Generator: Adobe Illustrator 21.0.0, SVG Export Plug-In . SVG Version: 6.00 Build 0)  -->
<svg version="1.1" id="Layer_1" xmlns="http://www.w3.org/2000/svg" xmlns:xlink="http://www.w3.org/1999/xlink" x="0px" y="0px"
	 viewBox="0 0 105 105" style="enable-background:new 0 0 105 105;" xml:space="preserve">
<style type="text/css">
	.st0{fill:#FFFFFF;}
</style>
<title>Funding_Programs_Icon_Grants_white</title>
<desc>Created with Sketch.</desc>
<g id="Loans-Wireframes">
	<g id="Grants-Hover" transform="translate(-62.000000, -114.000000)">
		<g id="Funding_Programs_Icon_Grants_white" transform="translate(62.000000, 114.000000)">
			<g id="Layer_1_1_">
				<g id="Group">
					<g id="Shape">
						<path class="st0" d="M52.5,3C79.8,3,102,25.2,102,52.5S79.8,102,52.5,102S3,79.8,3,52.5S25.2,3,52.5,3L52.5,3z M52.5,0
							C23.5,0,0,23.5,0,52.5S23.5,105,52.5,105S105,81.5,105,52.5S81.5,0,52.5,0L52.5,0z"/>
					</g>
					<g id="Oval">
						<path class="st0" d="M52.8,61.6c-4.9,0-8.8-3.9-8.8-8.8c0-4.9,3.9-8.8,8.8-8.8c4.9,0,8.8,3.9,8.8,8.8
							C61.6,57.7,57.7,61.6,52.8,61.6z M52.8,47c-3.2,0-5.8,2.6-5.8,5.8s2.6,5.8,5.8,5.8s5.8-2.6,5.8-5.8S56,47,52.8,47z"/>
					</g>
					<g id="Shape_1_">
						<path class="st0" d="M52.8,87c-8.7,0-15.5-15-15.5-34.2c0-15.1,4.4-28.2,10.8-32.6C48.4,20,48.7,20,49,20
							c0.3,0.1,0.5,0.3,0.6,0.6c0.5,1.4,1.7,2.2,3.2,2.2s2.7-0.9,3.2-2.2c0.1-0.3,0.3-0.5,0.6-0.6c0.3-0.1,0.6-0.1,0.9,0.1
							c6.5,4.4,10.8,17.5,10.8,32.6C68.3,72,61.5,87,52.8,87z M48.4,22.5c-5.4,4.6-9.1,16.8-9.1,30.3c0,17.5,6.2,32.2,13.5,32.2
							c7.3,0,13.5-14.7,13.5-32.2c0-13.5-3.7-25.6-9.1-30.3c-1,1.5-2.6,2.4-4.4,2.4C51,24.9,49.3,24,48.4,22.5z"/>
					</g>
					<g id="Oval_1_">
						<path class="st0" d="M52.8,25.4c-3.3,0-5.9-2.6-5.9-5.9s2.6-5.9,5.9-5.9c3.3,0,5.9,2.6,5.9,5.9S56.1,25.4,52.8,25.4z
							 M52.8,16.6c-1.6,0-2.9,1.3-2.9,2.9s1.3,2.9,2.9,2.9c1.6,0,2.9-1.3,2.9-2.9S54.4,16.6,52.8,16.6z"/>
					</g>
					<g id="Shape_2_">
						<path class="st0" d="M34.3,74.7c-2.3,0-4.3-0.3-6-0.9c-0.3-0.1-0.6-0.4-0.6-0.7s0-0.7,0.3-0.9c0.5-0.5,1.1-1.3,1.1-2.5
							c0-1.8-1.6-3.4-3.4-3.4c-0.7,0-1.2,0.1-1.8,0.5c-0.3,0.2-0.7,0.2-1,0c-0.3-0.2-0.5-0.5-0.5-0.9c0.1-7.9,9.3-18.6,22.8-26.5
							c11.6-6.8,24-9.9,31.4-7.9c2.7,0.7,4.7,2.1,5.9,4.1c4.3,7.5-5.2,21-21.7,30.7C51.4,71.7,41.7,74.7,34.3,74.7z M30.3,72.3
							c7,1.6,18.5-1.4,29.4-7.8c15-8.8,24.6-21.6,20.9-27.9c-0.9-1.5-2.4-2.5-4.6-3.1c-7-1.8-18.7,1.2-29.9,7.7
							c-11.9,6.9-20.5,16.2-21.7,23.2c0.4-0.1,0.8-0.1,1.2-0.1c3,0,5.4,2.4,5.4,5.4C31,70.6,30.7,71.5,30.3,72.3z"/>
					</g>
					<g id="Oval_2_">
						<path class="st0" d="M25.5,75.5c-3.3,0-5.9-2.6-5.9-5.9c0-3.3,2.6-5.9,5.9-5.9s5.9,2.6,5.9,5.9C31.4,72.9,28.8,75.5,25.5,75.5
							z M25.5,66.7c-1.6,0-2.9,1.3-2.9,2.9c0,1.6,1.3,2.9,2.9,2.9s2.9-1.3,2.9-2.9C28.4,68,27.1,66.7,25.5,66.7z"/>
					</g>
					<g id="Shape_3_">
						<path class="st0" d="M71.2,74.5c-7.3,0-16.9-3-26.3-8.5c-16.5-9.6-26-23-21.7-30.6c1.1-2,3.1-3.3,5.9-4.1
							c7.4-2,19.8,1.1,31.4,7.9C73.6,47,83,57.7,83.3,65.5c0,0.3-0.1,0.7-0.4,0.9c-0.3,0.2-0.6,0.2-0.9,0.1
							c-0.4-0.2-0.8-0.2-1.2-0.2c-1.8,0-3.4,1.6-3.4,3.4c0,1,0.4,1.8,0.9,2.1c0.3,0.2,0.4,0.6,0.3,0.9s-0.3,0.6-0.6,0.8
							C76,74.2,73.7,74.5,71.2,74.5z M34.2,32.8c-1.7,0-3.2,0.2-4.6,0.5C27.4,34,25.8,35,25,36.5c-3.7,6.3,5.9,19.1,20.9,27.8
							c11.3,6.5,23.1,9.5,30,7.7c-0.4-0.7-0.6-1.5-0.6-2.4c0-2.9,2.5-5.4,5.4-5.4c0.2,0,0.3,0,0.5,0c-1.2-7-9.9-16.3-21.7-23.2
							C50.5,35.8,41.1,32.8,34.2,32.8z"/>
					</g>
					<g id="Oval_3_">
						<path class="st0" d="M80.7,75.5c-3.3,0-5.9-2.6-5.9-5.9c0-3.3,2.6-5.9,5.9-5.9c3.3,0,5.9,2.6,5.9,5.9
							C86.6,72.9,84,75.5,80.7,75.5z M80.7,66.7c-1.6,0-2.9,1.3-2.9,2.9c0,1.6,1.3,2.9,2.9,2.9c1.6,0,2.9-1.3,2.9-2.9
							C83.6,68,82.3,66.7,80.7,66.7z"/>
					</g>
				</g>
			</g>
		</g>
	</g>
</g>
</svg>
