<?xml version="1.0" encoding="utf-8"?>
<!-- Generator: Adobe Illustrator 21.0.0, SVG Export Plug-In . SVG Version: 6.00 Build 0)  -->
<svg version="1.1" id="Layer_1" xmlns="http://www.w3.org/2000/svg" xmlns:xlink="http://www.w3.org/1999/xlink" x="0px" y="0px"
	 viewBox="0 0 105 105" style="enable-background:new 0 0 105 105;" xml:space="preserve">
<style type="text/css">
	.st0{fill:#FFFFFF;}
</style>
<title>Funding_Programs_Icon_Surety_white</title>
<desc>Created with Sketch.</desc>
<g id="Loans-Wireframes">
	<g id="Surety-hover" transform="translate(-62.000000, -114.000000)">
		<g id="Funding_Programs_Icon_Surety_white" transform="translate(62.000000, 114.000000)">
			<g id="Layer_1_1_">
				<g id="Group">
					<g id="Shape">
						<path class="st0" d="M52.5,3C79.8,3,102,25.2,102,52.5S79.8,102,52.5,102S3,79.8,3,52.5S25.2,3,52.5,3L52.5,3z M52.5,0
							C23.5,0,0,23.5,0,52.5S23.5,105,52.5,105S105,81.5,105,52.5S81.5,0,52.5,0L52.5,0z"/>
					</g>
					<g id="Shape_1_">
						<path class="st0" d="M52.5,84.3c-0.1,0-0.3,0-0.4,0C21.9,76.3,22,36.7,22,36.3c0-0.5,0.2-0.9,0.6-1.2c0.4-0.3,0.8-0.4,1.3-0.3
							c16.5,3.9,27.4-8,27.5-8.1c0.3-0.3,0.7-0.5,1.1-0.5c0.4,0,0.8,0.1,1.1,0.4c0.1,0.1,12.3,12,27.6,8.2c0.4-0.1,0.9,0,1.3,0.3
							c0.4,0.3,0.6,0.7,0.6,1.2c0,0.4,0.1,40.2-30.1,48C52.8,84.3,52.6,84.3,52.5,84.3z M25.1,38.1c0.4,7.6,3.5,36.5,27.4,43.1
							c24-6.5,27-35.4,27.4-43.1c-1.7,0.3-3.4,0.5-5.1,0.5c-11,0-19.4-6.3-22.3-8.9C49.4,32.8,39.4,40.6,25.1,38.1z"/>
					</g>
					<g id="Oval">
						<path class="st0" d="M52.4,69c-7.8,0-14.1-6.3-14.1-14.1c0-7.8,6.3-14.1,14.1-14.1s14.1,6.3,14.1,14.1
							C66.5,62.7,60.2,69,52.4,69z M52.4,43.8c-6.1,0-11.1,5-11.1,11.1c0,6.1,5,11.1,11.1,11.1s11.1-5,11.1-11.1
							C63.5,48.8,58.5,43.8,52.4,43.8z"/>
					</g>
					<g id="Shape_2_">
						<path class="st0" d="M50.7,60C50.7,60,50.7,60,50.7,60c-0.4,0-0.8-0.2-1.1-0.5l-3.5-3.6c-0.6-0.6-0.6-1.5,0-2.1
							c0.6-0.6,1.5-0.6,2.1,0l2.4,2.5l5.9-5.9c0.6-0.6,1.5-0.6,2.1,0c0.6,0.6,0.6,1.5,0,2.1l-7,7C51.5,59.8,51.1,60,50.7,60z"/>
					</g>
					<g id="Shape_3_">
						<path class="st0" d="M34.2,32.1c-0.2,0-0.4-0.1-0.6-0.2l-4.7-3.4c-0.4-0.3-0.5-0.9-0.2-1.4s0.9-0.5,1.4-0.2l4.7,3.4
							c0.4,0.3,0.5,0.9,0.2,1.4C34.8,32,34.5,32.1,34.2,32.1z"/>
					</g>
					<g id="Shape_4_">
						<path class="st0" d="M37.6,29.7c-0.4,0-0.7-0.2-0.9-0.6l-2.4-5.3c-0.2-0.5,0-1.1,0.5-1.3c0.5-0.2,1.1,0,1.3,0.5l2.4,5.3
							c0.2,0.5,0,1.1-0.5,1.3C37.9,29.7,37.7,29.7,37.6,29.7z"/>
					</g>
					<g id="Shape_5_">
						<path class="st0" d="M41.7,29.2c0,0-0.1,0-0.1,0c-0.5-0.1-0.9-0.5-0.9-1.1l0.6-5.7c0.1-0.5,0.5-0.9,1.1-0.9
							c0.5,0.1,0.9,0.5,0.9,1.1l-0.6,5.7C42.6,28.8,42.2,29.2,41.7,29.2z"/>
					</g>
				</g>
			</g>
		</g>
	</g>
</g>
</svg>
