<?xml version="1.0" encoding="utf-8"?>
<!-- Generator: Adobe Illustrator 21.0.0, SVG Export Plug-In . SVG Version: 6.00 Build 0)  -->
<svg version="1.1" id="Layer_1" xmlns="http://www.w3.org/2000/svg" xmlns:xlink="http://www.w3.org/1999/xlink" x="0px" y="0px"
	 viewBox="0 0 105 105" style="enable-background:new 0 0 105 105;" xml:space="preserve">
<style type="text/css">
	.st0{fill:#182900;}
	.st1{fill:#FFFFFF;}
	.st2{fill:#609F00;}
	.st3{fill:none;stroke:#182900;stroke-width:3;stroke-linejoin:round;}
	.st4{fill:none;stroke:#B5B5B5;stroke-width:2;stroke-linecap:round;stroke-linejoin:round;}
	.st5{fill:none;}
</style>
<title>Funding_Programs_Icon_Grants_color</title>
<desc>Created with Sketch.</desc>
<g id="Loans-Wireframes">
	<g id="Landing" transform="translate(-1084.000000, -227.000000)">
		<g id="Group-6" transform="translate(1022.000000, 113.000000)">
			<g id="Funding_Programs_Icon_Grants_color" transform="translate(62.000000, 114.000000)">
				<g id="Layer_1_1_">
					<g id="Group">
						<path id="Shape" class="st0" d="M52.5,3C79.8,3,102,25.2,102,52.5S79.8,102,52.5,102S3,79.8,3,52.5S25.2,3,52.5,3L52.5,3z
							 M52.5,0C23.5,0,0,23.5,0,52.5S23.5,105,52.5,105S105,81.5,105,52.5S81.5,0,52.5,0L52.5,0z"/>
						<circle id="Oval" class="st1" cx="52.8" cy="52.8" r="7.3"/>
						<circle id="Oval_1_" class="st2" cx="57" cy="52.2" r="8"/>
						<circle id="Oval_2_" class="st3" cx="52.8" cy="52.8" r="7.3"/>
						<ellipse id="Oval_3_" class="st4" cx="52.8" cy="52.8" rx="14.5" ry="33.2"/>
						
							<ellipse id="Oval_4_" transform="matrix(0.8638 -0.5038 0.5038 0.8638 -19.4218 33.7871)" class="st4" cx="52.8" cy="52.8" rx="33.2" ry="14.5"/>
						
							<ellipse id="Oval_5_" transform="matrix(0.5038 -0.8638 0.8638 0.5038 -19.4524 71.8142)" class="st4" cx="52.8" cy="52.8" rx="14.5" ry="33.2"/>
						<circle id="Oval_6_" class="st1" cx="52.8" cy="19.5" r="4.4"/>
						<circle id="Oval_7_" class="st2" cx="56.5" cy="19.5" r="4.4"/>
						<circle id="Oval_8_" class="st3" cx="52.8" cy="19.5" r="4.4"/>
						<circle id="Oval_9_" class="st1" cx="25.5" cy="69.6" r="4.4"/>
						<circle id="Oval_10_" class="st2" cx="29.2" cy="69.6" r="4.4"/>
						<circle id="Oval_11_" class="st3" cx="25.5" cy="69.6" r="4.4"/>
						<circle id="Oval_12_" class="st1" cx="80.7" cy="69.6" r="4.4"/>
						<g id="Oval_13_">
							<g>
								<circle id="path-1" class="st2" cx="84.4" cy="69.6" r="4.4"/>
							</g>
							<circle class="st5" cx="84.4" cy="69.6" r="4.4"/>
						</g>
						<circle id="Oval_14_" class="st3" cx="80.7" cy="69.6" r="4.4"/>
					</g>
				</g>
			</g>
		</g>
	</g>
</g>
</svg>
