<?xml version="1.0" encoding="utf-8"?>
<!-- Generator: Adobe Illustrator 21.0.0, SVG Export Plug-In . SVG Version: 6.00 Build 0)  -->
<svg version="1.1" id="Layer_1" xmlns="http://www.w3.org/2000/svg" xmlns:xlink="http://www.w3.org/1999/xlink" x="0px" y="0px"
	 viewBox="0 0 105 105" style="enable-background:new 0 0 105 105;" xml:space="preserve">
<style type="text/css">
	.st0{fill:none;}
	.st1{fill:#609F00;}
	.st2{fill:#FFFFFF;}
	.st3{fill:#182900;}
	.st4{fill:#B5B5B5;}
</style>
<g>
	<g>
		<circle class="st0" cx="53.1" cy="52.5" r="51"/>
		<circle class="st0" cx="52.5" cy="53" r="51"/>
	</g>
	<g>
		<circle class="st0" cx="53.1" cy="52.5" r="51"/>
		<g id="Combined-Shape">
			<path class="st1" d="M54.6,50.8c0-0.1,0.1-0.1,0.2-0.2c1.5-2.2,5.8,2.4,7.9,3.6c2.3,1.2,3.9-1.5,4.4-4.8c0.4-3.3,0.7-5.6,0.3-8.3
				s-0.8-8.4-2.4-11.8s-4.2-6.9-5.6-12s-5.6-5.1-9.7-5.4c-5-0.4-7.7-0.7-19.1-2.1c-2.1-0.3-4.2-0.6-6.3-1
				c-4.1,2.3-8.4,9.3-13.9,13.6c1,0.2,1.9,0.3,2.5,0.5c2.4,0.7,6.3,2.1,8.6,4.6c0.1,0.1,0.3,0.2,0.4,0.3c0.6,0.5,1.1,1.1,1.6,1.6
				c2.1,2.2,4.7,3.1,8.2,4.6c2.2,1,4.3,2.6,8.5,6.5c3.8,3.5,5.4,6,9.3,9.8c3.9,3.7,3.4,4.1,5.4,2.2C55.1,52.1,55,51.5,54.6,50.8z"/>
		</g>
	</g>
	<g>
		<circle class="st0" cx="53.1" cy="52.5" r="51"/>
		<circle class="st0" cx="52.5" cy="53" r="51"/>
	</g>
	<g>
		<circle class="st0" cx="53.1" cy="52.5" r="51"/>
		<g id="Shape_3_">
			<path class="st2" d="M83.7,92.8c-3.1-0.1-5.5-0.2-6.2-0.2c-2.4,0-19.7,1.7-23.8,1.3c-4.1-0.4-6.1-2-11.1-3.7S28.7,84.6,27,83.7
				s-0.9-3.7,1.5-5.4c2.4-1.7,6.1,0.2,9.3,1.3c3.3,1.1,5.9,1.5,5.9,1.5s-2.8-2.6-1.5-5.4s2.6-2.6,8.3-1.5S58,76.4,62.7,75
				s9-1.2,14.3,1.2c5.2,2.4,4.7,3.9,14.7,5.2c1.1,0.1,2.2,0.3,3.2,0.3"/>
		</g>
	</g>
	<g>
		<circle class="st0" cx="53.1" cy="52.5" r="51"/>
		<circle class="st0" cx="52.5" cy="53" r="51"/>
	</g>
	<g>
		<circle class="st0" cx="53.1" cy="52.5" r="51"/>
		<g id="Shape_6_">
			<path class="st1" d="M82.5,93.4c-2.4,0-19.7,1.7-23.8,1.3c-4.1-0.4-6.1-2-11.1-3.7S33.7,85.4,32,84.5s-0.9-3.7,1.5-5.4
				c2.4-1.7,6.1,0.2,9.3,1.3c3.3,1.1,5.9,1.5,5.9,1.5s-2.8-2.6-1.5-5.4s2.6-2.6,8.3-1.5s7,0.8,11.8-0.7s10.3-2,15.6,0.4
				c4.8,2.2,6.1,1.9,14,2.9"/>
		</g>
	</g>
	<g>
		<circle class="st0" cx="53.1" cy="52.5" r="51"/>
		<circle class="st0" cx="52.5" cy="53" r="51"/>
	</g>
	<g>
		<circle class="st0" cx="53.1" cy="52.5" r="51"/>
		<g id="Shape">
			<path class="st1" d="M25.4,8.9c1.7,0.3,3.5,0.6,5.3,0.8c11.4,1.4,14.1,1.7,19.1,2.1c4.1,0.3,8.3,0.3,9.7,5.4s4,8.6,5.6,12
				c1.6,3.4,2,9.1,2.4,11.8s0.1,5-0.3,8.3c-0.5,3.3-2.1,6-4.4,4.8c-2.2-1.2-2.5-4.1-2.2-7.6s0.4-5.7-1.5-9.2
				c-1.8-3.5-3.3-5.2-4.2-7.5c-0.6-1.5-2.4,0.8-3.8,1.6c-1.3,0.8-2.5,0.3-3.7,0.2c-2.4-0.2-2.3,2.8,0.8,5.4c3,2.5,6.4,6.9,7.5,9.5
				s2.1,4.6,0.6,6.8c-1.5,2.3-4.3,0.4-8.1-3.3c-3.9-3.8-5.9-6.5-9.7-10c-4.2-3.9-7.5-5.1-9.7-6.1c-3.5-1.5-5.3-3.5-7.4-5.7
				c-2.3-2.5-6.6-3.8-9-4.5c-0.7-0.2-1.6-0.4-2.8-0.6"/>
		</g>
	</g>
	<g>
		<circle class="st0" cx="53.1" cy="52.5" r="51"/>
		<circle class="st0" cx="52.5" cy="53" r="51"/>
	</g>
	<g>
		<circle class="st0" cx="53.1" cy="52.5" r="51"/>
		<g id="Shape_1_">
			<path class="st3" d="M26.9,9.3c11.5,1.4,14.1,1.7,19,2.1h0.7c3.9,0.3,8.8,0.6,10.4,6.5c0.9,3.3,2.4,5.9,3.7,8.4
				c0.6,1.1,1.2,2.2,1.8,3.3c1.4,2.9,1.9,7.2,2.3,10.3c0.1,0.7,0.2,1.4,0.2,1.9c0.4,2.8,0.2,5.2-0.2,8.4l-0.1,0.3
				c-0.5,3-1.6,5.2-3.3,6c-0.5,0.3-1,0.4-1.5,0.4c-0.6,0-1.2-0.2-1.8-0.5c-3.2-1.7-3.3-5.8-3-9.1c0.3-3.5,0.4-5.2-1.3-8.4
				c-1.2-2.3-2.7-4.9-3.5-6.3l-2.6,1.1c-0.2,0.1-0.3,0.1-0.5,0.1l-4,0.3c0,0.1,0,0.2,0,0.3c0,0.5,0.4,1.1,1.2,1.7
				c3,2.5,7.6,7.8,8.8,10.8l0.2,0.4c1.1,2.5,2.1,5,0.3,7.8c-0.8,1.2-1.8,1.6-2.5,1.6C49,57,46.4,55,43.4,52
				c-1.8-1.8-3.2-3.3-4.6-4.7c-1.6-1.7-3.1-3.4-5.1-5.2c-3.6-3.3-6.4-4.6-8.5-5.5c-0.3-0.1-0.5-0.2-0.8-0.3
				c-3.6-1.5-5.5-3.6-7.6-5.7l-0.3-0.3C14.2,28,10,26.7,8,26.1c0.2-1.2,1.7-2.7,2.2-2.6c2.5,0.8,6.2,2.2,8.3,4.5l0.3,0.3
				c1.9,2,3.6,3.7,6.6,5l0.8,0.3c2.2,1,5.4,2.4,9.4,6c2.1,1.9,3.7,3.6,5.3,5.4c1.3,1.4,2.7,2.9,4.4,4.6c3.4,3.3,4.8,3.9,5.4,3.9
				c0.1,0,0.2,0,0.4-0.3c0.9-1.4,0.5-2.5-0.5-5l-0.2-0.4c-0.9-2.2-5-7.2-8-9.6c-1.4-1.2-2.2-2.5-2.2-3.9c-0.1-1.7,1-2.8,1.2-2.9
				c0.3-0.2,0.4-0.3,0.9-0.4s4.5-0.3,4.5-0.3l3.6-1.5c0.7-0.3,1.5,0,1.9,0.6c0.1,0.2,2.4,4.1,4.2,7.6c2.1,3.8,2,6.3,1.7,10
				c-0.3,3.6,0.1,5.5,1.4,6.2c0.3,0.2,0.5,0.1,0.6,0.1c0.6-0.3,1.3-1.6,1.6-3.8v-0.2c0.4-3.1,0.6-5.2,0.3-7.6
				c-0.1-0.5-0.2-1.2-0.3-2c-0.3-2.8-0.8-6.9-2-9.4c-0.5-1-1.1-2.1-1.7-3.2c-1.4-2.5-3-5.4-4-9.1c-1-3.6-3.4-4-7.7-4.3h-0.7
				c-5-0.4-7.7-0.7-19.2-2.1c-1.6-0.2-3.2-0.4-4.8-0.6"/>
		</g>
	</g>
	<g>
		<g transform="translate(54.000000, 45.000000)">
			<g id="Oval">
				<ellipse class="st2" cx="1.9" cy="14.1" rx="8.5" ry="8.5"/>
			</g>
			<g id="Shape_2_">
				<path class="st3" d="M3.4,12.4C3,12,2.6,11.8,2.2,11.8c-0.5,0-0.8,0.1-0.8,0.6c0,0.9,3.1,0.9,3.1,3.1c0,1.1-0.6,2-1.8,2.3v1.3
					H1.4v-1.2c-0.7-0.1-1.5-0.4-2.1-0.9l0.9-1.4c0.6,0.5,1.1,0.7,1.6,0.7c0.6,0,0.8-0.2,0.8-0.7c0-0.9-3.1-1.1-3.1-3.2
					c0-1.2,0.7-2,1.8-2.3V9h1.3v1.2c0.7,0.1,1.3,0.5,1.8,1L3.4,12.4z"/>
			</g>
			<g id="Oval_1_">
				<path class="st3" d="M1.9,24.1c-5.5,0-10-4.5-10-10s4.5-10,10-10s10,4.5,10,10S7.4,24.1,1.9,24.1z M1.9,7.1c-3.9,0-7,3.1-7,7
					s3.1,7,7,7s7-3.1,7-7S5.8,7.1,1.9,7.1z"/>
			</g>
		</g>
	</g>
	<g>
		<circle class="st0" cx="53.1" cy="52.5" r="51"/>
		<g id="Shape_13_">
			<path class="st2" d="M44.2,38.1c3,2.5,6.4,6.9,7.5,9.5s2.1,4.6,0.6,6.8c-1.5,2.3-4.3,0.4-8.1-3.3c-3.9-3.8-5.9-6.5-9.7-10
				C30.3,37.2,27,36,24.8,35c-3.5-1.5-5.3-3.5-7.4-5.7c-2.3-2.5-6.6-3.8-9-4.5l4.4-4L38,30.9l3.8,3L44.2,38.1z"/>
		</g>
	</g>
	<g>
		<circle class="st0" cx="53.1" cy="52.5" r="51"/>
		<circle class="st0" cx="52.5" cy="53" r="51"/>
	</g>
	<g>
		<circle class="st0" cx="53.1" cy="52.5" r="51"/>
		<g id="Shape_12_">
			<path class="st1" d="M41.6,32.6l-0.4,2l4.1,4.4l5.3,6.5c1.4,1.7,2.4,4.9,2.7,6.7c-0.4,1.3-0.3,2.5-4.1-1.2
				c-3.9-3.8-5.9-6.5-9.7-10c-4.2-3.8-7.5-5-9.7-6c-3.5-1.5-5.3-3.5-7.4-5.7c-2.3-2.5-5.3-5.1-7.7-5.8l-3.5-1.1l3.5-3.2l12.1,3.3"/>
		</g>
	</g>
	<g>
		<circle class="st0" cx="53.1" cy="52.5" r="51"/>
		<circle class="st0" cx="52.5" cy="53" r="51"/>
	</g>
	<g>
		<circle class="st0" cx="53.1" cy="52.5" r="51"/>
		<circle class="st0" cx="52.5" cy="53" r="51"/>
	</g>
	<g>
		<circle class="st0" cx="53.1" cy="52.5" r="51"/>
		<g id="Shape_4_">
			<path class="st3" d="M10.1,23.6c2.5,0.8,6.2,2.2,8.4,4.5l0.3,0.3c1.9,2,3.6,3.7,6.6,5l0.8,0.3c2.2,1,5.4,2.4,9.4,6
				c2.1,1.9,3.7,3.6,5.3,5.4c1.3,1.4,2.7,2.9,4.4,4.6c3.4,3.3,4.8,3.9,5.4,3.9c0.1,0,0.2,0,0.4-0.3c0.9-1.4,0.5-2.5-0.5-5l-0.2-0.4
				c-0.9-2.2-4.1-6.4-7.1-8.9c-2.4-2-3.5-4.5-2.8-6.4c0.5-1.2,1.6-1.8,3.1-1.7l-0.2,3c0,0,0,0-0.1,0c0,0.5,0.5,1.5,1.9,2.8
				c3.1,2.6,6.7,7.2,7.9,10.1l0.2,0.4c1.1,2.5,2.1,5,0.3,7.8c-1.2,1.8-2.9,1.9-3,1.9c-2.1,0-4.6-1.9-7.5-4.7
				c-1.8-1.8-3.2-3.3-4.6-4.7c-1.6-1.7-3.1-3.4-5.1-5.2c-3.6-3.3-6.4-4.6-8.5-5.5c-0.3-0.1-0.5-0.2-0.8-0.3
				c-3.6-1.5-5.5-3.6-7.6-5.7l-0.3-0.3c-2-2.4-6.2-3.7-8.2-4.3"/>
		</g>
	</g>
	<g>
		<circle class="st0" cx="53.1" cy="52.5" r="51"/>
		<circle class="st0" cx="52.5" cy="53" r="51"/>
	</g>
	<g>
		<circle class="st0" cx="53.1" cy="52.5" r="51"/>
		<g id="Shape_5_">
			<path class="st3" d="M55.5,95.2c-0.7,0-1.4,0-1.8-0.1c-2.9-0.3-4.8-1.1-7.1-2.1c-1.2-0.5-2.6-1.1-4.4-1.7
				c-5.5-1.9-15.4-6.3-15.8-6.4h-0.1c-1-0.5-1.6-1.5-1.7-2.7c-0.1-1.8,1.1-3.9,3-5.3c2.7-1.9,6.1-0.6,9.1,0.5
				c0.5,0.2,1.1,0.4,1.6,0.6c0.8,0.3,1.6,0.5,2.3,0.7c-0.3-1.2-0.4-2.5,0.2-3.8c1.8-3.9,4.4-3.4,9.9-2.3c1.5,0.3,2.7,0.6,3.8,0.9
				c2.9,0.7,4.3,1.1,7.5,0.1c5.5-1.7,10.4-1.4,15.7,1c1.5,0.7,2.8,1.3,4,1.9c2.8,1.4,4.7,2.3,7,2.8c1.1,0.2,3.6,0.3,6.5,0.3
				c0.3,1.5-0.6,1.8-2.2,3c-2.1,0-3.9-0.1-4.9-0.3c-2.7-0.5-4.8-1.6-7.7-3c-1.1-0.6-2.4-1.2-3.9-1.9c-4.6-2.1-8.7-2.3-13.5-0.8
				c-4,1.2-6,0.7-9.1,0c-1-0.3-2.2-0.5-3.6-0.8c-5.8-1.1-5.9-1-6.7,0.7c-0.8,1.8,1.1,3.7,1.2,3.7c0.5,0.4,0.6,1.2,0.3,1.8
				c-0.3,0.6-0.9,0.9-1.6,0.8c-0.1,0-2.8-0.4-6.1-1.6c-0.6-0.2-1.1-0.4-1.7-0.6c-2.4-0.9-4.9-1.9-6.3-0.9c-1.2,0.9-1.8,2-1.8,2.6
				c0,0.1,0,0.2,0.1,0.2c0.9,0.4,10.3,4.6,15.5,6.3c1.8,0.6,3.3,1.2,4.6,1.8c2.2,0.9,3.8,1.6,6.2,1.8c2.6,0.3,11.3-0.4,17.1-0.9
				c3.3-0.3,5.7-0.4,6.5-0.4c0.8,0,3.7,0.1,7.2,0.3c-0.7,1.3-1.9,2.6-3.6,2.8c-1.8-0.1-3.1-0.1-3.5-0.1c-0.8,0-3.3,0.2-6.3,0.4
				C66.1,94.6,59.2,95.2,55.5,95.2z"/>
		</g>
	</g>
	<g>
		<circle class="st0" cx="53.1" cy="52.5" r="51"/>
		<circle class="st0" cx="52.5" cy="53" r="51"/>
	</g>
	<g>
		<circle class="st0" cx="53.1" cy="52.5" r="51"/>
		<g id="Shape_7_">
			<path class="st3" d="M44,79.5c1.3,0.7,2.7,1.4,4,2.1c1.4,0.7,2.7,1.3,4.1,1.8s2.9,0.7,4.4,1c1.5,0.2,3,0.4,4.6,0.6
				c-1.5,0.1-3.1,0.1-4.6,0c-1.5,0-3.1,0-4.7-0.3c-1.6-0.3-3.1-0.6-4.6-1s-3.4-0.6-4.9-1.1L44,79.5z"/>
		</g>
	</g>
	<g>
		<circle class="st0" cx="53.1" cy="52.5" r="51"/>
		<circle class="st0" cx="52.5" cy="53" r="51"/>
	</g>
	<g>
		<circle class="st0" cx="53.1" cy="52.5" r="51"/>
		<g id="Shape_8_">
			<path class="st4" d="M70.6,54.8c-0.4,0-0.8-0.3-0.9-0.7c-0.2-0.5,0.1-1.1,0.6-1.3l4.5-1.6c0.5-0.2,1.1,0.1,1.3,0.6
				c0.2,0.5-0.1,1.1-0.6,1.3L71,54.7C70.8,54.8,70.7,54.8,70.6,54.8z"/>
		</g>
	</g>
	<g>
		<circle class="st0" cx="53.1" cy="52.5" r="51"/>
		<circle class="st0" cx="52.5" cy="53" r="51"/>
	</g>
	<g>
		<circle class="st0" cx="53.1" cy="52.5" r="51"/>
		<g id="Shape_9_">
			<path class="st4" d="M75.9,61.3c-0.1,0-0.1,0-0.2,0l-4.8-0.9c-0.5-0.1-0.9-0.6-0.8-1.2c0.1-0.5,0.6-0.9,1.2-0.8l4.8,0.9
				c0.5,0.1,0.9,0.6,0.8,1.2C76.8,61,76.4,61.3,75.9,61.3z"/>
		</g>
	</g>
	<g>
		<circle class="st0" cx="53.1" cy="52.5" r="51"/>
		<circle class="st0" cx="52.5" cy="53" r="51"/>
	</g>
	<g>
		<circle class="st0" cx="53.1" cy="52.5" r="51"/>
		<g id="Shape_10_">
			<path class="st4" d="M72.8,69.1c-0.2,0-0.4-0.1-0.6-0.2l-3.7-3c-0.4-0.3-0.5-1-0.1-1.4c0.3-0.4,1-0.5,1.4-0.1l3.7,3
				c0.4,0.3,0.5,1,0.1,1.4C73.4,69,73.1,69.1,72.8,69.1z"/>
		</g>
	</g>
</g>
<title>Funding_Programs_Icon_Loans_color</title>
<desc>Created with Sketch.</desc>
<g id="Mask">
</g>
<g id="Shape_11_">
	<path class="st3" d="M52.5,3C79.8,3,102,25.2,102,52.5S79.8,102,52.5,102S3,79.8,3,52.5S25.2,3,52.5,3L52.5,3z M52.5,0
		C23.5,0,0,23.5,0,52.5S23.5,105,52.5,105S105,81.5,105,52.5S81.5,0,52.5,0L52.5,0z"/>
</g>
</svg>
