<?xml version="1.0" encoding="utf-8"?>
<!-- Generator: Adobe Illustrator 21.0.0, SVG Export Plug-In . SVG Version: 6.00 Build 0)  -->
<svg version="1.1" id="Layer_1" xmlns="http://www.w3.org/2000/svg" xmlns:xlink="http://www.w3.org/1999/xlink" x="0px" y="0px"
	 viewBox="0 0 105 105" style="enable-background:new 0 0 105 105;" xml:space="preserve">
<style type="text/css">
	.st0{fill:#FFFFFF;}
	.st1{fill:#FCFCFC;}
	.st2{fill:none;}
</style>
<g>
	<g id="Shape_1_">
		<path class="st0" d="M50.5,56.8c-2.1,0-4.6-1.9-7.5-4.7c-1.8-1.8-3.2-3.3-4.5-4.7c-1.6-1.7-3.1-3.4-5.1-5.2
			c-3.6-3.3-6.4-4.6-8.5-5.5c-0.3-0.1-0.5-0.2-0.8-0.3c-3.6-1.5-5.5-3.6-7.6-5.7l-0.3-0.3c-2.1-2.3-6.3-3.5-8.3-4.1
			c1-1.5,2.1-2.6,2.9-2.3c2.4,0.8,5.6,2.1,7.6,4.2l0.3,0.3c1.9,2,3.6,3.7,6.6,5l0.8,0.3c2.2,1,5.4,2.4,9.4,6
			c2.1,1.9,3.7,3.6,5.3,5.4c1.3,1.4,2.7,2.9,4.4,4.6c3.4,3.3,4.8,3.9,5.4,3.9c0.1,0,0.2,0,0.4-0.3c0.9-1.4,0.5-2.5-0.5-5L50.3,48
			c-0.9-2.2-4.1-6.4-7.1-8.9c-2.4-2-3.5-4.5-2.8-6.4c0.5-1.2,1.6-1.8,3.1-1.7c0.3,0,0.6,0.1,1,0.1c0.9,0.1,1.3,0.2,1.8-0.1
			c0.3-0.2,0.7-0.5,1.1-0.8c1-0.9,2.1-1.7,3.4-1.4c0.4,0.1,1.1,0.4,1.5,1.4c0.4,1.1,1.1,2.1,1.8,3.4c0.7,1.1,1.5,2.4,2.3,4
			c2,3.7,1.9,6.2,1.7,9.6v0.3v2.6h-3V47c0.2-3.3,0.3-5-1.3-8.1c-0.8-1.6-1.6-2.8-2.2-3.8c-0.6-1-1.2-2-1.7-3
			c-0.2,0.1-0.4,0.3-0.5,0.4c-0.5,0.4-1,0.8-1.5,1.1c-1.4,0.9-2.8,0.7-3.8,0.5c-0.2,0-0.5-0.1-0.7-0.1c0,0,0,0-0.1,0
			c0,0.5,0.5,1.5,1.9,2.8c3.1,2.6,6.7,7.2,7.9,10.1l0.2,0.4c1.1,2.5,2.2,5,0.3,7.8c-0.8,1.2-1.8,1.6-2.5,1.6
			C50.8,56.8,50.6,56.8,50.5,56.8z"/>
	</g>
	<g id="Shape_2_">
		<path class="st0" d="M63.2,54.6L60.8,53c0.1-0.1,0.3-0.4,0.5-0.9c0.2-0.6,0.4-1.2,0.5-1.9v-0.3c0.4-3.1,0.6-5.2,0.3-7.6
			c-0.1-0.5-0.2-1.2-0.3-2c-0.3-2.8-0.8-6.9-2-9.4c-0.5-1-1.1-2.1-1.7-3.2c-1.4-2.5-3-5.4-4-9.1c-1-3.6-3.4-4-7.7-4.3h-0.7
			c-5-0.4-7.7-0.7-19.2-2.1c-1.7-0.2-3.3-0.4-5-0.7c1.5-1,2.2-1.7,3.3-2.5c0.7,0.1,1.4,0.2,2.1,0.3c11.5,1.4,14.1,1.7,19,2.1h0.7
			c3.9,0.3,8.8,0.6,10.4,6.5c0.9,3.3,2.4,5.9,3.7,8.4c0.6,1.1,1.2,2.2,1.8,3.3c1.4,2.9,1.9,7.2,2.3,10.3c0.1,0.7,0.2,1.4,0.2,1.9
			c0.4,2.8,0.1,5.2-0.3,8.4v0.3c-0.1,1-0.4,1.9-0.7,2.7C63.8,53.8,63.5,54.2,63.2,54.6z"/>
	</g>
	<g id="Shape_3_">
		<path class="st1" d="M57.4,57.4c-0.4-0.4-0.8-0.6-1.2-0.6c-0.5,0-0.8,0.1-0.8,0.6c0,0.9,3.1,0.9,3.1,3.1c0,1.1-0.6,2-1.8,2.3v1.3
			h-1.3v-1.2c-0.7-0.1-1.5-0.4-2.1-0.9l0.9-1.4c0.6,0.5,1.1,0.7,1.6,0.7c0.6,0,0.8-0.2,0.8-0.7c0-0.9-3.1-1.1-3.1-3.2
			c0-1.2,0.7-2,1.8-2.3V54h1.3v1.2c0.7,0.1,1.3,0.5,1.8,1L57.4,57.4z"/>
	</g>
	<g id="Shape_4_">
		<path class="st0" d="M55.9,69.1c-5.5,0-10-4.5-10-10c0-1.9,0.5-3.5,1.4-5.1l2.6,1.6c-0.7,1.1-1,2.2-1,3.5c0,3.9,3.1,7,7,7
			s7-3.1,7-7s-3.1-7-7-7c-0.9,0-1.7,0.2-2.7,0.6L52,49.9c1.4-0.5,2.6-0.8,3.9-0.8c5.5,0,10,4.5,10,10S61.4,69.1,55.9,69.1z"/>
	</g>
	<g id="Shape_5_">
		<path class="st0" d="M50.6,57c-2.1,0-4.6-1.9-7.5-4.7c-1.8-1.8-3.2-3.3-4.6-4.7c-1.6-1.7-3.1-3.4-5.1-5.2
			c-3.6-3.3-6.4-4.6-8.5-5.5c-0.3-0.1-0.5-0.2-0.8-0.3c-3.6-1.5-5.5-3.6-7.6-5.7l-0.3-0.3c-1.7-2.1-5.2-3.4-7.3-4
			c-0.3-0.1-0.6-0.2-0.9-0.3c0.9-1,1.7-2.7,2.2-2.6c2.5,0.8,6.2,2.2,8.3,4.5l0.3,0.3c1.9,2,3.6,3.7,6.6,5l0.8,0.3
			c2.2,1,5.4,2.4,9.4,6c2.1,1.9,3.7,3.6,5.3,5.4c1.3,1.4,2.7,2.9,4.4,4.6c3.4,3.3,4.8,3.9,5.4,3.9c0.1,0,0.2,0,0.4-0.3
			c0.9-1.4,0.5-2.5-0.5-5L50.4,48c-0.9-2.2-4.1-6.4-7.1-8.9c-2.4-2-3.5-4.5-2.8-6.4c0.5-1.2,1.6-1.8,3.1-1.7l-0.2,3c0,0,0,0-0.1,0
			c0,0.5,0.5,1.5,1.9,2.8c3.1,2.6,6.7,7.2,7.9,10.1l0.2,0.4c1.1,2.5,2.1,5,0.3,7.8c-0.8,1.2-1.8,1.6-2.5,1.6
			C50.9,57,50.7,57,50.6,57z"/>
	</g>
	<g id="Shape_6_">
		<path class="st0" d="M81.9,94.3c-2.2-0.1-3.8-0.2-4.3-0.2c-0.8,0-3.3,0.2-6.3,0.4c-5.2,0.1-12.1,0.7-15.8,0.7
			c-0.7,0-1.4,0-1.8-0.1c-2.9-0.3-4.8-1.1-7.1-2.1c-1.2-0.5-2.6-1.1-4.4-1.7c-5.5-1.9-15.4-6.3-15.8-6.4h-0.1
			c-1-0.5-1.6-1.5-1.7-2.7c-0.1-1.8,1.1-3.9,3-5.3c2.7-1.9,6.1-0.6,9.1,0.5c0.5,0.2,1.1,0.4,1.6,0.6c0.8,0.3,1.6,0.5,2.3,0.7
			c-0.3-1.2-0.4-2.5,0.2-3.8c1.8-3.9,4.4-3.4,9.9-2.3c1.5,0.3,2.7,0.6,3.8,0.9c2.9,0.7,4.3,1.1,7.5,0.1c5.5-1.7,10.4-1.4,15.7,1
			c1.5,0.7,2.8,1.3,4,1.9c2.8,1.4,4.7,2.3,7,2.8c1.1,0.2,3.9,0.3,7,0.3l-1.9,3.1c-2.5,0-4.6-0.1-5.7-0.3c-2.7-0.5-4.8-1.6-7.7-3
			c-1.1-0.6-2.4-1.2-3.9-1.9c-4.6-2.1-8.7-2.3-13.5-0.8c-4,1.2-6,0.7-9.1,0c-1-0.3-2.2-0.5-3.6-0.8c-5.8-1.1-5.9-1-6.7,0.7
			c-0.8,1.8,1.1,3.7,1.2,3.7c0.5,0.4,0.6,1.2,0.3,1.8c-0.3,0.6-0.9,0.9-1.6,0.8c-0.1,0-2.8-0.4-6.1-1.6c-0.6-0.2-1.1-0.4-1.7-0.6
			c-2.4-0.9-4.9-1.9-6.3-0.9c-1.2,0.9-1.8,2-1.8,2.6c0,0.1,0,0.2,0.1,0.2c0.9,0.4,10.3,4.6,15.5,6.3c1.8,0.6,3.3,1.2,4.6,1.8
			c2.2,0.9,3.8,1.6,6.2,1.8c2.6,0.3,11.3-0.4,17.1-0.9c3.3-0.3,5.7-0.4,6.5-0.4c0.8,0,3.9,0.1,7.6,0.3L81.9,94.3z"/>
	</g>
	<g id="Shape_7_">
		<path class="st0" d="M44.2,79.7c1.4,0.8,3,1.5,4.4,2.2c1.5,0.7,2.9,1.3,4.4,1.8c1.5,0.5,3.1,0.7,4.7,1c1.6,0.2,3.2,0.4,4.9,0.5
			c-1.6,0.1-3.3,0.2-4.9,0.1c-1.6,0-3.3,0.1-5-0.2c-1.7-0.3-3.3-0.6-4.9-1c-1.6-0.4-3.2-0.9-4.8-1.4L44.2,79.7z"/>
	</g>
	<g id="Shape_8_">
		<path class="st0" d="M70.6,54.8c-0.4,0-0.8-0.3-0.9-0.7c-0.2-0.5,0.1-1.1,0.6-1.3l4.5-1.6c0.5-0.2,1.1,0.1,1.3,0.6
			c0.2,0.5-0.1,1.1-0.6,1.3L71,54.7C70.8,54.8,70.7,54.8,70.6,54.8z"/>
	</g>
	<g id="Shape_9_">
		<path class="st0" d="M75.9,61.3c-0.1,0-0.1,0-0.2,0l-4.8-0.9c-0.5-0.1-0.9-0.6-0.8-1.2c0.1-0.5,0.6-0.9,1.2-0.8l4.8,0.9
			c0.5,0.1,0.9,0.6,0.8,1.2C76.8,61,76.4,61.3,75.9,61.3z"/>
	</g>
	<g id="Shape_10_">
		<path class="st0" d="M72.8,69.1c-0.2,0-0.4-0.1-0.6-0.2l-3.7-3c-0.4-0.3-0.5-1-0.1-1.4c0.3-0.4,1-0.5,1.4-0.1l3.7,3
			c0.4,0.3,0.5,1,0.1,1.4C73.4,69,73.1,69.1,72.8,69.1z"/>
	</g>
	<g>
		<circle class="st2" cx="52" cy="52.5" r="50.7"/>
	</g>
</g>
<g id="Shape">
	<path class="st0" d="M52.5,3C79.8,3,102,25.2,102,52.5S79.8,102,52.5,102S3,79.8,3,52.5S25.2,3,52.5,3L52.5,3z M52.5,0
		C23.5,0,0,23.5,0,52.5S23.5,105,52.5,105S105,81.5,105,52.5S81.5,0,52.5,0L52.5,0z"/>
</g>
</svg>
