<?xml version="1.0" encoding="utf-8"?>
<!-- Generator: Adobe Illustrator 21.0.0, SVG Export Plug-In . SVG Version: 6.00 Build 0)  -->
<svg version="1.1" id="Layer_1" xmlns="http://www.w3.org/2000/svg" xmlns:xlink="http://www.w3.org/1999/xlink" x="0px" y="0px"
	 viewBox="0 0 105 105" style="enable-background:new 0 0 105 105;" xml:space="preserve">
<style type="text/css">
	.st0{filter:url(#Adobe_OpacityMaskFilter);}
	.st1{fill:#FFFFFF;}
	.st2{mask:url(#mask-2);}
</style>
<title>Funding_Programs_Icon_Disaster_white</title>
<desc>Created with Sketch.</desc>
<g id="Loans-Wireframes">
	<g id="Disaster-hover" transform="translate(-62.000000, -114.000000)">
		<g id="Funding_Programs_Icon_Disaster_white" transform="translate(62.000000, 114.000000)">
			<g id="Layer_1_1_">
				<g id="Group">
					<g id="Mask">
					</g>
					<defs>
						<filter id="Adobe_OpacityMaskFilter" filterUnits="userSpaceOnUse" x="0" y="0" width="105" height="105">
							<feColorMatrix  type="matrix" values="1 0 0 0 0  0 1 0 0 0  0 0 1 0 0  0 0 0 1 0"/>
						</filter>
					</defs>
					<mask maskUnits="userSpaceOnUse" x="0" y="0" width="105" height="105" id="mask-2">
						<g class="st0">
							<ellipse id="path-1" class="st1" cx="52.5" cy="52.5" rx="52.5" ry="52.5"/>
						</g>
					</mask>
					<g class="st2">
						<g transform="translate(-16.000000, -9.000000)">
							<g id="Group-4" transform="translate(36.000000, 29.000000)">
								<g id="Shape">
									<path class="st1" d="M34.2,65.9c-1.1,0-2.2-0.1-3.3-0.2c-6.8-0.8-13.5-4-18.3-8.7c-5.8-5.7-9.1-13.7-9-22.1
										c0.1-8.6,3.5-16.3,9.6-21.7c1-0.8,2.1-1.7,3.3-2.6c-3,1.3-5.7,3.3-8.1,6.1C4.7,21,1.7,29.5,1.7,29.6
										c-0.2,0.7-0.9,1.1-1.6,1c-0.7-0.1-1.3-0.7-1.3-1.4c-0.5-6.1,0.9-11.6,4.5-16.7C7.1,7,13,2.6,19.6,0.6
										C27.3-2,35.9-1,43.2,3.1c7.4,4.1,12.7,11,14.5,18.8c0.5,1.9,0.8,3.8,0.9,5.5c0.5-3.4,0.2-6.9-1-10.4
										c-1.8-5.5-7.6-12.3-7.6-12.4c-0.5-0.5-0.5-1.3,0-1.9c0.4-0.6,1.2-0.7,1.8-0.4c5.5,2.8,9.5,6.8,12,12.4
										c2.9,6.3,3.5,13.6,1.8,20c-1.8,7.8-7,14.8-14.3,19c-7.5,4.4-15.9,5.4-23.6,2.9c-1.6-0.5-3.3-1.1-5.1-2
										c2.6,2.2,5.7,3.7,9.5,4.5c5.5,1.3,14.4-0.1,14.5-0.1c0.7-0.1,1.4,0.3,1.6,0.9c0.3,0.7,0,1.4-0.6,1.8
										C43.5,64.5,39,65.9,34.2,65.9z M26.1,5.9c0.5,0,1,0,1.5,0c0.8,0,1.4,0.6,1.4,1.4C29,8,28.5,8.7,27.8,8.9
										c-5.6,1.1-9.7,4.1-12.5,6.6c-5.4,4.9-8.5,11.8-8.6,19.5c-0.1,7.5,2.8,14.8,8.1,19.9c4.4,4.3,10.4,7.1,16.5,7.9
										c2.1,0.3,4,0.2,5.9,0c-2,0-4-0.2-5.8-0.6c-6.4-1.5-11.3-4.7-15.1-9.8c-1.1-1.5-2-3.1-2.9-5c-0.3-0.7-0.1-1.5,0.6-1.9
										c0.6-0.4,1.5-0.3,2,0.3c4.2,5,9,7,12.7,8.1c6.9,2.2,14.5,1.3,21.2-2.7C56.4,47.3,61.1,41,62.7,34c1.6-5.9,1-12.4-1.6-18
										c0,0,0,0,0,0c-0.8-1.7-1.7-3.3-2.8-4.7c0.9,1.6,1.7,3.2,2.2,4.8c2,6.2,1.8,12.1-0.6,17.9c-0.7,1.8-1.7,3.5-2.9,5.1
										c-0.4,0.6-1.2,0.8-1.9,0.4c-0.7-0.3-1-1.1-0.7-1.8c1.7-4.9,1.8-9.6,0.5-15.2c-1.6-7-6.4-13.1-13.1-16.8
										C35.3,2,27.3,1.2,20.5,3.4C14.6,5.3,9.2,9.2,5.7,14.2c-1.1,1.6-2,3.2-2.6,4.9c0.9-1.6,1.9-3.2,3-4.4
										c4.3-5,9.4-7.8,15.7-8.6C23.4,5.9,24.8,5.9,26.1,5.9z M33,42.3c-6.3,0-11.4-5.1-11.4-11.4c0-6.3,5.1-11.4,11.4-11.4
										s11.4,5.1,11.4,11.4C44.4,37.2,39.3,42.3,33,42.3z M33,22.5c-4.7,0-8.4,3.7-8.4,8.4s3.7,8.4,8.4,8.4c4.6,0,8.4-3.8,8.4-8.4
										C41.4,26.2,37.7,22.5,33,22.5z"/>
								</g>
							</g>
							
								<g id="Group-9" transform="translate(64.648518, 63.673196) rotate(-43.000000) translate(-64.648518, -63.673196) translate(19.148518, 17.673196)">
								
									<g id="Group-8" transform="translate(16.535162, 41.034675) scale(1, -1) rotate(-26.000000) translate(-16.535162, -41.034675) translate(7.035162, 24.034675)">
									<g id="Path-6">
										<path class="st1" d="M14.7-0.6c-0.1,0-0.3,0.1-0.4,0.2c-0.1,0.1-1.8,1.6-3.8,4.5c-0.3,0.5-0.2,1.1,0.3,1.4
											c0.5,0.3,1.1,0.2,1.4-0.3c1.8-2.7,3.4-4.1,3.4-4.1c0.4-0.4,0.5-1,0.1-1.4C15.5-0.6,15.1-0.7,14.7-0.6z M9.3,6.7
											C9.1,6.8,8.8,7,8.7,7.2c-2.7,5.1-5.3,13.5-2.5,24.6c0.1,0.5,0.7,0.9,1.2,0.7c0.5-0.1,0.9-0.7,0.7-1.2
											C5.6,20.8,8,12.9,10.5,8.1c0.3-0.5,0.1-1.1-0.4-1.3C9.8,6.7,9.5,6.6,9.3,6.7z"/>
									</g>
									<g id="Path-4">
										<path class="st1" d="M4.7,4.7C4.5,4.8,4.3,4.9,4.2,5.1C4,5.4,0,11.7-0.4,21.2c0,0.6,0.4,1,1,1c0.6,0,1-0.4,1-1
											c0.4-9,4.2-15,4.3-15.1C6.1,5.8,6,5.1,5.5,4.8C5.3,4.7,5,4.6,4.7,4.7z M0.3,24.7c-0.4,0.1-0.7,0.6-0.7,1
											c0.2,2.8,0.8,5.6,1.7,8.4c0.2,0.5,0.7,0.8,1.2,0.6c0,0,0,0,0,0c0.5-0.2,0.8-0.7,0.6-1.3c-0.8-2.6-1.4-5.3-1.6-7.9
											c0-0.6-0.5-1-1.1-0.9C0.5,24.7,0.4,24.7,0.3,24.7z"/>
									</g>
								</g>
								
									<g id="Group-8_1_" transform="translate(74.439021, 20.910643) scale(-1, 1) rotate(27.000000) translate(-74.439021, -20.910643) translate(65.439021, 2.910643)">
									<g id="Path-6_1_">
										<path class="st1" d="M18.7,0.3c0.1-0.3,0.1-0.6-0.1-0.9c-0.3-0.5-0.9-0.6-1.4-0.3c-0.1,0.1-2,1.3-4.3,4
											c-0.4,0.4-0.3,1,0.1,1.4c0.4,0.4,1,0.3,1.4-0.1c2.1-2.4,3.9-3.6,3.9-3.6C18.5,0.7,18.6,0.5,18.7,0.3z M7.1,30.3
											c0.1-0.1,0.1-0.3,0.1-0.5C5.9,19.1,9.3,11.6,12.4,7.1c0.3-0.5,0.2-1.1-0.3-1.4C11.6,5.4,11,5.5,10.7,6
											c-3.3,4.7-6.9,12.7-5.5,24.1C5.3,30.6,5.8,31,6.3,31C6.7,30.9,7,30.7,7.1,30.3z"/>
									</g>
									<g id="Path-4_1_">
										<path class="st1" d="M3.2,36.1c0.1-0.2,0.1-0.4,0-0.6c-0.8-2.6-1.4-5.3-1.6-7.9c0-0.6-0.5-1-1.1-0.9c-0.5,0-1,0.5-0.9,1.1
											c0.2,2.8,0.8,5.6,1.7,8.4c0.2,0.5,0.7,0.8,1.3,0.6C2.9,36.7,3.1,36.4,3.2,36.1z M1.5,23.6c0-0.1,0.1-0.2,0.1-0.3
											c0.4-9,4.2-15,4.3-15.1C6.1,7.8,6,7.1,5.5,6.8C5.1,6.5,4.4,6.7,4.2,7.1C4,7.4,0,13.7-0.4,23.2c0,0.6,0.4,1,1,1
											C1,24.3,1.4,24,1.5,23.6z"/>
									</g>
								</g>
								
									<g id="Group-8_2_" transform="translate(60.534669, 80.685581) scale(-1, 1) rotate(-96.000000) translate(-60.534669, -80.685581) translate(51.534669, 62.685581)">
									<g id="Path-6_2_">
										<path class="st1" d="M6.4,30.9c0.2,0.3,0.6,0.4,0.9,0.4c0.5-0.1,0.9-0.6,0.9-1.1c-0.5-4.1-0.5-8.1,0.1-11.7
											c0.1-0.5-0.3-1.1-0.8-1.1c-0.5-0.1-1.1,0.3-1.1,0.8C5.7,22,5.7,26.1,6.2,30.5C6.2,30.6,6.3,30.8,6.4,30.9z M7.1,15.5
											c0.1,0.2,0.3,0.3,0.6,0.4c0.5,0.1,1.1-0.2,1.2-0.7c0.8-3.1,2-5.8,3.5-8l2.1-2.7c2.1-2.4,3.9-3.6,3.9-3.6
											c0.5-0.3,0.6-0.9,0.3-1.4c-0.3-0.5-0.9-0.6-1.4-0.3c-0.1,0.1-1.9,1.3-4.1,3.7C13.1,2.9,13,3,13,3L10.7,6
											c-1.7,2.5-3,5.4-3.8,8.7C6.9,15,6.9,15.3,7.1,15.5z"/>
									</g>
									<g id="Path-4_2_">
										<path class="st1" d="M1.5,36.4c0.2,0.3,0.7,0.5,1.1,0.3c0.5-0.2,0.8-0.7,0.6-1.3c-0.4-1.4-0.8-2.8-1.1-4.2
											C2,30.8,1.5,30.4,1,30.5c-0.5,0.1-0.9,0.6-0.8,1.2c0.3,1.5,0.7,3,1.1,4.4C1.3,36.2,1.4,36.3,1.5,36.4z M-0.2,28.2
											c0.2,0.2,0.5,0.4,0.8,0.4c0.6,0,1-0.5,1-1l-0.1-4.3c0.4-8.9,4.2-15,4.3-15C6.1,7.8,6,7.1,5.5,6.8C5.1,6.5,4.4,6.7,4.1,7.1
											C4,7.4,0,13.7-0.4,23.2l0.1,4.4C-0.4,27.8-0.3,28-0.2,28.2z"/>
									</g>
								</g>
							</g>
							<g id="Shape_1_">
								<path class="st1" d="M68.5,12C95.8,12,118,34.2,118,61.5S95.8,111,68.5,111S19,88.8,19,61.5S41.2,12,68.5,12L68.5,12z
									 M68.5,9C39.5,9,16,32.5,16,61.5S39.5,114,68.5,114S121,90.5,121,61.5S97.5,9,68.5,9L68.5,9z"/>
							</g>
						</g>
					</g>
				</g>
			</g>
		</g>
	</g>
</g>
</svg>
