<?xml version="1.0" encoding="utf-8"?>
<!-- Generator: Adobe Illustrator 21.0.0, SVG Export Plug-In . SVG Version: 6.00 Build 0)  -->
<svg version="1.1" id="Layer_1" xmlns="http://www.w3.org/2000/svg" xmlns:xlink="http://www.w3.org/1999/xlink" x="0px" y="0px"
	 viewBox="0 0 105.1 105.1" style="enable-background:new 0 0 105.1 105.1;" xml:space="preserve">
<style type="text/css">
	.st0{clip-path:url(#SVGID_2_);}
	.st1{fill:none;stroke:#FFFFFF;stroke-width:2;stroke-linecap:round;stroke-linejoin:round;stroke-miterlimit:10;}
	.st2{fill:#FFFFFF;stroke:#182900;stroke-width:2;stroke-linecap:round;stroke-linejoin:round;stroke-miterlimit:10;}
	
		.st3{clip-path:url(#SVGID_4_);fill:none;stroke:#FFFFFF;stroke-width:2;stroke-linecap:round;stroke-linejoin:round;stroke-miterlimit:10;}
	
		.st4{clip-path:url(#SVGID_6_);fill:none;stroke:#FFFFFF;stroke-width:2;stroke-linecap:round;stroke-linejoin:round;stroke-miterlimit:10;}
	
		.st5{clip-path:url(#SVGID_8_);fill:none;stroke:#FFFFFF;stroke-width:2;stroke-linecap:round;stroke-linejoin:round;stroke-miterlimit:10;}
	.st6{clip-path:url(#SVGID_10_);}
	.st7{clip-path:url(#SVGID_12_);}
	.st8{clip-path:url(#SVGID_14_);}
	.st9{clip-path:url(#SVGID_16_);}
	.st10{fill:#FFFFFF;}
</style>
<title>Funding_Programs_Icon_Investment_color</title>
<desc>Created with Sketch.</desc>
<g>
	<g>
		<g>
			<defs>
				<circle id="SVGID_1_" cx="52.5" cy="52.5" r="52.5"/>
			</defs>
			<clipPath id="SVGID_2_">
				<use xlink:href="#SVGID_1_"  style="overflow:visible;"/>
			</clipPath>
			<g class="st0">
				<polygon class="st1" points="3.5,30.6 3.5,22 -1.7,22 -1.7,4 -7.4,4 -7.4,22 -12.6,22 -12.6,30.6 -18.9,30.6 -18.9,95.2 
					9.7,95.2 9.7,30.6 				"/>
				<rect x="-12.3" y="37.3" class="st2" width="5.3" height="5.3"/>
				<rect x="-2" y="37.3" class="st1" width="5.3" height="5.3"/>
				<rect x="-12.3" y="48" class="st2" width="5.3" height="5.3"/>
				<rect x="-2" y="48" class="st1" width="5.3" height="5.3"/>
				<rect x="-12.3" y="58.7" class="st2" width="5.3" height="5.3"/>
				<rect x="-2" y="58.7" class="st1" width="5.3" height="5.3"/>
				<rect x="-12.3" y="69.4" class="st2" width="5.3" height="5.3"/>
				<rect x="-2" y="69.4" class="st1" width="5.3" height="5.3"/>
				<rect x="-12.3" y="80.2" class="st2" width="5.3" height="5.3"/>
				<rect x="-2" y="80.2" class="st1" width="5.3" height="5.3"/>
			</g>
		</g>
		<g>
			<defs>
				<circle id="SVGID_3_" cx="52.5" cy="52.5" r="52.5"/>
			</defs>
			<clipPath id="SVGID_4_">
				<use xlink:href="#SVGID_3_"  style="overflow:visible;"/>
			</clipPath>
			<path class="st3" d="M49.5,14.3c-0.4-0.5-0.9-1-1.8-1.3c-1.7-0.5-2.9,0-3.8,0.7c0,0-1.6-1.7-4.2-0.7c-2.4,0.9-2.4,2.6-2.4,2.6
				s-1.9-0.5-3,1c-1.1,1.6-0.5,2.5,0.1,3.3c0.5,0.7,1.7,0.9,2.4,0.9s12.2,0,12.8,0"/>
		</g>
		<g>
			<defs>
				<circle id="SVGID_5_" cx="52.5" cy="52.5" r="52.5"/>
			</defs>
			<clipPath id="SVGID_6_">
				<use xlink:href="#SVGID_5_"  style="overflow:visible;"/>
			</clipPath>
			<path class="st4" d="M31.7,36.9c0.6,0,2.2,0,3.1-0.9c1-1,1-2.4,0.3-3.3c-0.6-0.8-2-1.2-3-0.5c0,0,0.1-2.4-2.4-3.1
				c-1.7-0.5-2.9,0-3.8,0.7c0,0-1.6-1.7-4.2-0.7c-2.4,0.9-2.4,2.6-2.4,2.6s-1.9-0.5-3,1c-1.1,1.6-0.5,2.5,0.1,3.3
				c0.5,0.7,1.7,0.9,2.4,0.9S31.1,36.9,31.7,36.9z"/>
		</g>
		<g>
			<defs>
				<circle id="SVGID_7_" cx="52.5" cy="52.5" r="52.5"/>
			</defs>
			<clipPath id="SVGID_8_">
				<use xlink:href="#SVGID_7_"  style="overflow:visible;"/>
			</clipPath>
			<path class="st5" d="M84.5,30.1c0.6,0,2.2,0,3.1-0.9c1-1,1-2.4,0.3-3.3c-0.6-0.8-2-1.2-3-0.5c0,0,0.1-2.4-2.4-3.1
				c-1.7-0.5-2.9,0-3.8,0.7c0,0-1.6-1.7-4.2-0.7c-2.4,0.9-2.4,2.6-2.4,2.6s-1.9-0.5-3,1c-1.1,1.6-0.5,2.5,0.1,3.3
				c0.5,0.7,1.7,0.9,2.4,0.9S83.9,30.1,84.5,30.1z"/>
		</g>
		<g>
			<defs>
				<circle id="SVGID_9_" cx="52.5" cy="52.5" r="52.5"/>
			</defs>
			<clipPath id="SVGID_10_">
				<use xlink:href="#SVGID_9_"  style="overflow:visible;"/>
			</clipPath>
			<g class="st6">
				<path class="st1" d="M34,53.7c0-0.2,0-0.5,0-0.7c0-5.5-4.5-10-10-10s-10,4.5-10,10c0,0.2,0,0.5,0,0.7H9.8v68.4h28.5V53.7H34z"/>
				<rect x="16" y="58.5" class="st1" width="15.6" height="5.3"/>
				<rect x="16" y="69.2" class="st1" width="15.6" height="5.3"/>
				<rect x="16" y="79.9" class="st1" width="15.6" height="5.3"/>
				<rect x="16" y="90.6" class="st1" width="15.6" height="5.3"/>
				<rect x="16" y="101.3" class="st2" width="15.6" height="5.3"/>
			</g>
		</g>
		<g>
			<defs>
				<circle id="SVGID_11_" cx="52.5" cy="52.5" r="52.5"/>
			</defs>
			<clipPath id="SVGID_12_">
				<use xlink:href="#SVGID_11_"  style="overflow:visible;"/>
			</clipPath>
			<g class="st7">
				<polygon class="st1" points="60.7,38.3 60.7,29.7 55.5,29.7 55.5,11.6 49.8,11.6 49.8,29.7 44.6,29.7 44.6,38.3 38.4,38.3 
					38.4,109.6 66.9,109.6 66.9,38.3 				"/>
				<rect x="44.9" y="45" class="st1" width="15.6" height="5.3"/>
				<rect x="44.9" y="55.7" class="st1" width="15.6" height="5.3"/>
				<rect x="44.9" y="66.4" class="st1" width="15.6" height="5.3"/>
				<rect x="44.9" y="77.1" class="st1" width="15.6" height="5.3"/>
				<rect x="44.9" y="87.8" class="st1" width="15.6" height="5.3"/>
				<rect x="44.9" y="98.6" class="st1" width="15.6" height="5.3"/>
			</g>
		</g>
		<g>
			<defs>
				<circle id="SVGID_13_" cx="52.5" cy="52.5" r="52.5"/>
			</defs>
			<clipPath id="SVGID_14_">
				<use xlink:href="#SVGID_13_"  style="overflow:visible;"/>
			</clipPath>
			<g class="st8">
				<polygon class="st1" points="90.6,50.2 90.6,41.2 71.5,41.2 71.5,50.2 67.3,50.2 67.3,103.7 94.8,103.7 94.8,50.2 				"/>
				<rect x="73.3" y="54.8" class="st1" width="15.6" height="5.3"/>
				<rect x="73.3" y="65.6" class="st1" width="15.6" height="5.3"/>
				<rect x="73.3" y="76.3" class="st1" width="15.6" height="5.3"/>
				<rect x="73.3" y="87" class="st1" width="15.6" height="5.3"/>
			</g>
		</g>
		<g>
			<defs>
				<circle id="SVGID_15_" cx="52.5" cy="52.5" r="52.5"/>
			</defs>
			<clipPath id="SVGID_16_">
				<use xlink:href="#SVGID_15_"  style="overflow:visible;"/>
			</clipPath>
			<g class="st9">
				<polygon class="st1" points="117.5,33.1 117.5,24.5 112.3,24.5 112.3,6.4 106.6,6.4 106.6,24.5 101.4,24.5 101.4,33.1 
					95.1,33.1 95.1,97.6 123.7,97.6 123.7,33.1 				"/>
				<rect x="101.7" y="39.8" class="st1" width="5.3" height="5.3"/>
				<rect x="112" y="39.8" class="st2" width="5.3" height="5.3"/>
				<rect x="101.7" y="50.5" class="st1" width="5.3" height="5.3"/>
				<rect x="112" y="50.5" class="st2" width="5.3" height="5.3"/>
				<rect x="101.7" y="61.2" class="st1" width="5.3" height="5.3"/>
				<rect x="112" y="61.2" class="st2" width="5.3" height="5.3"/>
				<rect x="101.7" y="71.9" class="st1" width="5.3" height="5.3"/>
				<rect x="112" y="71.9" class="st2" width="5.3" height="5.3"/>
				<rect x="101.7" y="82.6" class="st1" width="5.3" height="5.3"/>
				<rect x="112" y="82.6" class="st2" width="5.3" height="5.3"/>
			</g>
		</g>
	</g>
	<g>
		<path class="st10" d="M52.5,3C79.8,3,102,25.2,102,52.5S79.8,102,52.5,102S3,79.9,3,52.5S25.2,3,52.5,3 M52.5,0
			C23.5,0,0,23.5,0,52.5S23.5,105,52.5,105S105,81.5,105,52.5S81.6,0,52.5,0L52.5,0z"/>
	</g>
</g>
</svg>
