<?xml version="1.0" encoding="utf-8"?>
<!-- Generator: Adobe Illustrator 21.0.0, SVG Export Plug-In . SVG Version: 6.00 Build 0)  -->
<svg version="1.1" id="Layer_1" xmlns="http://www.w3.org/2000/svg" xmlns:xlink="http://www.w3.org/1999/xlink" x="0px" y="0px"
	 viewBox="0 0 105 106" style="enable-background:new 0 0 105 106;" xml:space="preserve">
<style type="text/css">
	.st0{fill:#FFFFFF;}
	.st1{fill:#609F00;}
	.st2{fill:#182900;}
	.st3{fill:#B5B5B5;}
</style>
<title>Funding_Programs_Icon_Surety_color</title>
<desc>Created with Sketch.</desc>
<g id="Shape_7_">
	<path class="st0" d="M52.5,83c29.4-7.6,29-46.5,29-46.5c-16.3,4.1-29-8.6-29-8.6s-11.4,12.7-29,8.6C23.5,36.5,23.1,75.3,52.5,83z"
		/>
</g>
<g id="Shape_2_">
	<path class="st1" d="M85.5,37.9c0-0.8,0.1-1.3-0.6-1.1c-7.3,2.9-12.3,1.3-27.2-6.2c-0.5-0.4-1.7-1.5-2.1-1.1
		c-2.8,2.6-12.8,13.8-26.9,11.2c-1.4-0.3-1.3-0.2-1.2,0.5c0.3,7.3,4.4,33.8,30,40.7C83,74.9,85.2,45.2,85.5,37.9z"/>
</g>
<g id="Shape">
	<path class="st2" d="M52.5,3.1c27.3,0,49.5,22.2,49.5,49.5s-22.2,49.5-49.5,49.5S3,79.9,3,52.6S25.2,3.1,52.5,3.1L52.5,3.1z
		 M52.5,0.1C23.5,0.1,0,23.6,0,52.6s23.5,52.5,52.5,52.5S105,81.6,105,52.6S81.5,0.1,52.5,0.1L52.5,0.1z"/>
</g>
<g id="Shape_1_">
	<path class="st2" d="M52.5,84.4c-0.1,0-0.3,0-0.4,0C21.9,76.4,22,36.8,22,36.4c0-0.5,0.2-0.9,0.6-1.2c0.4-0.3,0.8-0.4,1.3-0.3
		c16.5,3.9,27.4-8,27.5-8.1c0.3-0.3,0.7-0.5,1.1-0.5c0.4,0,0.8,0.1,1.1,0.4c0.1,0.1,12.3,12,27.6,8.2c0.4-0.1,0.9,0,1.3,0.3
		c0.4,0.3,0.6,0.7,0.6,1.2c0,0.4,0.1,40.2-30.1,48C52.8,84.4,52.6,84.4,52.5,84.4z M25.1,38.2c0.4,7.6,3.5,36.5,27.4,43.1
		c24-6.5,27.1-35.4,27.4-43.1c-13.4,2.4-24-5.5-27.4-8.4C49.4,32.9,39.4,40.7,25.1,38.2z"/>
</g>
<g id="Oval">
	<circle class="st0" cx="52.4" cy="55" r="12.6"/>
	<path class="st2" d="M52.4,69.1c-7.8,0-14.1-6.3-14.1-14.1c0-7.8,6.3-14.1,14.1-14.1S66.5,47.2,66.5,55
		C66.5,62.8,60.2,69.1,52.4,69.1z M52.4,43.9c-6.1,0-11.1,5-11.1,11.1c0,6.1,5,11.1,11.1,11.1s11.1-5,11.1-11.1
		C63.5,48.9,58.5,43.9,52.4,43.9z"/>
</g>
<g id="Shape_3_">
	<path class="st2" d="M50.7,60.1C50.7,60.1,50.7,60.1,50.7,60.1c-0.4,0-0.8-0.2-1.1-0.5L46.1,56c-0.6-0.6-0.6-1.5,0-2.1
		c0.6-0.6,1.5-0.6,2.1,0l2.4,2.5l5.9-5.9c0.6-0.6,1.5-0.6,2.1,0s0.6,1.5,0,2.1l-7,7C51.5,59.9,51.1,60.1,50.7,60.1z"/>
</g>
<g id="Shape_4_">
	<path class="st3" d="M34.2,32.2c-0.2,0-0.4-0.1-0.6-0.2l-4.7-3.4c-0.4-0.3-0.5-0.9-0.2-1.4s0.9-0.5,1.4-0.2l4.7,3.4
		c0.4,0.3,0.5,0.9,0.2,1.4C34.8,32.1,34.5,32.2,34.2,32.2z"/>
</g>
<g id="Shape_5_">
	<path class="st3" d="M37.6,29.8c-0.4,0-0.7-0.2-0.9-0.6l-2.4-5.3c-0.2-0.5,0-1.1,0.5-1.3s1.1,0,1.3,0.5l2.4,5.3
		c0.2,0.5,0,1.1-0.5,1.3C37.9,29.8,37.7,29.8,37.6,29.8z"/>
</g>
<g id="Shape_6_">
	<path class="st3" d="M41.7,29.3c0,0-0.1,0-0.1,0c-0.5-0.1-0.9-0.5-0.9-1.1l0.6-5.7c0.1-0.5,0.5-0.9,1.1-0.9
		c0.5,0.1,0.9,0.5,0.9,1.1l-0.6,5.7C42.6,28.9,42.2,29.3,41.7,29.3z"/>
</g>
</svg>
