<?xml version="1.0" encoding="utf-8"?>
<!-- Generator: Adobe Illustrator 21.0.0, SVG Export Plug-In . SVG Version: 6.00 Build 0)  -->
<svg version="1.1" id="Layer_1" xmlns="http://www.w3.org/2000/svg" xmlns:xlink="http://www.w3.org/1999/xlink" x="0px" y="0px"
	 viewBox="0 0 105.1 105.1" style="enable-background:new 0 0 105.1 105.1;" xml:space="preserve">
<style type="text/css">
	.st0{clip-path:url(#SVGID_2_);}
	.st1{fill:#FFFFFF;}
	.st2{fill:#609F00;}
	.st3{fill:#182900;}
	.st4{clip-path:url(#SVGID_4_);}
	.st5{fill:#B5B5B5;}
	.st6{clip-path:url(#SVGID_6_);}
	.st7{clip-path:url(#SVGID_8_);}
	.st8{clip-path:url(#SVGID_10_);}
	.st9{clip-path:url(#SVGID_12_);}
	.st10{clip-path:url(#SVGID_14_);}
	.st11{clip-path:url(#SVGID_16_);}
</style>
<title>Funding_Programs_Icon_Investment_color</title>
<desc>Created with Sketch.</desc>
<g>
	<g>
		<g>
			<defs>
				<circle id="SVGID_1_" cx="52.5" cy="52.5" r="52.5"/>
			</defs>
			<clipPath id="SVGID_2_">
				<use xlink:href="#SVGID_1_"  style="overflow:visible;"/>
			</clipPath>
			<g class="st0">
				<g>
					<polygon class="st1" points="3.5,30.6 3.5,22 -1.7,22 -1.7,4 -7.4,4 -7.4,22 -12.6,22 -12.6,30.6 -18.9,30.6 -18.9,95.2 
						9.7,95.2 9.7,30.6 					"/>
				</g>
				<g>
					<path class="st2" d="M6.7,29.5v-6.3c0-0.6-0.5-1.1-1.1-1.1H2.7c-0.6,0-1.1-0.5-1.1-1.1V5.1C1.6,4.5,1.1,4,0.4,4H-3
						c-0.6,0-1.1,0.5-1.1,1.1v15.7c0,0.6-0.5,1.1-1.1,1.1h-2.9c-0.6,0-1.1,0.5-1.1,1.1v6.3c0,0.6-0.5,1.1-1.1,1.1h-4
						c-0.6,0-1.1,0.5-1.1,1.1V94c0,0.6,0.5,1.1,1.1,1.1H12c0.6,0,1.1-0.5,1.1-1.1V31.7c0-0.6-0.5-1.1-1.1-1.1H8
						C7.3,30.6,6.7,30.1,6.7,29.5z"/>
				</g>
				<g>
					<path class="st3" d="M9.7,96.7h-28.6c-0.8,0-1.5-0.7-1.5-1.5V30.6c0-0.8,0.7-1.5,1.5-1.5h4.8V22c0-0.8,0.7-1.5,1.5-1.5h3.7V4
						c0-0.8,0.7-1.5,1.5-1.5h5.7c0.8,0,1.5,0.7,1.5,1.5v16.5h3.7C4.3,20.5,5,21.2,5,22v7.1h4.7c0.8,0,1.5,0.7,1.5,1.5v64.6
						C11.2,96,10.5,96.7,9.7,96.7z M-17.4,93.7H8.2V32.1H3.5c-0.8,0-1.5-0.7-1.5-1.5v-7.1h-3.7c-0.8,0-1.5-0.7-1.5-1.5V5.5h-2.7V22
						c0,0.8-0.7,1.5-1.5,1.5h-3.7v7.1c0,0.8-0.7,1.5-1.5,1.5h-4.8V93.7z"/>
				</g>
				<g>
					<rect x="-12.3" y="37.3" class="st1" width="5.3" height="5.3"/>
					<path class="st3" d="M-7,43.6h-5.3c-0.6,0-1-0.4-1-1v-5.3c0-0.6,0.4-1,1-1H-7c0.6,0,1,0.4,1,1v5.3C-6,43.2-6.4,43.6-7,43.6z
						 M-11.3,41.6H-8v-3.3h-3.3V41.6z"/>
				</g>
				<g>
					<rect x="-2" y="37.3" class="st1" width="5.3" height="5.3"/>
					<path class="st3" d="M3.3,43.6H-2c-0.6,0-1-0.4-1-1v-5.3c0-0.6,0.4-1,1-1h5.3c0.6,0,1,0.4,1,1v5.3C4.3,43.2,3.9,43.6,3.3,43.6z
						 M-1,41.6h3.3v-3.3H-1V41.6z"/>
				</g>
				<g>
					<rect x="-12.3" y="48" class="st1" width="5.3" height="5.3"/>
					<path class="st3" d="M-7,54.3h-5.3c-0.6,0-1-0.4-1-1V48c0-0.6,0.4-1,1-1H-7c0.6,0,1,0.4,1,1v5.3C-6,53.9-6.4,54.3-7,54.3z
						 M-11.3,52.3H-8V49h-3.3V52.3z"/>
				</g>
				<g>
					<rect x="-2" y="48" class="st1" width="5.3" height="5.3"/>
					<path class="st3" d="M3.3,54.3H-2c-0.6,0-1-0.4-1-1V48c0-0.6,0.4-1,1-1h5.3c0.6,0,1,0.4,1,1v5.3C4.3,53.9,3.9,54.3,3.3,54.3z
						 M-1,52.3h3.3V49H-1V52.3z"/>
				</g>
				<g>
					<rect x="-12.3" y="58.7" class="st1" width="5.3" height="5.3"/>
					<path class="st3" d="M-7,65h-5.3c-0.6,0-1-0.4-1-1v-5.3c0-0.6,0.4-1,1-1H-7c0.6,0,1,0.4,1,1V64C-6,64.6-6.4,65-7,65z M-11.3,63
						H-8v-3.3h-3.3V63z"/>
				</g>
				<g>
					<rect x="-2" y="58.7" class="st1" width="5.3" height="5.3"/>
					<path class="st3" d="M3.3,65H-2c-0.6,0-1-0.4-1-1v-5.3c0-0.6,0.4-1,1-1h5.3c0.6,0,1,0.4,1,1V64C4.3,64.6,3.9,65,3.3,65z M-1,63
						h3.3v-3.3H-1V63z"/>
				</g>
				<g>
					<rect x="-12.3" y="69.4" class="st1" width="5.3" height="5.3"/>
					<path class="st3" d="M-7,75.7h-5.3c-0.6,0-1-0.4-1-1v-5.3c0-0.6,0.4-1,1-1H-7c0.6,0,1,0.4,1,1v5.3C-6,75.3-6.4,75.7-7,75.7z
						 M-11.3,73.7H-8v-3.3h-3.3V73.7z"/>
				</g>
				<g>
					<rect x="-2" y="69.4" class="st1" width="5.3" height="5.3"/>
					<path class="st3" d="M3.3,75.7H-2c-0.6,0-1-0.4-1-1v-5.3c0-0.6,0.4-1,1-1h5.3c0.6,0,1,0.4,1,1v5.3C4.3,75.3,3.9,75.7,3.3,75.7z
						 M-1,73.7h3.3v-3.3H-1V73.7z"/>
				</g>
				<g>
					<rect x="-12.3" y="80.2" class="st1" width="5.3" height="5.3"/>
					<path class="st3" d="M-7,86.5h-5.3c-0.6,0-1-0.4-1-1v-5.3c0-0.6,0.4-1,1-1H-7c0.6,0,1,0.4,1,1v5.3C-6,86.1-6.4,86.5-7,86.5z
						 M-11.3,84.5H-8v-3.3h-3.3V84.5z"/>
				</g>
				<g>
					<rect x="-2" y="80.2" class="st1" width="5.3" height="5.3"/>
					<path class="st3" d="M3.3,86.5H-2c-0.6,0-1-0.4-1-1v-5.3c0-0.6,0.4-1,1-1h5.3c0.6,0,1,0.4,1,1v5.3C4.3,86.1,3.9,86.5,3.3,86.5z
						 M-1,84.5h3.3v-3.3H-1V84.5z"/>
				</g>
			</g>
		</g>
		<g>
			<defs>
				<circle id="SVGID_3_" cx="52.5" cy="52.5" r="52.5"/>
			</defs>
			<clipPath id="SVGID_4_">
				<use xlink:href="#SVGID_3_"  style="overflow:visible;"/>
			</clipPath>
			<g class="st4">
				<path class="st1" d="M49.7,20.8c0.6,0,2.2,0,3.1-0.9c1-1,1-2.4,0.3-3.3c-0.6-0.8-2-1.2-3-0.5c0,0,0.1-2.4-2.4-3.1
					c-1.7-0.5-2.9,0-3.8,0.7c0,0-1.6-1.7-4.2-0.7c-2.4,0.9-2.4,2.6-2.4,2.6s-1.9-0.5-3,1c-1.1,1.6-0.5,2.5,0.1,3.3
					c0.5,0.7,1.7,0.9,2.4,0.9S49.1,20.8,49.7,20.8z"/>
				<path class="st5" d="M49.7,21.8H36.8c-0.4,0-2.3-0.1-3.2-1.3c-0.6-0.8-1.7-2.2-0.1-4.4c0.9-1.2,2.1-1.5,3.1-1.5
					c0.3-0.8,1.1-1.8,2.8-2.5c2.1-0.8,3.7-0.2,4.6,0.4c1.2-0.7,2.6-0.9,4-0.4c1.7,0.5,2.6,1.7,2.9,2.7c1.2-0.1,2.4,0.4,3,1.2
					c1.1,1.4,0.9,3.3-0.4,4.6C52.3,21.8,50.4,21.8,49.7,21.8z M36.6,16.5c-0.4,0-1,0.1-1.5,0.7c-0.7,1-0.4,1.4,0.1,2.1
					c0.2,0.3,0.9,0.5,1.6,0.5h12.9c0.4,0,1.8,0,2.4-0.6c0.6-0.6,0.6-1.5,0.2-2c-0.3-0.4-1.1-0.7-1.6-0.3c-0.3,0.2-0.7,0.2-1.1,0.1
					c-0.3-0.2-0.5-0.5-0.5-0.9c0-0.2,0-1.6-1.7-2.1c-1.1-0.3-2-0.2-2.9,0.5c-0.4,0.3-1,0.3-1.3-0.1c0,0-1.2-1.2-3.1-0.5
					c-1.7,0.6-1.8,1.7-1.8,1.7c0,0.3-0.1,0.6-0.4,0.8c-0.2,0.2-0.6,0.3-0.9,0.2C37,16.6,36.8,16.5,36.6,16.5z"/>
			</g>
		</g>
		<g>
			<defs>
				<circle id="SVGID_5_" cx="52.5" cy="52.5" r="52.5"/>
			</defs>
			<clipPath id="SVGID_6_">
				<use xlink:href="#SVGID_5_"  style="overflow:visible;"/>
			</clipPath>
			<g class="st6">
				<path class="st1" d="M31.7,36.9c0.6,0,2.2,0,3.1-0.9c1-1,1-2.4,0.3-3.3c-0.6-0.8-2-1.2-3-0.5c0,0,0.1-2.4-2.4-3.1
					c-1.7-0.5-2.9,0-3.8,0.7c0,0-1.6-1.7-4.2-0.7c-2.4,0.9-2.4,2.6-2.4,2.6s-1.9-0.5-3,1c-1.1,1.6-0.5,2.5,0.1,3.3
					c0.5,0.7,1.7,0.9,2.4,0.9S31.1,36.9,31.7,36.9z"/>
				<path class="st5" d="M31.7,37.9H18.8c-0.4,0-2.3-0.1-3.2-1.3c-0.6-0.8-1.7-2.2-0.1-4.4c0.9-1.2,2.1-1.5,3.1-1.5
					c0.3-0.8,1.1-1.8,2.8-2.5c2.1-0.8,3.7-0.2,4.6,0.4c1.2-0.7,2.6-0.9,4-0.4c1.7,0.5,2.6,1.7,2.9,2.7c1.2-0.1,2.4,0.4,3,1.2
					c1.1,1.4,0.9,3.3-0.4,4.6C34.3,37.9,32.4,37.9,31.7,37.9z M18.6,32.6c-0.4,0-1,0.1-1.5,0.7c-0.7,1-0.4,1.4,0.1,2.1
					c0.2,0.3,0.9,0.5,1.6,0.5h12.9c0.4,0,1.8,0,2.4-0.6c0.6-0.6,0.6-1.5,0.2-2c-0.3-0.4-1.1-0.7-1.6-0.3c-0.3,0.2-0.7,0.2-1.1,0.1
					c-0.3-0.2-0.5-0.5-0.5-0.9c0-0.2,0-1.6-1.7-2.1c-1.1-0.3-2-0.2-2.9,0.5c-0.4,0.3-1,0.3-1.3-0.1c0,0-1.2-1.2-3.1-0.5
					c-1.7,0.6-1.8,1.7-1.8,1.7c0,0.3-0.1,0.6-0.4,0.8c-0.2,0.2-0.6,0.3-0.9,0.2C19,32.7,18.8,32.6,18.6,32.6z"/>
			</g>
		</g>
		<g>
			<defs>
				<circle id="SVGID_7_" cx="52.5" cy="52.5" r="52.5"/>
			</defs>
			<clipPath id="SVGID_8_">
				<use xlink:href="#SVGID_7_"  style="overflow:visible;"/>
			</clipPath>
			<g class="st7">
				<path class="st1" d="M84.5,30.1c0.6,0,2.2,0,3.1-0.9c1-1,1-2.4,0.3-3.3c-0.6-0.8-2-1.2-3-0.5c0,0,0.1-2.4-2.4-3.1
					c-1.7-0.5-2.9,0-3.8,0.7c0,0-1.6-1.7-4.2-0.7c-2.4,0.9-2.4,2.6-2.4,2.6s-1.9-0.5-3,1c-1.1,1.6-0.5,2.5,0.1,3.3
					c0.5,0.7,1.7,0.9,2.4,0.9S83.9,30.1,84.5,30.1z"/>
				<path class="st5" d="M84.5,31.1H71.6c-0.4,0-2.3-0.1-3.2-1.3c-0.6-0.8-1.7-2.2-0.1-4.4c0.9-1.2,2.1-1.5,3.1-1.5
					c0.3-0.8,1.1-1.8,2.8-2.5c2.1-0.8,3.7-0.2,4.6,0.4c1.2-0.7,2.6-0.9,4-0.4c1.7,0.5,2.6,1.7,2.9,2.7c1.2-0.1,2.4,0.4,3,1.2
					c1.1,1.4,0.9,3.3-0.4,4.6C87.1,31.1,85.2,31.1,84.5,31.1z M71.4,25.8c-0.4,0-1,0.1-1.5,0.7c-0.7,1-0.4,1.4,0.1,2.1
					c0.2,0.3,0.9,0.5,1.6,0.5h12.9c0.4,0,1.8,0,2.4-0.6c0.6-0.6,0.6-1.5,0.2-2c-0.3-0.4-1.1-0.7-1.6-0.3c-0.3,0.2-0.7,0.2-1.1,0.1
					c-0.3-0.2-0.5-0.5-0.5-0.9c0-0.2,0-1.6-1.7-2.1c-1.1-0.3-2-0.2-2.9,0.5c-0.4,0.3-1,0.3-1.3-0.1c0,0-1.2-1.2-3.1-0.5
					c-1.7,0.6-1.8,1.7-1.8,1.7c0,0.3-0.2,0.6-0.4,0.8c-0.2,0.2-0.5,0.2-0.8,0.2C71.8,25.9,71.6,25.8,71.4,25.8z"/>
			</g>
		</g>
		<g>
			<defs>
				<circle id="SVGID_9_" cx="52.5" cy="52.5" r="52.5"/>
			</defs>
			<clipPath id="SVGID_10_">
				<use xlink:href="#SVGID_9_"  style="overflow:visible;"/>
			</clipPath>
			<g class="st8">
				<g>
					<path class="st1" d="M34,53.7c0-0.2,0-0.5,0-0.7c0-5.5-4.5-10-10-10s-10,4.5-10,10c0,0.2,0,0.5,0,0.7H9.8v68.4h28.5V53.7H34z"
						/>
				</g>
				<g>
					<path class="st2" d="M37.7,53.7c0-0.2,0-0.5,0-0.7c0-5.5-4.5-10-10-10s-10,4.5-10,10c0,0.2,0,0.5,0,0.7h-4.4v68.4h28.5V53.7
						H37.7z"/>
				</g>
				<g>
					<path class="st3" d="M38.3,123.6H9.8c-0.8,0-1.5-0.7-1.5-1.5V53.7c0-0.8,0.7-1.5,1.5-1.5h2.7c0.4-6,5.4-10.7,11.5-10.7
						s11.1,4.7,11.5,10.7h2.8c0.8,0,1.5,0.7,1.5,1.5v68.4C39.8,122.9,39.1,123.6,38.3,123.6z M11.3,120.6h25.5V55.2H34
						c-0.8,0-1.5-0.7-1.5-1.5V53c0-4.7-3.8-8.5-8.5-8.5s-8.5,3.8-8.5,8.5v0.7c0,0.8-0.7,1.5-1.5,1.5h-2.7V120.6z"/>
				</g>
				<g>
					<rect x="16" y="58.5" class="st1" width="15.6" height="5.3"/>
					<path class="st3" d="M31.6,64.8H16c-0.6,0-1-0.4-1-1v-5.3c0-0.6,0.4-1,1-1h15.6c0.6,0,1,0.4,1,1v5.3
						C32.6,64.4,32.2,64.8,31.6,64.8z M17,62.8h13.6v-3.3H17V62.8z"/>
				</g>
				<g>
					<rect x="16" y="69.2" class="st1" width="15.6" height="5.3"/>
					<path class="st3" d="M31.6,75.5H16c-0.6,0-1-0.4-1-1v-5.3c0-0.6,0.4-1,1-1h15.6c0.6,0,1,0.4,1,1v5.3
						C32.6,75.1,32.2,75.5,31.6,75.5z M17,73.5h13.6v-3.3H17V73.5z"/>
				</g>
				<g>
					<rect x="16" y="79.9" class="st1" width="15.6" height="5.3"/>
					<path class="st3" d="M31.6,86.2H16c-0.6,0-1-0.4-1-1v-5.3c0-0.6,0.4-1,1-1h15.6c0.6,0,1,0.4,1,1v5.3
						C32.6,85.8,32.2,86.2,31.6,86.2z M17,84.2h13.6v-3.3H17V84.2z"/>
				</g>
				<g>
					<rect x="16" y="90.6" class="st1" width="15.6" height="5.3"/>
					<path class="st3" d="M31.6,96.9H16c-0.6,0-1-0.4-1-1v-5.3c0-0.6,0.4-1,1-1h15.6c0.6,0,1,0.4,1,1v5.3
						C32.6,96.5,32.2,96.9,31.6,96.9z M17,94.9h13.6v-3.3H17V94.9z"/>
				</g>
				<g>
					<rect x="16" y="101.3" class="st1" width="15.6" height="5.3"/>
					<path class="st3" d="M31.6,107.6H16c-0.6,0-1-0.4-1-1v-5.3c0-0.6,0.4-1,1-1h15.6c0.6,0,1,0.4,1,1v5.3
						C32.6,107.2,32.2,107.6,31.6,107.6z M17,105.6h13.6v-3.3H17V105.6z"/>
				</g>
			</g>
		</g>
		<g>
			<defs>
				<circle id="SVGID_11_" cx="52.5" cy="52.5" r="52.5"/>
			</defs>
			<clipPath id="SVGID_12_">
				<use xlink:href="#SVGID_11_"  style="overflow:visible;"/>
			</clipPath>
			<g class="st9">
				<g>
					<polygon class="st1" points="60.7,38.3 60.7,29.7 55.5,29.7 55.5,11.6 49.8,11.6 49.8,29.7 44.6,29.7 44.6,38.3 38.4,38.3 
						38.4,109.6 66.9,109.6 66.9,38.3 					"/>
				</g>
				<g>
					<path class="st2" d="M64,37.3v-6.6c0-0.6-0.4-1-1-1h-3.2c-0.6,0-1-0.4-1-1v-16c0-0.6-0.4-1-1-1H54c-0.6,0-1,0.4-1,1v16
						c0,0.6-0.4,1-1,1h-3.2c-0.6,0-1,0.4-1,1v6.6c0,0.6-0.4,1-1,1h-4.2c-0.6,0-1,0.4-1,1v69.4c0,0.6,0.4,1,1,1h26.6c0.6,0,1-0.4,1-1
						V39.3c0-0.6-0.4-1-1-1H65C64.4,38.3,64,37.8,64,37.3z"/>
				</g>
				<g>
					<path class="st3" d="M66.9,111.1H38.4c-0.8,0-1.5-0.7-1.5-1.5V38.3c0-0.8,0.7-1.5,1.5-1.5h4.7v-7.1c0-0.8,0.7-1.5,1.5-1.5h3.7
						V11.6c0-0.8,0.7-1.5,1.5-1.5h5.7c0.8,0,1.5,0.7,1.5,1.5v16.6h3.7c0.8,0,1.5,0.7,1.5,1.5v7.1h4.7c0.8,0,1.5,0.7,1.5,1.5v71.3
						C68.4,110.4,67.7,111.1,66.9,111.1z M39.9,108.1h25.5V39.8h-4.7c-0.8,0-1.5-0.7-1.5-1.5v-7.1h-3.7c-0.8,0-1.5-0.7-1.5-1.5V13.1
						h-2.7v16.6c0,0.8-0.7,1.5-1.5,1.5h-3.7v7.1c0,0.8-0.7,1.5-1.5,1.5h-4.7V108.1z"/>
				</g>
				<g>
					<rect x="44.9" y="45" class="st1" width="15.6" height="5.3"/>
					<path class="st3" d="M60.5,51.3H44.9c-0.6,0-1-0.4-1-1V45c0-0.6,0.4-1,1-1h15.6c0.6,0,1,0.4,1,1v5.3
						C61.5,50.9,61.1,51.3,60.5,51.3z M45.9,49.3h13.6V46H45.9V49.3z"/>
				</g>
				<g>
					<rect x="44.9" y="55.7" class="st1" width="15.6" height="5.3"/>
					<path class="st3" d="M60.5,62H44.9c-0.6,0-1-0.4-1-1v-5.3c0-0.6,0.4-1,1-1h15.6c0.6,0,1,0.4,1,1V61C61.5,61.6,61.1,62,60.5,62z
						 M45.9,60h13.6v-3.3H45.9V60z"/>
				</g>
				<g>
					<rect x="44.9" y="66.4" class="st1" width="15.6" height="5.3"/>
					<path class="st3" d="M60.5,72.7H44.9c-0.6,0-1-0.4-1-1v-5.3c0-0.6,0.4-1,1-1h15.6c0.6,0,1,0.4,1,1v5.3
						C61.5,72.3,61.1,72.7,60.5,72.7z M45.9,70.7h13.6v-3.3H45.9V70.7z"/>
				</g>
				<g>
					<rect x="44.9" y="77.1" class="st1" width="15.6" height="5.3"/>
					<path class="st3" d="M60.5,83.4H44.9c-0.6,0-1-0.4-1-1v-5.3c0-0.6,0.4-1,1-1h15.6c0.6,0,1,0.4,1,1v5.3
						C61.5,83,61.1,83.4,60.5,83.4z M45.9,81.4h13.6v-3.3H45.9V81.4z"/>
				</g>
				<g>
					<rect x="44.9" y="87.8" class="st1" width="15.6" height="5.3"/>
					<path class="st3" d="M60.5,94.1H44.9c-0.6,0-1-0.4-1-1v-5.3c0-0.6,0.4-1,1-1h15.6c0.6,0,1,0.4,1,1v5.3
						C61.5,93.7,61.1,94.1,60.5,94.1z M45.9,92.1h13.6v-3.3H45.9V92.1z"/>
				</g>
				<g>
					<rect x="44.9" y="98.6" class="st1" width="15.6" height="5.3"/>
					<path class="st3" d="M60.5,104.9H44.9c-0.6,0-1-0.4-1-1v-5.3c0-0.6,0.4-1,1-1h15.6c0.6,0,1,0.4,1,1v5.3
						C61.5,104.5,61.1,104.9,60.5,104.9z M45.9,102.9h13.6v-3.3H45.9V102.9z"/>
				</g>
			</g>
		</g>
		<g>
			<defs>
				<circle id="SVGID_13_" cx="52.5" cy="52.5" r="52.5"/>
			</defs>
			<clipPath id="SVGID_14_">
				<use xlink:href="#SVGID_13_"  style="overflow:visible;"/>
			</clipPath>
			<g class="st10">
				<g>
					<polygon class="st1" points="90.6,50.2 90.6,41.2 71.5,41.2 71.5,50.2 67.3,50.2 67.3,103.7 94.8,103.7 94.8,50.2 					"/>
				</g>
				<g>
					<polygon class="st2" points="94.7,50.2 94.7,41.2 75.6,41.2 75.6,50.2 71.4,50.2 71.4,103.7 98.9,103.7 98.9,50.2 					"/>
				</g>
				<g>
					<path class="st3" d="M94.8,105.2H67.3c-0.8,0-1.5-0.7-1.5-1.5V50.2c0-0.8,0.7-1.5,1.5-1.5H70v-7.5c0-0.8,0.7-1.5,1.5-1.5h19.1
						c0.8,0,1.5,0.7,1.5,1.5v7.5h2.7c0.8,0,1.5,0.7,1.5,1.5v53.5C96.3,104.5,95.6,105.2,94.8,105.2z M68.8,102.2h24.5V51.7h-2.7
						c-0.8,0-1.5-0.7-1.5-1.5v-7.5H73v7.5c0,0.8-0.7,1.5-1.5,1.5h-2.7V102.2z"/>
				</g>
				<g>
					<rect x="73.3" y="54.8" class="st1" width="15.6" height="5.3"/>
					<path class="st3" d="M88.9,61.1H73.3c-0.6,0-1-0.4-1-1v-5.3c0-0.6,0.4-1,1-1h15.6c0.6,0,1,0.4,1,1v5.3
						C89.9,60.7,89.5,61.1,88.9,61.1z M74.3,59.1h13.6v-3.3H74.3V59.1z"/>
				</g>
				<g>
					<rect x="73.3" y="65.6" class="st1" width="15.6" height="5.3"/>
					<path class="st3" d="M88.9,71.9H73.3c-0.6,0-1-0.4-1-1v-5.3c0-0.6,0.4-1,1-1h15.6c0.6,0,1,0.4,1,1v5.3
						C89.9,71.5,89.5,71.9,88.9,71.9z M74.3,69.9h13.6v-3.3H74.3V69.9z"/>
				</g>
				<g>
					<rect x="73.3" y="76.3" class="st1" width="15.6" height="5.3"/>
					<path class="st3" d="M88.9,82.6H73.3c-0.6,0-1-0.4-1-1v-5.3c0-0.6,0.4-1,1-1h15.6c0.6,0,1,0.4,1,1v5.3
						C89.9,82.2,89.5,82.6,88.9,82.6z M74.3,80.6h13.6v-3.3H74.3V80.6z"/>
				</g>
				<g>
					<rect x="73.3" y="87" class="st1" width="15.6" height="5.3"/>
					<path class="st3" d="M88.9,93.3H73.3c-0.6,0-1-0.4-1-1V87c0-0.6,0.4-1,1-1h15.6c0.6,0,1,0.4,1,1v5.3
						C89.9,92.9,89.5,93.3,88.9,93.3z M74.3,91.3h13.6V88H74.3V91.3z"/>
				</g>
			</g>
		</g>
		<g>
			<defs>
				<circle id="SVGID_15_" cx="52.5" cy="52.5" r="52.5"/>
			</defs>
			<clipPath id="SVGID_16_">
				<use xlink:href="#SVGID_15_"  style="overflow:visible;"/>
			</clipPath>
			<g class="st11">
				<g>
					<polygon class="st1" points="117.5,33.1 117.5,24.5 112.3,24.5 112.3,6.4 106.6,6.4 106.6,24.5 101.4,24.5 101.4,33.1 
						95.1,33.1 95.1,97.6 123.7,97.6 123.7,33.1 					"/>
				</g>
				<g>
					<polygon class="st2" points="120.7,33.1 120.7,24.5 115.6,24.5 115.6,6.4 109.8,6.4 109.8,24.5 104.6,24.5 104.6,33.1 
						98.4,33.1 98.4,97.6 127,97.6 127,33.1 					"/>
				</g>
				<g>
					<path class="st3" d="M123.7,99.1H95.1c-0.8,0-1.5-0.7-1.5-1.5V33.1c0-0.8,0.7-1.5,1.5-1.5h4.8v-7.1c0-0.8,0.7-1.5,1.5-1.5h3.7
						V6.4c0-0.8,0.7-1.5,1.5-1.5h5.7c0.8,0,1.5,0.7,1.5,1.5V23h3.7c0.8,0,1.5,0.7,1.5,1.5v7.1h4.7c0.8,0,1.5,0.7,1.5,1.5v64.5
						C125.2,98.4,124.5,99.1,123.7,99.1z M96.6,96.1h25.6V34.6h-4.7c-0.8,0-1.5-0.7-1.5-1.5V26h-3.7c-0.8,0-1.5-0.7-1.5-1.5V7.9
						h-2.7v16.6c0,0.8-0.7,1.5-1.5,1.5h-3.7v7.1c0,0.8-0.7,1.5-1.5,1.5h-4.8V96.1z"/>
				</g>
				<g>
					<rect x="101.7" y="39.8" class="st1" width="5.3" height="5.3"/>
					<path class="st3" d="M107,46.1h-5.3c-0.6,0-1-0.4-1-1v-5.3c0-0.6,0.4-1,1-1h5.3c0.6,0,1,0.4,1,1v5.3
						C108,45.7,107.6,46.1,107,46.1z M102.7,44.1h3.3v-3.3h-3.3V44.1z"/>
				</g>
				<g>
					<rect x="112" y="39.8" class="st1" width="5.3" height="5.3"/>
					<path class="st3" d="M117.3,46.1H112c-0.6,0-1-0.4-1-1v-5.3c0-0.6,0.4-1,1-1h5.3c0.6,0,1,0.4,1,1v5.3
						C118.3,45.7,117.9,46.1,117.3,46.1z M113,44.1h3.3v-3.3H113V44.1z"/>
				</g>
				<g>
					<rect x="101.7" y="50.5" class="st1" width="5.3" height="5.3"/>
					<path class="st3" d="M107,56.8h-5.3c-0.6,0-1-0.4-1-1v-5.3c0-0.6,0.4-1,1-1h5.3c0.6,0,1,0.4,1,1v5.3
						C108,56.4,107.6,56.8,107,56.8z M102.7,54.8h3.3v-3.3h-3.3V54.8z"/>
				</g>
				<g>
					<rect x="112" y="50.5" class="st1" width="5.3" height="5.3"/>
					<path class="st3" d="M117.3,56.8H112c-0.6,0-1-0.4-1-1v-5.3c0-0.6,0.4-1,1-1h5.3c0.6,0,1,0.4,1,1v5.3
						C118.3,56.4,117.9,56.8,117.3,56.8z M113,54.8h3.3v-3.3H113V54.8z"/>
				</g>
				<g>
					<rect x="101.7" y="61.2" class="st1" width="5.3" height="5.3"/>
					<path class="st3" d="M107,67.5h-5.3c-0.6,0-1-0.4-1-1v-5.3c0-0.6,0.4-1,1-1h5.3c0.6,0,1,0.4,1,1v5.3
						C108,67.1,107.6,67.5,107,67.5z M102.7,65.5h3.3v-3.3h-3.3V65.5z"/>
				</g>
				<g>
					<rect x="112" y="61.2" class="st1" width="5.3" height="5.3"/>
					<path class="st3" d="M117.3,67.5H112c-0.6,0-1-0.4-1-1v-5.3c0-0.6,0.4-1,1-1h5.3c0.6,0,1,0.4,1,1v5.3
						C118.3,67.1,117.9,67.5,117.3,67.5z M113,65.5h3.3v-3.3H113V65.5z"/>
				</g>
				<g>
					<rect x="101.7" y="71.9" class="st1" width="5.3" height="5.3"/>
					<path class="st3" d="M107,78.2h-5.3c-0.6,0-1-0.4-1-1v-5.3c0-0.6,0.4-1,1-1h5.3c0.6,0,1,0.4,1,1v5.3
						C108,77.8,107.6,78.2,107,78.2z M102.7,76.2h3.3v-3.3h-3.3V76.2z"/>
				</g>
				<g>
					<rect x="112" y="71.9" class="st1" width="5.3" height="5.3"/>
					<path class="st3" d="M117.3,78.2H112c-0.6,0-1-0.4-1-1v-5.3c0-0.6,0.4-1,1-1h5.3c0.6,0,1,0.4,1,1v5.3
						C118.3,77.8,117.9,78.2,117.3,78.2z M113,76.2h3.3v-3.3H113V76.2z"/>
				</g>
				<g>
					<rect x="101.7" y="82.6" class="st1" width="5.3" height="5.3"/>
					<path class="st3" d="M107,88.9h-5.3c-0.6,0-1-0.4-1-1v-5.3c0-0.6,0.4-1,1-1h5.3c0.6,0,1,0.4,1,1v5.3
						C108,88.5,107.6,88.9,107,88.9z M102.7,86.9h3.3v-3.3h-3.3V86.9z"/>
				</g>
				<g>
					<rect x="112" y="82.6" class="st1" width="5.3" height="5.3"/>
					<path class="st3" d="M117.3,88.9H112c-0.6,0-1-0.4-1-1v-5.3c0-0.6,0.4-1,1-1h5.3c0.6,0,1,0.4,1,1v5.3
						C118.3,88.5,117.9,88.9,117.3,88.9z M113,86.9h3.3v-3.3H113V86.9z"/>
				</g>
			</g>
		</g>
	</g>
	<g>
		<g>
			<path class="st3" d="M52.5,3C79.8,3,102,25.2,102,52.5S79.8,102,52.5,102S3,79.9,3,52.5S25.2,3,52.5,3 M52.5,0
				C23.5,0,0,23.5,0,52.5S23.5,105,52.5,105S105,81.5,105,52.5S81.6,0,52.5,0L52.5,0z"/>
		</g>
	</g>
</g>
</svg>
