<?xml version="1.0" encoding="utf-8"?>
<!-- Generator: Adobe Illustrator 21.0.0, SVG Export Plug-In . SVG Version: 6.00 Build 0)  -->
<svg version="1.1" id="Layer_1" xmlns="http://www.w3.org/2000/svg" xmlns:xlink="http://www.w3.org/1999/xlink" x="0px" y="0px"
	 viewBox="0 0 105 105" style="enable-background:new 0 0 105 105;" xml:space="preserve">
<style type="text/css">
	.st0{fill:#FFFFFF;}
	.st1{fill:#609F00;}
	.st2{fill:none;stroke:#182900;stroke-width:3;stroke-linecap:round;stroke-linejoin:round;}
	.st3{fill:none;stroke:#B5B5B5;stroke-width:2;stroke-linecap:round;}
	.st4{fill:#182900;}
</style>
<path id="Shape_3_" class="st0" d="M82.5,35.3c-2.4-5.3-6.1-9.1-11.3-11.7c0,0,6,7.1,7.9,12.9c2.1,6.4,1.5,11.9-0.6,16.9
	c-0.7,1.7-1.6,3.3-2.7,4.8c2-5.9,1.7-11,0.5-16c-1.7-7.3-6.6-13.8-13.8-17.8C55.6,20.5,47.3,19.6,40,22c-6.7,2.1-12.2,6.6-15.5,11.4
	s-4.7,9.9-4.2,15.7c0,0,3-8.8,7-13.4c4.4-5.1,9.4-7.4,14.8-8.1c1.8-0.2,3.6-0.3,5.4-0.2c-5.5,1.1-9.6,3.8-13.2,6.9
	c-5.6,5-9,12.3-9.1,20.6c-0.1,7.9,3,15.6,8.5,21c5,4.9,11.6,7.6,17.4,8.3c5.8,0.7,10.9-0.5,15.8-3.7c0,0-9.2,1.5-15.1,0.1
	c-6.6-1.5-11-4.8-14.2-9.2c-1.1-1.5-2-3.1-2.8-4.8c4,4.8,8.6,7.1,13.4,8.6c7.2,2.3,15.2,1.4,22.4-2.8c6.9-4,11.9-10.6,13.6-18.1
	C86,47.7,85,40.7,82.5,35.3z M53,60.8c-5.5,0-9.9-4.4-9.9-9.9S47.5,41,53,41s9.9,4.4,9.9,9.9S58.4,60.8,53,60.8z"/>
<title>Funding_Programs_Icon_Disaster_color</title>
<desc>Created with Sketch.</desc>
<g id="Mask">
</g>
<path id="Shape_1_" class="st1" d="M87.5,35.3c-2-4.5-4.1-7.6-8.1-10.1c-0.5-0.3-3-1.7-8.3-1.7c-0.4,0-4.9-0.8-6.4-1
	c-4.7-0.6-8.1-1.3-10-1.3c-5.7,0.1-4.1-0.4-9.2,1.3c-6.7,2.1-12.7,6.1-16,10.9c-2.8,4-4.2,8.3-4.3,13c0,0.6,0.8,0.8,1,0.2
	c1.2-2.9,3.4-7.9,6.1-10.9c4.4-5.1,9.4-7.4,14.8-8.1c1.8-0.2-4.2,3.6-7.8,6.7c-5.6,5-9,12.3-9.1,20.6c-0.1,7.9,3,15.6,8.5,21
	c5,4.9,11.6,7.6,17.4,8.3c4.9,0.6,9.3-1.2,13.3-5.3c0.8-0.8-0.1-1.8-0.7-1.7c-3.2,0.3-5.5,1.2-10.4,1.2c-6.8,0-12.5-2.6-15.7-7
	c-1.1-1.5,5.6,3.6,10.4,5.1c7.2,2.3,15.4,0.1,22.6-4.1c6.9-4,11.9-10.6,13.6-18.1C91,47.7,90,40.7,87.5,35.3z M54,60.8
	c-5.5,0-9.9-4.4-9.9-9.9S48.5,41,54,41s9.9,4.4,9.9,9.9S59.4,60.8,54,60.8z"/>
<path id="Shape" class="st2" d="M82.5,35.3c-2.4-5.3-6.1-9.1-11.3-11.7c0,0,6,7.1,7.9,12.9c2.1,6.4,1.5,11.9-0.6,16.9
	c-0.7,1.7-1.6,3.3-2.7,4.8c2-5.9,1.7-11,0.5-16c-1.7-7.3-6.6-13.8-13.8-17.8C55.6,20.5,47.3,19.6,40,22c-6.7,2.1-12.2,6.6-15.5,11.4
	s-4.7,9.9-4.2,15.7c0,0,3-8.8,7-13.4c4.4-5.1,9.4-7.4,14.8-8.1c1.8-0.2,3.6-0.3,5.4-0.2c-5.5,1.1-9.6,3.8-13.2,6.9
	c-5.6,5-9,12.3-9.1,20.6c-0.1,7.9,3,15.6,8.5,21c5,4.9,11.6,7.6,17.4,8.3c5.8,0.7,10.9-0.5,15.8-3.7c0,0-9.2,1.5-15.1,0.1
	c-6.6-1.5-11-4.8-14.2-9.2c-1.1-1.5-2-3.1-2.8-4.8c4,4.8,8.6,7.1,13.4,8.6c7.2,2.3,15.2,1.4,22.4-2.8c6.9-4,11.9-10.6,13.6-18.1
	C86,47.7,85,40.7,82.5,35.3z M53,60.8c-5.5,0-9.9-4.4-9.9-9.9S47.5,41,53,41s9.9,4.4,9.9,9.9S58.4,60.8,53,60.8z"/>
<g id="Group-9" transform="translate(64.697873, 68.669835) rotate(-43.000000) translate(-64.697873, -68.669835) translate(19.197873, 22.669835)">
	
		<g id="Group-8" transform="translate(16.535162, 41.034675) scale(1, -1) rotate(-26.000000) translate(-16.535162, -41.034675) translate(7.035162, 24.034675)">
		<path id="Path-6" class="st3" d="M3.8,18.5c0,0-1.7,1.5-3.6,4.3 M-1.6,25.8c-2.8,5.3-5,13.3-2.4,23.9"/>
		<path id="Path-4" class="st3" d="M-6.2,23.8c0,0-4,6.2-4.4,15.6 M-10.6,43.8c0.2,2.6,0.7,5.3,1.6,8.1"/>
	</g>
	
		<g id="Group-8_1_" transform="translate(74.439021, 20.910643) scale(-1, 1) rotate(27.000000) translate(-74.439021, -20.910643) translate(65.439021, 2.910643)">
		<path id="Path-6_1_" class="st3" d="M10.1-19.8c0,0-1.8,1.2-4.1,3.8 M3.8-13.2C0.5-8.3-2.8-0.6-1.5,10.2"/>
		<path id="Path-4_1_" class="st3" d="M-2.7-12.1c0,0-4,6.2-4.4,15.6 M-7.1,7.9c0.2,2.6,0.7,5.3,1.6,8.1"/>
	</g>
	
		<g id="Group-8_2_" transform="translate(60.534669, 80.685581) scale(-1, 1) rotate(-96.000000) translate(-60.534669, -80.685581) translate(51.534669, 62.685581)">
		<path id="Path-6_2_" class="st3" d="M38.6,4.4c0,0-1.8,1.2-4.1,3.8 M34.6,8.1L32.3,11c-1.5,2.2-2.8,5-3.6,8.3 M28,22.8
			c-0.5,3.5-0.6,7.5-0.1,12"/>
		<path id="Path-4_2_" class="st3" d="M25.8,12.1c0,0-4,6.2-4.4,15.6l0.1,4.3 M22,35.9c0.3,1.4,0.6,2.8,1.1,4.3"/>
	</g>
</g>
<path id="Shape_2_" class="st4" d="M52.5,3C79.8,3,102,25.2,102,52.5S79.8,102,52.5,102S3,79.8,3,52.5S25.2,3,52.5,3L52.5,3z
	 M52.5,0C23.5,0,0,23.5,0,52.5S23.5,105,52.5,105S105,81.5,105,52.5S81.5,0,52.5,0L52.5,0z"/>
</svg>
