<?xml version="1.0" encoding="UTF-8"?>
<svg width="73px" height="73px" viewBox="0 0 73 73" version="1.1" xmlns="http://www.w3.org/2000/svg" xmlns:xlink="http://www.w3.org/1999/xlink">
    <!-- Generator: Sketch 49 (51002) - http://www.bohemiancoding.com/sketch -->
    <title>atoms/logo/icon</title>
    <desc>Created with Sketch.</desc>
    <defs></defs>
    <g id="atoms/logo/icon" stroke="none" stroke-width="1" fill="none" fill-rule="evenodd">
        <g id="Group-5" transform="translate(0.000000, 9.000000)">
            <polyline id="Fill-1" fill="#B8252B" points="60.107871 51.9306667 12.1929462 51.9306667 12.1929462 45.1058925 8.12301075 45.1058925 8.12301075 56 60.107871 56 60.107871 51.9306667"></polyline>
            <polyline id="Fill-2" fill="#002E6D" points="8.19346237 10.8947097 12.2633978 10.8947097 12.2633978 4.06993548 60.1548387 4.06993548 60.1548387 10.8947097 64.2247742 10.8947097 64.2247742 0.000602150538 8.19346237 0.000602150538 8.19346237 10.8947097"></polyline>
            <path d="M4.91475269,33.0225376 C4.94907527,34.4393978 5.63191398,37.1340215 10.1022796,37.1340215 C12.5253333,37.1340215 15.2217634,36.5312688 15.2217634,33.836043 C15.2217634,31.8507527 13.3791828,31.3202581 10.7857204,30.6819785 L8.15793548,30.0424946 C4.1975914,29.0856774 0.375741935,28.1649892 0.375741935,22.5631828 C0.375741935,19.7276559 1.8431828,14.7310108 9.7951828,14.7310108 C17.3033978,14.7310108 19.3169892,19.8336344 19.351914,22.9533763 L14.4371613,22.9533763 C14.299871,21.8195269 13.8910108,19.1255054 9.41944086,19.1255054 C7.47389247,19.1255054 5.1544086,19.8703656 5.1544086,22.1735914 C5.1544086,24.1588817 6.7236129,24.5852043 7.74726882,24.832086 L13.72,26.3579355 C17.0649462,27.208172 20.1365161,28.6250323 20.1365161,33.1971613 C20.1365161,40.8553118 12.6270968,41.5285161 10.4780215,41.5285161 C1.53668817,41.5285161 0,36.1766022 0,33.0225376 L4.91475269,33.0225376" id="Fill-4" fill="#002E6D"></path>
            <polyline id="Fill-8" fill="#002E6D" points="64.1537204 51.9065806 60.107871 56 60.107871 40.9263656 64.1537204 40.9263656 64.1537204 51.9065806"></polyline>
            <polyline id="Fill-1" fill="#B8252B" points="60.107871 51.9306667 12.1929462 51.9306667 12.1929462 45.1058925 8.12301075 45.1058925 8.12301075 56 60.107871 56 60.107871 51.9306667"></polyline>
            <g fill="#002E6D">
                <polyline id="Fill-2" points="8.19346237 10.8947097 12.2633978 10.8947097 12.2633978 4.06993548 60.1548387 4.06993548 60.1548387 10.8947097 64.2247742 10.8947097 64.2247742 0.000602150538 8.19346237 0.000602150538 8.19346237 10.8947097"></polyline>
                <path d="M4.91475269,33.0225376 C4.94907527,34.4393978 5.63191398,37.1340215 10.1022796,37.1340215 C12.5253333,37.1340215 15.2217634,36.5312688 15.2217634,33.836043 C15.2217634,31.8507527 13.3791828,31.3202581 10.7857204,30.6819785 L8.15793548,30.0424946 C4.1975914,29.0856774 0.375741935,28.1649892 0.375741935,22.5631828 C0.375741935,19.7276559 1.8431828,14.7310108 9.7951828,14.7310108 C17.3033978,14.7310108 19.3169892,19.8336344 19.351914,22.9533763 L14.4371613,22.9533763 C14.299871,21.8195269 13.8910108,19.1255054 9.41944086,19.1255054 C7.47389247,19.1255054 5.1544086,19.8703656 5.1544086,22.1735914 C5.1544086,24.1588817 6.7236129,24.5852043 7.74726882,24.832086 L13.72,26.3579355 C17.0649462,27.208172 20.1365161,28.6250323 20.1365161,33.1971613 C20.1365161,40.8553118 12.6270968,41.5285161 10.4780215,41.5285161 C1.53668817,41.5285161 0,36.1766022 0,33.0225376 L4.91475269,33.0225376" id="Fill-4"></path>
            </g>
            <path d="M31.715871,36.4602151 L38.2383656,36.4602151 C40.8264086,36.4602151 42.3155269,35.3257634 42.3155269,32.7371183 C42.3155269,30.5055484 40.400086,29.6523011 38.4858495,29.6523011 L31.715871,29.6523011 L31.715871,36.4602151 Z M31.715871,25.3643871 L37.9553548,25.3643871 C40.0460215,25.3643871 41.7133763,24.5496774 41.7133763,22.5282581 C41.7133763,20.4357849 40.2236559,19.7981075 37.8126452,19.7981075 L31.715871,19.7981075 L31.715871,25.3643871 Z M26.612043,15.4036129 L38.9820215,15.4036129 C45.2215054,15.4036129 46.816,19.3031398 46.816,21.9267097 C46.816,25.5763441 44.7608602,26.6060215 43.6968602,27.1365161 C46.816,28.3070968 47.6325161,30.7873548 47.6325161,33.3055484 C47.6325161,35.3257634 46.7810753,37.24 45.4346667,38.5514839 C43.9810753,39.9683441 42.5979355,40.8553118 37.388129,40.8553118 L26.612043,40.8553118 L26.612043,15.4036129 Z" id="Fill-6" fill="#002E6D"></path>
            <polyline id="Fill-7" fill="#002E6D" points="64.1844301 15.3951828 60.1464086 15.3951828 52.0625376 40.8631398 57.1663656 40.8631398 62.1196559 24.1432258 67.1542366 40.8631398 72.2580645 40.8631398 64.1844301 15.3951828"></polyline>
            <polyline id="Fill-8" fill="#002E6D" points="64.1537204 51.9065806 60.107871 56 60.107871 40.9263656 64.1537204 40.9263656 64.1537204 51.9065806"></polyline>
        </g>
    </g>
</svg>