<?xml version="1.0" encoding="utf-8"?>
<!-- Generator: Adobe Illustrator 21.0.0, SVG Export Plug-In . SVG Version: 6.00 Build 0)  -->
<svg version="1.1" id="Layer_1" xmlns="http://www.w3.org/2000/svg" xmlns:xlink="http://www.w3.org/1999/xlink" x="0px" y="0px"
	 viewBox="0 0 105 105" style="enable-background:new 0 0 105 105;" xml:space="preserve">
<style type="text/css">
	.st0{fill:#FFFFFF;}
	.st1{fill:#2E112C;}
	.st2{fill:#AB3EA0;}
	.st3{fill:#B5B5B5;}
</style>
<g>
	<path class="st0" d="M24.2,36.9v42H66c1,0,1.8-0.8,1.8-1.8V24.5c0-1-0.8-1.8-1.8-1.8H44.4L24.2,36.9z"/>
</g>
<g>
	<g>
		<g>
			<path class="st1" d="M52.5,3C79.8,3,102,25.2,102,52.5S79.8,102,52.5,102S3,79.8,3,52.5S25.2,3,52.5,3 M52.5,0
				C23.5,0,0,23.5,0,52.5S23.5,105,52.5,105S105,81.5,105,52.5S81.5,0,52.5,0L52.5,0z"/>
		</g>
	</g>
</g>
<g>
	<path class="st2" d="M30.2,36.9v42H72c1,0,1.8-0.8,1.8-1.8V24.5c0-1-0.8-1.8-1.8-1.8H50.4L30.2,36.9z"/>
</g>
<g>
	<path class="st1" d="M67.9,80.4H24.3c-0.8,0-1.5-0.7-1.5-1.5v-42c0-0.5,0.2-0.9,0.6-1.2l20.2-14.2c0.3-0.2,0.6-0.3,0.9-0.3h23.4
		c0.8,0,1.5,0.7,1.5,1.5v56.2C69.4,79.7,68.7,80.4,67.9,80.4z M25.8,77.4h40.6V24.2H45L25.8,37.7V77.4z"/>
</g>
<g>
	<path class="st1" d="M44.5,38.5H24.3c-0.8,0-1.5-0.7-1.5-1.5s0.7-1.5,1.5-1.5H43V23c0-0.8,0.7-1.5,1.5-1.5S46,22.2,46,23v14
		C46,37.8,45.3,38.5,44.5,38.5z"/>
</g>
<g>
	<rect x="30.1" y="68.2" class="st0" width="20.5" height="2.5"/>
</g>
<g>
	<rect x="30.1" y="61.7" class="st0" width="33.1" height="2.5"/>
</g>
<g>
	<rect x="30.1" y="55.2" class="st0" width="33.1" height="2.5"/>
</g>
<g>
	<rect x="30.1" y="48.7" class="st0" width="33.1" height="2.5"/>
</g>
<g>
	<rect x="30.1" y="42.2" class="st0" width="33.1" height="2.5"/>
</g>
<g>
	<g>
		<path class="st0" d="M84.9,41.8l-4.5,4.8l-9.8-9.1l4.5-4.8C80,34.5,82.8,37.1,84.9,41.8L84.9,41.8z M50.4,69.2l12.7-4l17.3-18.7
			l-9.8-9.1L53.4,56.2L50.4,69.2z"/>
	</g>
</g>
<g>
	<path class="st2" d="M89.4,40.9c-1.9-3.8-4.4-6.1-8.3-7.7c-0.6-0.2-1.2-0.1-1.7,0.4l-3.8,4L58.6,56c-0.2,0.2-0.3,0.4-0.4,0.7
		l-2.2,10c-0.3,1.1,0.8,2.1,1.9,1.8l9.8-3.1c0.3-0.1,0.5-0.2,0.7-0.4l17-18.4l0,0l0,0l3.8-4C89.6,42.2,89.7,41.5,89.4,40.9z"/>
</g>
<g>
	<g>
		<path class="st1" d="M50.4,70.7c-0.4,0-0.7-0.1-1-0.4c-0.4-0.4-0.6-0.9-0.4-1.4l3-13c0.1-0.3,0.2-0.5,0.4-0.7l17.2-18.8
			c0.1-0.1,0.2-0.2,0.4-0.3l4.1-4.4c0.4-0.4,1-0.6,1.6-0.4c5.3,1.9,8.4,4.8,10.7,9.9c0.2,0.6,0.1,1.2-0.3,1.6l-4.5,4.8
			c-0.1,0.1-0.2,0.2-0.3,0.3L64.2,66.2c-0.2,0.2-0.4,0.3-0.7,0.4l-12.7,4C50.7,70.7,50.6,70.7,50.4,70.7z M54.8,56.9L52.5,67
			l9.8-3.1l16-17.3l-7.6-7.1L54.8,56.9z M72.8,37.4l7.6,7.1l2.7-2.9c-1.7-3.5-4-5.5-7.6-7.1L72.8,37.4z"/>
	</g>
</g>
<g>
	<path class="st3" d="M91.9,45.4c-0.2,0-0.5-0.1-0.7-0.2c-0.4-0.4-0.5-1-0.1-1.4c0,0,1.1-1.3,0.9-2.8c-0.1-1-0.8-2-2-2.9
		c-0.4-0.3-0.5-1-0.2-1.4c0.3-0.4,1-0.5,1.4-0.2c1.6,1.2,2.6,2.7,2.7,4.3c0.3,2.4-1.3,4.3-1.4,4.3C92.5,45.3,92.2,45.4,91.9,45.4z"
		/>
</g>
<g>
	<path class="st1" d="M63.2,66.7c-0.4,0-0.7-0.1-1-0.4l-9.8-9c-0.6-0.6-0.7-1.5-0.1-2.1c0.6-0.6,1.5-0.6,2.1-0.1l9.8,9
		c0.6,0.6,0.7,1.5,0.1,2.1C64,66.5,63.6,66.7,63.2,66.7z"/>
</g>
</svg>
