<?xml version="1.0" encoding="utf-8"?>
<!-- Generator: Adobe Illustrator 21.0.0, SVG Export Plug-In . SVG Version: 6.00 Build 0)  -->
<svg version="1.1" id="Layer_1" xmlns="http://www.w3.org/2000/svg" xmlns:xlink="http://www.w3.org/1999/xlink" x="0px" y="0px"
	 viewBox="0 0 105 105" style="enable-background:new 0 0 105 105;" xml:space="preserve">
<style type="text/css">
	.st0{fill:none;}
	.st1{fill:#2E112C;}
	.st2{fill:#FFFFFF;}
	.st3{fill:#AB3EA0;}
	.st4{fill:none;stroke:#2E112C;stroke-width:3;stroke-linecap:round;stroke-linejoin:round;stroke-miterlimit:10;}
	.st5{fill:none;stroke:#B5B5B5;stroke-width:2;stroke-linecap:round;stroke-linejoin:round;stroke-miterlimit:10;}
</style>
<circle class="st0" cx="52.5" cy="52.5" r="52.5"/>
<g>
	<g>
		<path class="st1" d="M52.5,3C79.8,3,102,25.2,102,52.5S79.8,102,52.5,102S3,79.8,3,52.5S25.2,3,52.5,3 M52.5,0
			C23.5,0,0,23.5,0,52.5S23.5,105,52.5,105S105,81.5,105,52.5S81.5,0,52.5,0L52.5,0z"/>
	</g>
</g>
<path class="st2" d="M55.2,75c0,0,1.6-0.8,2.6-3.1c1-2.3,0.4-4,0.4-4L54,65.3c0.1-1.3,0.1-2.5,0-3.7l4.1-2.6c0,0,0.6-1.7-0.4-4
	s-2.6-3.1-2.6-3.1L50.4,53c-0.8-1-1.7-1.8-2.6-2.6l1.1-4.8c0,0-0.8-1.6-3.1-2.6s-4-0.4-4-0.4l-2.6,4.2c-1.3-0.1-2.5-0.1-3.7,0
	l-2.6-4.1c0,0-1.7-0.6-4,0.4s-3.1,2.6-3.1,2.6l1.1,4.8c-1,0.8-1.8,1.7-2.6,2.6L19.5,52c0,0-1.6,0.8-2.6,3.1s-0.4,4-0.4,4l4.2,2.6
	c-0.1,1.3-0.1,2.5,0,3.7L16.6,68c0,0-0.6,1.7,0.4,4s2.6,3.1,2.6,3.1l4.8-1.1c0.8,1,1.7,1.8,2.6,2.6l-1.1,4.8c0,0,0.8,1.6,3.1,2.6
	s4,0.4,4,0.4l2.6-4.2c1.3,0.1,2.5,0.1,3.7,0l2.6,4.1c0,0,1.7,0.6,4-0.4s3.1-2.6,3.1-2.6l-1.1-4.8c1-0.8,1.8-1.7,2.6-2.6L55.2,75z
	 M33.1,73.7c-5.7-2.3-8.3-8.8-6-14.5s8.8-8.3,14.5-6s8.3,8.8,6,14.5C45.3,73.3,38.8,76,33.1,73.7z"/>
<path class="st2" d="M84.1,40.7l4.4-2c0,0,0.8-1.6,0.2-4c-0.6-2.4-2.2-3.4-2.2-3.4l-4.8,0.5c-0.9-1.2-2-2.3-3.2-3.2l0.5-4.8
	c0,0-1-1.5-3.4-2.1s-4,0.2-4,0.2l-2,4.4c-1.5,0.1-3,0.5-4.3,1.1l-3.9-2.8c0,0-1.8,0.1-3.6,1.9s-1.9,3.6-1.9,3.6l2.8,4
	c-0.3,0.7-0.6,1.4-0.8,2.2c-0.2,0.7-0.3,1.5-0.4,2.2l-4.4,2c0,0-0.8,1.6-0.2,4s2.1,3.4,2.1,3.4l4.8-0.5c0.9,1.2,1.9,2.3,3.2,3.2
	l-0.5,4.8c0,0,1,1.5,3.4,2.2c2.4,0.6,4-0.2,4-0.2l2-4.4c1.5-0.1,3-0.5,4.4-1.2l3.9,2.8c0,0,1.8-0.1,3.6-1.9c1.8-1.8,1.9-3.6,1.9-3.6
	l-2.8-4c0.3-0.7,0.6-1.4,0.8-2.1C83.9,42.2,84.1,41.4,84.1,40.7z M78.6,41.6c-1.1,4.3-5.5,6.8-9.8,5.7s-6.8-5.5-5.7-9.8
	c1.1-4.3,5.5-6.8,9.8-5.7C77.2,32.9,79.7,37.3,78.6,41.6z"/>
<path class="st3" d="M59.2,75c0,0,1.6-0.8,2.6-3.1c1-2.3,0.4-4,0.4-4L58,65.3c0.1-1.3,0.1-2.5,0-3.7l4.1-2.6c0,0,0.6-1.7-0.4-4
	s-2.6-3.1-2.6-3.1L54.4,53c-0.8-1-1.7-1.8-2.6-2.6l1.1-4.8c0,0-0.8-1.6-3.1-2.6s-4-0.4-4-0.4l-2.6,4.2c-1.3-0.1-2.5-0.1-3.7,0
	l-2.6-4.1c0,0-1.7-0.6-4,0.4s-3.1,2.6-3.1,2.6l1.1,4.8c-1,0.8-1.8,1.7-2.6,2.6L23.5,52c0,0-1.6,0.8-2.6,3.1s-0.4,4-0.4,4l4.2,2.6
	c-0.1,1.3-0.1,2.5,0,3.7L20.6,68c0,0-0.6,1.7,0.4,4s2.6,3.1,2.6,3.1l4.8-1.1c0.8,1,1.7,1.8,2.6,2.6l-1.1,4.8c0,0,0.8,1.6,3.1,2.6
	s4,0.4,4,0.4l2.6-4.2c1.3,0.1,2.5,0.1,3.7,0l2.6,4.1c0,0,1.7,0.6,4-0.4s3.1-2.6,3.1-2.6l-1.1-4.8c1-0.8,1.8-1.7,2.6-2.6L59.2,75z
	 M37.1,73.7c-5.7-2.3-8.3-8.8-6-14.5s8.8-8.3,14.5-6s8.3,8.8,6,14.5C49.3,73.3,42.8,76,37.1,73.7z"/>
<path class="st3" d="M88.1,40.7l4.4-2c0,0,0.8-1.6,0.2-4c-0.6-2.4-2.2-3.4-2.2-3.4l-4.8,0.5c-0.9-1.2-2-2.3-3.2-3.2l0.5-4.8
	c0,0-1-1.5-3.4-2.1s-4,0.2-4,0.2l-2,4.4c-1.5,0.1-3,0.5-4.3,1.1l-3.9-2.8c0,0-1.8,0.1-3.6,1.9s-1.9,3.6-1.9,3.6l2.8,4
	c-0.3,0.7-0.6,1.4-0.8,2.2c-0.2,0.7-0.3,1.5-0.4,2.2l-4.4,2c0,0-0.8,1.6-0.2,4s2.1,3.4,2.1,3.4l4.8-0.5c0.9,1.2,1.9,2.3,3.2,3.2
	l-0.5,4.8c0,0,1,1.5,3.4,2.2c2.4,0.6,4-0.2,4-0.2l2-4.4c1.5-0.1,3-0.5,4.4-1.2l3.9,2.8c0,0,1.8-0.1,3.6-1.9c1.8-1.8,1.9-3.6,1.9-3.6
	l-2.8-4c0.3-0.7,0.6-1.4,0.8-2.1C87.9,42.2,88.1,41.4,88.1,40.7z M82.6,41.6c-1.1,4.3-5.5,6.8-9.8,5.7s-6.8-5.5-5.7-9.8
	c1.1-4.3,5.5-6.8,9.8-5.7C81.2,32.9,83.7,37.3,82.6,41.6z"/>
<path class="st4" d="M55.2,75c0,0,1.6-0.8,2.6-3.1c1-2.3,0.4-4,0.4-4L54,65.3c0.1-1.3,0.1-2.5,0-3.7l4.1-2.6c0,0,0.6-1.7-0.4-4
	s-2.6-3.1-2.6-3.1L50.4,53c-0.8-1-1.7-1.8-2.6-2.6l1.1-4.8c0,0-0.8-1.6-3.1-2.6s-4-0.4-4-0.4l-2.6,4.2c-1.3-0.1-2.5-0.1-3.7,0
	l-2.6-4.1c0,0-1.7-0.6-4,0.4s-3.1,2.6-3.1,2.6l1.1,4.8c-1,0.8-1.8,1.7-2.6,2.6L19.5,52c0,0-1.6,0.8-2.6,3.1s-0.4,4-0.4,4l4.2,2.6
	c-0.1,1.3-0.1,2.5,0,3.7L16.6,68c0,0-0.6,1.7,0.4,4s2.6,3.1,2.6,3.1l4.8-1.1c0.8,1,1.7,1.8,2.6,2.6l-1.1,4.8c0,0,0.8,1.6,3.1,2.6
	s4,0.4,4,0.4l2.6-4.2c1.3,0.1,2.5,0.1,3.7,0l2.6,4.1c0,0,1.7,0.6,4-0.4s3.1-2.6,3.1-2.6l-1.1-4.8c1-0.8,1.8-1.7,2.6-2.6L55.2,75z
	 M33.1,73.7c-5.7-2.3-8.3-8.8-6-14.5s8.8-8.3,14.5-6s8.3,8.8,6,14.5C45.3,73.3,38.8,76,33.1,73.7z"/>
<path class="st4" d="M84.1,40.7l4.4-2c0,0,0.8-1.6,0.2-4c-0.6-2.4-2.2-3.4-2.2-3.4l-4.8,0.5c-0.9-1.2-2-2.3-3.2-3.2l0.5-4.8
	c0,0-1-1.5-3.4-2.1s-4,0.2-4,0.2l-2,4.4c-1.5,0.1-3,0.5-4.3,1.1l-3.9-2.8c0,0-1.8,0.1-3.6,1.9s-1.9,3.6-1.9,3.6l2.8,4
	c-0.3,0.7-0.6,1.4-0.8,2.2c-0.2,0.7-0.3,1.5-0.4,2.2l-4.4,2c0,0-0.8,1.6-0.2,4s2.1,3.4,2.1,3.4l4.8-0.5c0.9,1.2,1.9,2.3,3.2,3.2
	l-0.5,4.8c0,0,1,1.5,3.4,2.2c2.4,0.6,4-0.2,4-0.2l2-4.4c1.5-0.1,3-0.5,4.4-1.2l3.9,2.8c0,0,1.8-0.1,3.6-1.9c1.8-1.8,1.9-3.6,1.9-3.6
	l-2.8-4c0.3-0.7,0.6-1.4,0.8-2.1C83.9,42.2,84.1,41.4,84.1,40.7z M78.6,41.6c-1.1,4.3-5.5,6.8-9.8,5.7s-6.8-5.5-5.7-9.8
	c1.1-4.3,5.5-6.8,9.8-5.7C77.2,32.9,79.7,37.3,78.6,41.6z"/>
<path class="st5" d="M51.2,29.8c0,0-0.4-4.3,3.8-6.8"/>
<path class="st5" d="M34.9,88.5c0,0,5,2.5,9.2,0.6"/>
<path class="st5" d="M11.4,56c0,0-2.4,4.6,0.4,8.4"/>
<path class="st5" d="M63.8,74.9c0,0,2.7-3.2,1.1-8"/>
<path class="st5" d="M77.6,59.5c0,0,5,0.5,7.8-2.7"/>
<path class="st5" d="M83.9,20.9c0,0,4,1.1,5.4,5.5"/>
<path class="st5" d="M28,38.6c0,0,4.4-3.2,9.1-1.1"/>
</svg>
