<?xml version="1.0" encoding="utf-8"?>
<!-- Generator: Adobe Illustrator 21.0.0, SVG Export Plug-In . SVG Version: 6.00 Build 0)  -->
<svg version="1.1" id="Layer_1" xmlns="http://www.w3.org/2000/svg" xmlns:xlink="http://www.w3.org/1999/xlink" x="0px" y="0px"
	 viewBox="0 0 105 105" style="enable-background:new 0 0 105 105;" xml:space="preserve">
<style type="text/css">
	.st0{fill:#FFFFFF;}
	.st1{fill:none;}
	.st2{enable-background:new    ;}
</style>
<g>
	<path class="st0" d="M30.5,44.1c-0.4,0-0.8-0.2-1.1-0.5c-0.5-0.6-0.5-1.6,0.2-2.1l17.9-15.3c0.6-0.5,1.6-0.5,2.1,0.2
		c0.5,0.6,0.5,1.6-0.2,2.1L31.5,43.7C31.2,44,30.8,44.1,30.5,44.1z"/>
</g>
<g>
	<path class="st0" d="M71.5,48.1c-0.5,0-0.9-0.2-1.2-0.6L56.1,29c-0.5-0.7-0.4-1.6,0.3-2.1c0.7-0.5,1.6-0.4,2.1,0.3l14.2,18.5
		c0.5,0.7,0.4,1.6-0.3,2.1C72.1,48,71.8,48.1,71.5,48.1z"/>
</g>
<g>
	<path class="st0" d="M80.9,84c-0.1,0-0.1,0-0.2,0l-65.8-6.9c-0.4,0-0.8-0.2-1-0.5c-0.2-0.3-0.4-0.7-0.3-1.1l3.6-34.1
		c0.1-0.8,0.8-1.4,1.6-1.3l65.8,6.9c0.8,0.1,1.4,0.8,1.3,1.6l-3.6,34.1c0,0.4-0.2,0.8-0.5,1C81.5,83.9,81.2,84,80.9,84z M16.7,74.2
		l62.9,6.6l3.3-31.1L20,43.1L16.7,74.2z"/>
</g>
<g>
	
		<rect x="41.3" y="30.1" transform="matrix(0.1047 -0.9945 0.9945 0.1047 -18.9274 105.4545)" class="st1" width="15.7" height="66.2"/>
</g>
<g class="st2">
	<g>
		<path class="st0" d="M27.1,59.7c0.4-3.9,2.8-5.8,6.1-5.5c3.2,0.3,5.2,2.8,4.8,6.6c-0.4,3.9-2.8,5.9-6.1,5.6
			C28.7,66.1,26.7,63.6,27.1,59.7z M34.9,60.5c0.2-2.1-0.5-3.4-1.9-3.6c-1.4-0.1-2.4,1-2.6,3.1s0.5,3.6,1.9,3.7
			C33.6,63.9,34.6,62.7,34.9,60.5z"/>
	</g>
	<g>
		<path class="st0" d="M40.8,55.3l4.5,0.5c2.5,0.3,4.6,1.4,4.3,4.4c-0.3,2.9-2.7,3.9-5.1,3.6L43,63.6l-0.4,3.7L39.5,67L40.8,55.3z
			 M44.6,61.3c1.2,0.1,1.9-0.4,2-1.5c0.1-1-0.5-1.5-1.7-1.6l-1.3-0.1l-0.3,3.1L44.6,61.3z"/>
	</g>
	<g>
		<path class="st0" d="M51.9,56.5l7.6,0.8l-0.3,2.6l-4.5-0.5l-0.2,1.8l3.8,0.4L58,64.2l-3.8-0.4L54,65.9l4.7,0.5L58.4,69l-7.8-0.8
			L51.9,56.5z"/>
	</g>
	<g>
		<path class="st0" d="M61.9,57.5l3.2,0.3l2,5.5l0.8,2.8H68c0-1.3-0.1-3.1,0.1-4.5l0.4-3.4l3,0.3l-1.2,11.7l-3.2-0.3l-2-5.5
			l-0.8-2.7h-0.1c0,1.4,0.1,3.1-0.1,4.5l-0.4,3.4l-3-0.3L61.9,57.5z"/>
	</g>
</g>
<g>
	<circle class="st1" cx="52.5" cy="52.5" r="52.5"/>
</g>
<g>
	<g>
		<g>
			<path class="st0" d="M52.5,3C79.8,3,102,25.2,102,52.5S79.8,102,52.5,102S3,79.8,3,52.5S25.2,3,52.5,3 M52.5,0
				C23.5,0,0,23.5,0,52.5S23.5,105,52.5,105S105,81.5,105,52.5S81.5,0,52.5,0L52.5,0z"/>
		</g>
	</g>
</g>
<g>
	<path class="st0" d="M53.4,30.9c-4.3,0-7.8-3.5-7.8-7.8c0-4.3,3.5-7.8,7.8-7.8c4.3,0,7.8,3.5,7.8,7.8
		C61.2,27.4,57.7,30.9,53.4,30.9z M53.4,18.3c-2.6,0-4.8,2.2-4.8,4.8c0,2.6,2.2,4.8,4.8,4.8c2.6,0,4.8-2.2,4.8-4.8
		C58.2,20.5,56,18.3,53.4,18.3z"/>
</g>
<g>
	<path class="st0" d="M13.5,41.3c0,0-0.1,0-0.1,0c-0.5-0.1-0.9-0.6-0.9-1.1c0.2-2,1-3.5,2.3-4.4c2-1.5,4.4-1.1,4.5-1
		c0.5,0.1,0.9,0.6,0.8,1.2c-0.1,0.5-0.6,0.9-1.2,0.8c0,0-1.7-0.3-3,0.7c-0.8,0.6-1.3,1.6-1.5,3C14.4,40.9,14,41.3,13.5,41.3z"/>
</g>
<g>
	<path class="st0" d="M93.4,49.3c-0.5,0-1-0.4-1-1c0,0-0.1-1.7-1.3-2.7c-0.8-0.7-1.9-1-3.3-0.8c-0.6,0.1-1-0.4-1.1-0.9
		c0-0.5,0.4-1,0.9-1.1c2-0.2,3.6,0.3,4.8,1.3c1.8,1.6,1.9,4,2,4.1C94.4,48.8,94,49.3,93.4,49.3C93.4,49.3,93.4,49.3,93.4,49.3z"/>
</g>
</svg>
