<?xml version="1.0" encoding="utf-8"?>
<!-- Generator: Adobe Illustrator 21.0.0, SVG Export Plug-In . SVG Version: 6.00 Build 0)  -->
<svg version="1.1" id="Layer_1" xmlns="http://www.w3.org/2000/svg" xmlns:xlink="http://www.w3.org/1999/xlink" x="0px" y="0px"
	 viewBox="0 0 105 105" style="enable-background:new 0 0 105 105;" xml:space="preserve">
<style type="text/css">
	.st0{fill:#FFFFFF; background-color:#FFFFFF;}
</style>
<g>
	<g>
		<g>
			<g>
				<path class="st0" d="M52.5,3C79.8,3,102,25.2,102,52.5S79.8,102,52.5,102S3,79.8,3,52.5S25.2,3,52.5,3 M52.5,0
					C23.5,0,0,23.5,0,52.5S23.5,105,52.5,105S105,81.5,105,52.5S81.5,0,52.5,0L52.5,0z"/>
			</g>
		</g>
	</g>
	<g>
		<path class="st0" d="M44.5,38.5H24.3c-0.8,0-1.5-0.7-1.5-1.5s0.7-1.5,1.5-1.5H43V23c0-0.8,0.7-1.5,1.5-1.5S46,22.2,46,23v14
			C46,37.8,45.3,38.5,44.5,38.5z"/>
	</g>
	<g>
		<rect x="30.1" y="68.2" class="st0" width="20.5" height="2.5"/>
	</g>
	<g>
		<rect x="30.1" y="61.7" class="st0" width="22.1" height="2.5"/>
	</g>
	<g>
		<rect x="30.1" y="55.2" class="st0" width="24.2" height="2.5"/>
	</g>
	<g>
		<rect x="30.1" y="48.7" class="st0" width="29.2" height="2.5"/>
	</g>
	<g>
		<rect x="30.1" y="42.2" class="st0" width="33.1" height="2.5"/>
	</g>
	<g>
		<g>
			<path class="st0" d="M50.4,70.7c-0.4,0-0.7-0.1-1-0.4c-0.4-0.4-0.6-0.9-0.4-1.4l3-13c0.1-0.3,0.2-0.5,0.4-0.7l17.2-18.8
				c0.1-0.1,0.2-0.2,0.4-0.3l4.1-4.4c0.4-0.4,1-0.6,1.6-0.4c5.3,1.9,8.4,4.8,10.7,9.9c0.2,0.6,0.1,1.2-0.3,1.6l-4.5,4.8
				c-0.1,0.1-0.2,0.2-0.3,0.3L64.2,66.2c-0.2,0.2-0.4,0.3-0.7,0.4l-12.7,4C50.7,70.7,50.6,70.7,50.4,70.7z M54.8,56.9L52.5,67
				l9.8-3.1l16-17.3l-7.6-7.1L54.8,56.9z M72.8,37.4l7.6,7.1l2.7-2.9c-1.7-3.5-4-5.5-7.6-7.1L72.8,37.4z"/>
		</g>
	</g>
	<g>
		<path class="st0" d="M91.9,45.4c-0.2,0-0.5-0.1-0.7-0.2c-0.4-0.4-0.5-1-0.1-1.4c0,0,1.1-1.3,0.9-2.8c-0.1-1-0.8-2-2-2.9
			c-0.4-0.3-0.5-1-0.2-1.4c0.3-0.4,1-0.5,1.4-0.2c1.6,1.2,2.6,2.7,2.7,4.3c0.3,2.4-1.3,4.3-1.4,4.3C92.5,45.3,92.2,45.4,91.9,45.4z"
			/>
	</g>
	<g>
		<path class="st0" d="M63.2,66.7c-0.4,0-0.7-0.1-1-0.4l-9.8-9c-0.6-0.6-0.7-1.5-0.1-2.1c0.6-0.6,1.5-0.6,2.1-0.1l9.8,9
			c0.6,0.6,0.7,1.5,0.1,2.1C64,66.5,63.6,66.7,63.2,66.7z"/>
	</g>
	<g>
		<g>
			<g>
				<path class="st0" d="M67.9,80.4H24.3c-0.8,0-1.5-0.7-1.5-1.5v-42c0-0.5,0.2-0.9,0.6-1.2l20.2-14.2c0.3-0.2,0.6-0.3,0.9-0.3h23.4
					c0.8,0,1.5,0.7,1.5,1.5v17.7c0,0.8-0.7,1.5-1.5,1.5s-1.5-0.7-1.5-1.5V24.2H45L25.8,37.7v39.7h40.6V60c0-0.8,0.7-1.5,1.5-1.5
					s1.5,0.7,1.5,1.5v18.9C69.4,79.7,68.7,80.4,67.9,80.4z"/>
			</g>
		</g>
	</g>
</g>
</svg>
