<?xml version="1.0" encoding="utf-8"?>
<!-- Generator: Adobe Illustrator 21.0.0, SVG Export Plug-In . SVG Version: 6.00 Build 0)  -->
<svg version="1.1" id="Layer_1" xmlns="http://www.w3.org/2000/svg" xmlns:xlink="http://www.w3.org/1999/xlink" x="0px" y="0px"
	 viewBox="0 0 105 105" style="enable-background:new 0 0 105 105;" xml:space="preserve">
<style type="text/css">
	.st0{fill:none;}
	.st1{fill:#FFFFFF;}
</style>
<g>
	<g>
		<circle class="st0" cx="52.5" cy="52.5" r="52.5"/>
	</g>
	<g>
		<g>
			<g>
				<path class="st1" d="M52.5,3C79.8,3,102,25.2,102,52.5S79.8,102,52.5,102S3,79.8,3,52.5S25.2,3,52.5,3 M52.5,0
					C23.5,0,0,23.5,0,52.5S23.5,105,52.5,105S105,81.5,105,52.5S81.5,0,52.5,0L52.5,0z"/>
			</g>
		</g>
	</g>
	<g>
		<path class="st1" d="M31.7,86.1c-0.9,0-2-0.2-3.3-0.7c-2.7-1.2-3.7-3.1-3.8-3.3c-0.2-0.3-0.2-0.7-0.1-1l0.9-3.9
			c-0.5-0.5-1-0.9-1.5-1.5l-3.9,0.9c-0.3,0.1-0.7,0-1-0.1c-0.2-0.1-2.1-1.1-3.3-3.8c-1.2-2.8-0.5-4.9-0.4-5.1
			c0.1-0.3,0.3-0.6,0.6-0.8l3.4-2.1c0-0.7,0-1.4,0-2.1l-3.4-2.1c-0.3-0.2-0.5-0.5-0.6-0.8c-0.1-0.2-0.8-2.3,0.4-5.1
			c1.2-2.7,3.1-3.7,3.3-3.8c0.3-0.2,0.7-0.2,1-0.1l3.9,0.9c0.5-0.5,0.9-1,1.5-1.5L24.3,46c-0.1-0.3,0-0.7,0.1-1
			c0.1-0.2,1.1-2.1,3.8-3.3c2.8-1.2,4.9-0.5,5.1-0.4c0.3,0.1,0.6,0.3,0.8,0.6l2.1,3.4c0.7,0,1.4,0,2.1,0l2.1-3.4
			c0.2-0.3,0.5-0.5,0.8-0.6c0.2-0.1,2.3-0.8,5.1,0.4c2.7,1.2,3.7,3.1,3.8,3.3c0.2,0.3,0.2,0.7,0.1,1l-0.9,3.9c0.5,0.5,1,0.9,1.5,1.5
			l3.8-0.9c0.3-0.1,0.7,0,1,0.1c0.2,0.1,2.1,1.1,3.3,3.8c1.2,2.8,0.5,4.9,0.4,5.1c-0.1,0.3-0.3,0.6-0.6,0.8l-3.4,2.1
			c0,0.7,0,1.4,0,2.1l3.4,2.1c0.3,0.2,0.5,0.5,0.6,0.8c0.1,0.2,0.8,2.3-0.4,5.1c-1.2,2.7-3.1,3.7-3.3,3.8c-0.3,0.2-0.7,0.2-1,0.1
			L51,75.6c-0.5,0.5-0.9,1-1.5,1.5l0.9,3.9c0.1,0.3,0,0.7-0.1,1c-0.1,0.2-1.1,2.1-3.8,3.3c-2.8,1.2-4.9,0.5-5.1,0.4
			c-0.3-0.1-0.6-0.3-0.8-0.6l-2.1-3.4c-0.7,0-1.4,0-2.1,0l-2.1,3.4c-0.2,0.3-0.5,0.5-0.8,0.6C33.4,85.9,32.7,86.1,31.7,86.1z
			 M27.5,81.1c0.3,0.4,1,1,2.1,1.5c1.1,0.5,2,0.5,2.5,0.4l2.3-3.7c0.3-0.5,0.8-0.7,1.4-0.7c1.2,0.1,2.3,0.1,3.5,0
			c0.5,0,1.1,0.2,1.4,0.7l2.3,3.6c0.5,0.1,1.4,0,2.5-0.4c1.1-0.5,1.8-1.1,2.1-1.5l-1-4.2c-0.1-0.6,0.1-1.1,0.5-1.5
			c0.9-0.7,1.6-1.5,2.4-2.4c0.4-0.4,0.9-0.6,1.5-0.5l4.1,1c0.4-0.3,1-1,1.5-2.1c0.5-1.1,0.5-2,0.4-2.5l-3.7-2.3
			c-0.5-0.3-0.7-0.8-0.7-1.4c0.1-1.2,0.1-2.3,0-3.5c0-0.6,0.2-1.1,0.7-1.4l3.6-2.3c0.1-0.5,0-1.4-0.4-2.5c-0.5-1.1-1.1-1.8-1.5-2.1
			l-4.1,1c-0.6,0.1-1.2-0.1-1.5-0.5c-0.7-0.9-1.5-1.6-2.4-2.4c-0.4-0.4-0.6-0.9-0.5-1.5l1-4.2c-0.3-0.4-1-1-2.1-1.5
			c-1.1-0.5-2-0.5-2.5-0.4l-2.3,3.6c-0.3,0.5-0.8,0.7-1.4,0.7c-1.2-0.1-2.3-0.1-3.5,0c-0.6,0.1-1.1-0.2-1.4-0.7L32,44
			c-0.5,0-1.4,0-2.5,0.4c-1.1,0.5-1.8,1.1-2.1,1.5l1,4.2c0.1,0.6-0.1,1.1-0.5,1.5c-0.9,0.7-1.6,1.5-2.4,2.4
			c-0.4,0.4-0.9,0.6-1.5,0.5l-4.2-1c-0.4,0.3-1,1-1.5,2.1c-0.5,1.1-0.5,2-0.4,2.5l3.7,2.3c0.5,0.3,0.7,0.8,0.7,1.4
			c-0.1,1.2-0.1,2.3,0,3.5c0,0.6-0.2,1.1-0.7,1.4l-3.6,2.3c-0.1,0.5,0,1.4,0.4,2.5c0.5,1.1,1.1,1.8,1.5,2.1l4.2-1
			c0.6-0.1,1.1,0.1,1.5,0.5c0.7,0.9,1.5,1.6,2.4,2.4c0.4,0.4,0.6,0.9,0.5,1.5L27.5,81.1z M37.3,76c-1.6,0-3.2-0.3-4.8-0.9
			c-3.1-1.3-5.5-3.7-6.8-6.8c-1.3-3.1-1.3-6.5,0-9.7c1.3-3.1,3.7-5.5,6.8-6.8c3.1-1.3,6.5-1.3,9.7,0c6.4,2.6,9.5,10,6.8,16.5
			C47,73.1,42.3,76,37.3,76z M37.3,53.9c-1.3,0-2.5,0.2-3.7,0.7c-2.4,1-4.2,2.8-5.2,5.2c-1,2.4-1,5,0,7.4c1,2.4,2.8,4.2,5.2,5.2l0,0
			c4.9,2,10.6-0.3,12.6-5.2c2-5-0.3-10.6-5.2-12.5C39.8,54.1,38.6,53.9,37.3,53.9z"/>
	</g>
	<g>
		<path class="st1" d="M67.7,59.3c-0.6,0-1.4-0.1-2.1-0.3c-2.9-0.8-4.2-2.6-4.3-2.8c-0.2-0.3-0.3-0.6-0.2-1l0.4-4
			c-0.8-0.6-1.5-1.4-2.3-2.3l-4,0.4c-0.3,0-0.7-0.1-1-0.2c-0.2-0.1-2-1.4-2.7-4.3c-0.7-2.9,0.2-4.8,0.3-5c0.2-0.3,0.4-0.6,0.7-0.7
			l3.7-1.7c0.1-0.5,0.2-1.1,0.3-1.6c0.1-0.6,0.3-1.1,0.5-1.6L54.7,31c-0.2-0.3-0.3-0.6-0.3-0.9c0-0.2,0.2-2.4,2.3-4.6
			c2.1-2.1,4.3-2.3,4.6-2.3c0.3,0,0.7,0.1,1,0.3l3.2,2.3c1-0.4,2-0.7,3.1-0.8l1.6-3.6c0.1-0.3,0.4-0.6,0.7-0.7c0.2-0.1,2.2-1,5-0.3
			c2.9,0.7,4.1,2.5,4.3,2.7c0.2,0.3,0.3,0.6,0.2,1l-0.4,4c0.8,0.7,1.6,1.5,2.3,2.3l4-0.4c0.3,0,0.7,0,1,0.2c0.2,0.1,2.1,1.4,2.9,4.3
			c0.7,2.9-0.2,4.8-0.3,5c-0.2,0.3-0.4,0.6-0.7,0.7l-3.6,1.6c-0.1,0.6-0.2,1.1-0.4,1.7c-0.2,0.5-0.3,1.1-0.6,1.6l2.3,3.3
			c0.2,0.3,0.3,0.6,0.3,0.9c0,0.2-0.2,2.4-2.3,4.6s-4.3,2.3-4.6,2.3c-0.3,0-0.7-0.1-1-0.3l-3.2-2.3c-1,0.4-2.1,0.7-3.2,0.9L71.3,58
			c-0.1,0.3-0.4,0.6-0.7,0.7C70.4,58.8,69.3,59.3,67.7,59.3z M64.1,54.9c0.4,0.4,1.1,0.9,2.3,1.2c1.1,0.3,2,0.2,2.5,0l1.7-3.8
			c0.2-0.5,0.7-0.8,1.3-0.9c1.3-0.1,2.6-0.4,3.8-1c0.5-0.2,1.1-0.2,1.5,0.1l3.4,2.4c0.5-0.1,1.3-0.5,2.2-1.4
			c0.9-0.9,1.2-1.7,1.4-2.2L81.7,46c-0.3-0.4-0.4-1-0.2-1.5c0.3-0.7,0.6-1.3,0.7-1.9c0.2-0.6,0.3-1.4,0.3-1.9c0-0.6,0.3-1.1,0.9-1.4
			l3.8-1.7c0.1-0.5,0.2-1.4-0.1-2.5c-0.3-1.1-0.8-1.8-1.2-2.2l-4.2,0.4c-0.5,0.1-1-0.2-1.4-0.6c-0.8-1.1-1.8-2.1-2.9-2.9
			C77.2,29.5,77,29,77,28.4l0.4-4.1c-0.4-0.3-1.1-0.9-2.2-1.1c-1.1-0.3-2-0.2-2.5-0.1L71,26.9c-0.2,0.5-0.7,0.8-1.3,0.9
			c-1.3,0.1-2.6,0.4-3.8,1c-0.5,0.2-1.1,0.2-1.5-0.1L61,26.2c-0.5,0.1-1.3,0.5-2.2,1.4c-0.9,0.9-1.2,1.7-1.4,2.2l2.4,3.5
			c0.3,0.4,0.4,1,0.2,1.5c-0.3,0.7-0.6,1.3-0.7,2c-0.2,0.6-0.3,1.2-0.3,1.8l0,0.2c-0.1,0.5-0.4,0.9-0.9,1.2l-3.8,1.7
			c-0.1,0.5-0.2,1.4,0.1,2.5c0.3,1.1,0.8,1.8,1.1,2.2l4.1-0.4c0.5-0.1,1,0.2,1.4,0.6c1,1.3,1.8,2.2,2.9,2.9c0.5,0.3,0.7,0.8,0.6,1.4
			L64.1,54.9z M70.9,49.1c-0.8,0-1.6-0.1-2.4-0.3c-2.5-0.6-4.5-2.2-5.8-4.4c-1.3-2.2-1.6-4.8-1-7.2c1.3-5,6.5-8.1,11.6-6.8
			c2.5,0.6,4.5,2.2,5.8,4.4c1.3,2.2,1.6,4.8,1,7.2l0,0c-0.6,2.5-2.2,4.5-4.4,5.8C74.2,48.6,72.5,49.1,70.9,49.1z M70.9,33
			c-2.9,0-5.6,1.9-6.3,4.8c-0.4,1.7-0.2,3.5,0.7,5c0.9,1.5,2.3,2.6,3.9,3c1.7,0.4,3.5,0.2,5-0.7c1.5-0.9,2.6-2.3,3-3.9c0,0,0,0,0,0
			c0.4-1.7,0.2-3.5-0.7-5c-0.9-1.5-2.3-2.6-3.9-3C72,33.1,71.4,33,70.9,33z"/>
	</g>
	<g>
		<path class="st1" d="M51.2,30.8c-0.5,0-0.9-0.4-1-0.9c0-0.2-0.4-5,4.3-7.8c0.5-0.3,1.1-0.1,1.4,0.3c0.3,0.5,0.1,1.1-0.3,1.4
			c-3.6,2.1-3.3,5.7-3.3,5.9C52.2,30.3,51.8,30.7,51.2,30.8C51.3,30.8,51.2,30.8,51.2,30.8z"/>
	</g>
	<g>
		<path class="st1" d="M40.6,90.8c-3.2,0-6-1.3-6.1-1.4c-0.5-0.2-0.7-0.8-0.4-1.3c0.2-0.5,0.8-0.7,1.3-0.5c0,0,4.6,2.3,8.3,0.6
			c0.5-0.2,1.1,0,1.3,0.5c0.2,0.5,0,1.1-0.5,1.3C43.2,90.6,41.8,90.8,40.6,90.8z"/>
	</g>
	<g>
		<path class="st1" d="M11.8,65.4c-0.3,0-0.6-0.1-0.8-0.4c-3.1-4.3-0.6-9.2-0.5-9.5c0.3-0.5,0.9-0.7,1.3-0.4
			c0.5,0.3,0.7,0.9,0.4,1.3c-0.1,0.2-2.1,4.1,0.3,7.3c0.3,0.4,0.2,1.1-0.2,1.4C12.2,65.3,12,65.4,11.8,65.4z"/>
	</g>
	<g>
		<path class="st1" d="M63.8,75.9c-0.2,0-0.5-0.1-0.6-0.2c-0.4-0.4-0.5-1-0.1-1.4l0,0c0.1-0.1,2.3-2.9,0.9-7
			c-0.2-0.5,0.1-1.1,0.6-1.3c0.5-0.2,1.1,0.1,1.3,0.6c1.8,5.3-1.2,8.8-1.3,9C64.4,75.8,64.1,75.9,63.8,75.9z"/>
	</g>
	<g>
		<path class="st1" d="M78.4,60.5c-0.5,0-0.8,0-0.9,0c-0.5-0.1-1-0.5-0.9-1.1c0.1-0.5,0.5-0.9,1.1-0.9l0,0c0,0,4.5,0.4,7-2.4
			c0.4-0.4,1-0.5,1.4-0.1c0.4,0.4,0.5,1,0.1,1.4C83.8,60.2,80,60.5,78.4,60.5z"/>
	</g>
	<g>
		<path class="st1" d="M89.3,27.4c-0.4,0-0.8-0.3-1-0.7c-1.2-3.8-4.6-4.8-4.7-4.8c-0.5-0.2-0.8-0.7-0.7-1.2c0.1-0.5,0.7-0.8,1.2-0.7
			c0.2,0.1,4.5,1.3,6.1,6.2c0.2,0.5-0.1,1.1-0.7,1.3C89.5,27.4,89.4,27.4,89.3,27.4z"/>
	</g>
	<g>
		<path class="st1" d="M28,39.6c-0.3,0-0.6-0.1-0.8-0.4c-0.3-0.4-0.2-1.1,0.2-1.4c0.2-0.1,4.9-3.5,10.1-1.2c0.5,0.2,0.7,0.8,0.5,1.3
			c-0.2,0.5-0.8,0.7-1.3,0.5c-4.1-1.8-8.1,1-8.1,1C28.4,39.5,28.2,39.6,28,39.6z"/>
	</g>
</g>
</svg>
