<?xml version="1.0" encoding="utf-8"?>
<!-- Generator: Adobe Illustrator 21.0.0, SVG Export Plug-In . SVG Version: 6.00 Build 0)  -->
<svg version="1.1" id="Layer_1" xmlns="http://www.w3.org/2000/svg" xmlns:xlink="http://www.w3.org/1999/xlink" x="0px" y="0px"
	 viewBox="0 0 105 105" style="enable-background:new 0 0 105 105;" xml:space="preserve">
<style type="text/css">
	.st0{fill:#FFFFFF;}
	.st1{clip-path:url(#SVGID_2_);}
</style>
<g>
	<g>
		<g>
			<g>
				<path class="st0" d="M52.5,3C79.8,3,102,25.2,102,52.5S79.8,102,52.5,102S3,79.8,3,52.5S25.2,3,52.5,3 M52.5,0
					C23.5,0,0,23.5,0,52.5S23.5,105,52.5,105S105,81.5,105,52.5S81.5,0,52.5,0L52.5,0z"/>
			</g>
		</g>
	</g>
	<g>
		<path class="st0" d="M59.4,32.5H45.5c-0.8,0-1.5-0.7-1.5-1.5v-5.9c0-0.8,0.7-1.5,1.5-1.5h13.9c0.8,0,1.5,0.7,1.5,1.5V31
			C60.9,31.8,60.2,32.5,59.4,32.5z M47,29.5h10.9v-2.9H47V29.5z"/>
	</g>
	<g>
		<g>
			<defs>
				<rect id="SVGID_1_" x="20.5" y="70.8" width="63.8" height="18.3"/>
			</defs>
			<clipPath id="SVGID_2_">
				<use xlink:href="#SVGID_1_"  style="overflow:visible;"/>
			</clipPath>
			<g class="st1">
				<path class="st0" d="M68.5,87.4h-6.8c-0.6,0-1.1-0.3-1.4-0.9l-3.3-7v3.9c0,0.8-0.7,1.5-1.5,1.5H49c-0.8,0-1.5-0.7-1.5-1.5v-3.9
					l-3.3,7c-0.2,0.5-0.8,0.9-1.4,0.9H36c-0.5,0-1-0.3-1.3-0.7c-0.3-0.4-0.3-1-0.1-1.4l7.9-16.5l0.9-2c0.2-0.6,0.8-0.9,1.4-0.9h14.9
					c0.6,0,1.1,0.3,1.4,0.9l1.1,2.3l7.7,16.3c0.2,0.5,0.2,1-0.1,1.4C69.5,87.1,69,87.4,68.5,87.4z M62.6,84.4h3.5l-7.4-15.6h-13
					L45.3,70l-6.9,14.4h3.5l5.5-11.5c0.2-0.5,0.8-0.9,1.4-0.9H49c0.8,0,1.5,0.7,1.5,1.5v8.4H54v-8.4c0-0.8,0.7-1.5,1.5-1.5h0.3
					c0.6,0,1.1,0.3,1.4,0.9L62.6,84.4z"/>
			</g>
		</g>
	</g>
	<g>
		<path class="st0" d="M84.3,73.7H20.5c-0.8,0-1.5-0.7-1.5-1.5v-5.3c0-0.8,0.7-1.5,1.5-1.5h63.8c0.8,0,1.5,0.7,1.5,1.5v5.3
			C85.8,73,85.1,73.7,84.3,73.7z M22,70.7h60.8v-2.3H22V70.7z"/>
	</g>
	<g>
		<polygon class="st0" points="26.1,63.6 23.5,60.4 43.8,44.2 53.6,53.2 68.9,38.7 71.7,41.7 53.6,58.6 43.6,49.4 		"/>
	</g>
	<g>
		<polygon class="st0" points="68.5,41.9 64.6,37.9 68.9,37.6 73.2,37.3 72.8,41.5 72.5,45.8 		"/>
	</g>
	<g>
		<path class="st0" d="M79.9,68.3h-55c-0.8,0-1.5-0.7-1.5-1.5V31c0-0.8,0.7-1.5,1.5-1.5h55c0.8,0,1.5,0.7,1.5,1.5v35.8
			C81.4,67.6,80.7,68.3,79.9,68.3z M26.4,65.3h52V32.5h-52V65.3z"/>
	</g>
	<g>
		<g>
			<path class="st0" d="M80.7,26.3c-0.1,0-0.2,0-0.3-0.1c-0.5-0.2-0.8-0.8-0.6-1.3l1.5-4.1c0.2-0.5,0.8-0.8,1.3-0.6
				c0.5,0.2,0.8,0.8,0.6,1.3l-1.5,4.1C81.5,26,81.1,26.3,80.7,26.3z"/>
		</g>
		<g>
			<path class="st0" d="M84.9,29c-0.3,0-0.6-0.1-0.8-0.4c-0.4-0.4-0.3-1.1,0.1-1.4l3.3-2.8c0.4-0.4,1.1-0.3,1.4,0.1
				c0.4,0.4,0.3,1.1-0.1,1.4l-3.3,2.8C85.4,28.9,85.1,29,84.9,29z"/>
		</g>
		<g>
			<path class="st0" d="M87.7,33.6c-0.5,0-0.9-0.3-1-0.8c-0.1-0.5,0.3-1.1,0.8-1.2l4.2-0.8c0.6-0.1,1.1,0.3,1.2,0.8
				c0.1,0.5-0.3,1.1-0.8,1.2l-4.2,0.8C87.8,33.6,87.8,33.6,87.7,33.6z"/>
		</g>
	</g>
</g>
</svg>
