<?xml version="1.0" encoding="UTF-8" standalone="no"?>
<svg width="18px" height="11px" viewBox="0 0 18 11" version="1.1" xmlns="http://www.w3.org/2000/svg" xmlns:xlink="http://www.w3.org/1999/xlink">
    <defs></defs>
    <g id="Atoms" stroke="none" stroke-width="1" fill="none" fill-rule="evenodd">
        <g id="Atoms-&gt;1080px" transform="translate(-30.000000, -5369.000000)" fill="#333333">
            <path d="M40.3797875,5378.22897 L47.1938555,5371.4149 C47.5834805,5371.02527 47.5836511,5370.3926 47.1935343,5370.00248 L46.4849519,5369.2939 C46.0915911,5368.90054 45.4624746,5368.90364 45.0725352,5369.29358 L38.7430491,5375.62306 L32.4135629,5369.29358 C32.0236235,5368.90364 31.394507,5368.90054 31.0011462,5369.2939 L30.2925638,5370.00248 C29.902447,5370.3926 29.9026176,5371.02527 30.2922426,5371.4149 L37.1063106,5378.22897 C37.1530065,5378.32177 37.2150887,5378.40881 37.2925638,5378.48629 L38.0011462,5379.19487 C38.2066692,5379.40039 38.4765498,5379.49769 38.7430491,5379.48813 C39.0095483,5379.49769 39.2794289,5379.40039 39.4849519,5379.19487 L40.1935343,5378.48629 C40.2710094,5378.40881 40.3330916,5378.32177 40.3797875,5378.22897 Z" id="Combined-Shape-Copy"></path>
        </g>
    </g>
</svg>