<?xml version="1.0" encoding="UTF-8" standalone="no"?>
<svg width="183px" height="66px" viewBox="0 0 183 66" version="1.1" xmlns="http://www.w3.org/2000/svg" xmlns:xlink="http://www.w3.org/1999/xlink">
    <!-- Generator: sketchtool 41.2 (35397) - http://www.bohemiancoding.com/sketch -->
    <title>33C5C5C1-9D17-4F27-8525-4C45A0B2F063</title>
    <desc>Created with sketchtool.</desc>
    <defs>
        <polygon id="path-1" points="0.0206779661 0.141378947 0.0206779661 14.5467474 5.31000876 14.5467474 5.31000876 0.141378947 0.0206779661 0.141378947"></polygon>
        <polygon id="path-3" points="8.39594516 0.308810526 0.250892655 0.308810526 0.250892655 5.51169474 8.39594516 5.51169474 8.39594516 0.308810526"></polygon>
    </defs>
    <g id="Symbols" stroke="none" stroke-width="1" fill="none" fill-rule="evenodd">
        <g id="Header-Main-Nav-SBA-Blue" transform="translate(-149.000000, -19.000000)">
            <g id="Header-Main-Nav">
                <g id="SBA-Logo" transform="translate(149.000000, 19.000000)">
                    <g id="SBA-Horizontal_blue">
                        <path d="M99.1877219,18.3819715 C98.962577,18.8371671 98.7013952,19.1574 98.4052062,19.343711 C98.1086739,19.529675 97.755169,19.6226571 97.3464075,19.6226571 C96.9369595,19.6226571 96.4767167,19.4627141 95.9656791,19.1421343 C95.453955,18.8215544 94.850251,18.464545 94.1549102,18.0718001 C93.4588831,17.6790551 92.646165,17.3220457 91.7150399,17.0014658 C90.7839149,16.680886 89.6842744,16.5205961 88.4161184,16.5205961 C87.2701447,16.5205961 86.2727804,16.6600691 85.4236822,16.9393622 C84.5749272,17.2186552 83.8586507,17.606196 83.2758825,18.1026784 C82.6924278,18.5988139 82.2575824,19.1938295 81.9713464,19.8863375 C81.6847672,20.5795393 81.5419924,21.3397021 81.5419924,22.1664789 C81.5419924,23.2215474 81.8333765,24.1007133 82.416488,24.8036297 C82.9995995,25.5068931 83.7714757,26.106419 84.7334896,26.6029014 C85.694817,27.0993838 86.7896526,27.544171 88.0169667,27.936916 C89.2449673,28.3303549 90.4976789,28.7487741 91.7764743,29.1932143 C93.0549265,29.6383484 94.3083245,30.1549538 95.5359818,30.7444182 C96.763296,31.3342296 97.8577884,32.0784328 98.819459,32.9780687 C99.7811296,33.8780515 100.553349,34.979264 101.136804,36.2820533 C101.719572,37.5851896 102.011299,39.1676188 102.011299,41.0286473 C102.011299,43.0558637 101.668434,44.9533217 100.98339,46.721368 C100.297659,48.4897614 99.2951462,50.0309038 97.9755089,51.3437546 C96.6558717,52.6576462 95.0448503,53.6915509 93.1421015,54.4461625 C91.2393528,55.2011211 89.060321,55.5789474 86.6056928,55.5789474 C85.1937324,55.5789474 83.8023645,55.4391274 82.4319324,55.1601813 C81.0608138,54.8805413 79.7463247,54.4825921 78.4881218,53.9652928 C77.2299189,53.4486874 76.0533996,52.8283446 74.9589072,52.1042644 C73.8640717,51.3801841 72.887643,50.5738773 72.0282486,49.6843029 L74.4221289,45.6822591 C74.6465874,45.3929046 74.9177222,45.1500411 75.2351902,44.9533217 C75.552315,44.7569492 75.9047903,44.658416 76.2939889,44.658416 C76.8050266,44.658416 77.3575925,44.8707481 77.9513435,45.2943714 C78.544408,45.7186887 79.2448969,46.1894969 80.0531532,46.7057554 C80.8614096,47.2234016 81.812784,47.6938629 82.9072764,48.1178332 C84.0017688,48.5414566 85.3166011,48.7537887 86.851087,48.7537887 C89.203439,48.7537887 91.0245041,48.1903454 92.3135958,47.0627648 C93.6023443,45.935878 94.2468902,44.3173662 94.2468902,42.2075761 C94.2468902,41.0286473 93.9551628,40.0672547 93.3723945,39.3223576 C92.789283,38.5778074 92.0167203,37.9526074 91.0553929,37.4453696 C90.0933791,36.9391726 88.9992299,36.5099981 87.7715726,36.1581929 C86.5439152,35.8067347 85.2960086,35.4243982 84.0275094,35.0101424 C82.758667,34.5965805 81.5111036,34.1000981 80.2834462,33.5210421 C79.0561321,32.9423331 77.9612965,32.1870275 76.9999691,31.2565133 C76.0379552,30.3256522 75.266079,29.1623359 74.6826243,27.7665646 C74.099856,26.3704463 73.8084719,24.648544 73.8084719,22.6008577 C73.8084719,20.967427 74.1307448,19.3745893 74.7749474,17.8233854 C75.4194933,16.2721814 76.3602282,14.897227 77.598525,13.6974812 C78.8357922,12.4984293 80.3548336,11.5366898 82.1556494,10.8122626 C83.9557788,10.0885294 86.0119418,9.72631579 88.3237953,9.72631579 C90.9424773,9.72631579 93.3569501,10.1402246 95.5668706,10.9670014 C97.7761047,11.794819 99.6579177,12.9529311 101.213339,14.4420313 L99.1877219,18.3819715" id="Fill-1" fill="#333333"></path>
                        <path d="M114.793517,35.5841506 L114.793517,48.7240246 L123.219073,48.7240246 C124.762603,48.7240246 126.053479,48.5379163 127.092393,48.1660461 C128.131307,47.7945225 128.964509,47.2982336 129.592344,46.6785655 C130.219489,46.0588974 130.672331,45.3359514 130.95018,44.5090342 C131.228029,43.6835032 131.367126,42.804947 131.367126,41.8754449 C131.367126,40.9043544 131.212497,40.0313433 130.903929,39.2564116 C130.595362,38.4818265 130.111801,37.8209166 129.453592,37.2733352 C128.794348,36.7261004 127.951481,36.3077898 126.922922,36.0180568 C125.893673,35.729017 124.649047,35.5841506 123.188355,35.5841506 L114.793517,35.5841506 Z M114.793517,29.8203365 L121.429449,29.8203365 C124.247978,29.8203365 126.387243,29.3039465 127.84828,28.2708198 C129.309317,27.2380397 130.039664,25.5956421 130.039664,23.343627 C130.039664,21.0094746 129.381455,19.3459362 128.064692,18.354398 C126.747584,17.3625132 124.69012,16.8669174 121.891956,16.8669174 L114.793517,16.8669174 L114.793517,29.8203365 Z M106.491525,55.2315789 L106.491525,10.4210526 L121.891956,10.4210526 C124.81334,10.4210526 127.308804,10.7000419 129.376277,11.2580204 C131.444096,11.8156523 133.141563,12.6110316 134.468681,13.6438117 C135.795798,14.677285 136.767752,15.9270182 137.385233,17.3937046 C138.002369,18.8607375 138.310936,20.5135322 138.310936,22.3517422 C138.310936,23.4056631 138.156652,24.412797 137.848085,25.3734904 C137.539172,26.3341838 137.061133,27.2328412 136.412934,28.0694624 C135.764735,28.9060835 134.941887,29.6654195 133.944047,30.3471237 C132.945861,31.0288279 131.757495,31.6076006 130.379295,32.0827488 C136.510613,33.4669514 139.576271,36.7933351 139.576271,42.0612067 C139.576271,43.9621459 139.216275,45.7182186 138.496284,47.3294249 C137.775947,48.9409777 136.726334,50.3303789 135.348479,51.4972818 C133.969588,52.6648778 132.27212,53.5787842 130.256075,54.2400407 C128.23934,54.9016438 125.935091,55.2315789 123.342639,55.2315789 L106.491525,55.2315789 L106.491525,55.2315789 Z" id="Fill-2" fill="#333333"></path>
                        <path d="M154.194712,38.3116604 L168.381903,38.3116604 L162.965295,23.4056631 C162.719211,22.7447531 162.447313,21.9646229 162.149947,21.0656191 C161.852237,20.1673083 161.560033,19.1910192 161.272992,18.1374449 C160.985263,19.1910192 160.703384,20.1725069 160.426324,21.0812147 C160.149264,21.9906157 159.877367,22.7856485 159.610976,23.4676992 L154.194712,38.3116604 Z M183,55.2315789 L176.59871,55.2315789 C175.880419,55.2315789 175.290849,55.0510157 174.829312,54.6891961 C174.367775,54.3280696 174.033927,53.8789143 173.829143,53.3413834 L170.505456,44.1995467 L152.071159,44.1995467 L148.747128,53.3413834 C148.582957,53.8168782 148.259434,54.2507844 147.777935,54.6431022 C147.295747,55.03542 146.705833,55.2315789 146.008192,55.2315789 L139.576271,55.2315789 L157.056518,10.4210526 L165.519753,10.4210526 L183,55.2315789 L183,55.2315789 Z" id="Fill-3" fill="#333333"></path>
                        <polyline id="Fill-4" fill="#333333" points="54.1073446 46.8947368 37.6073849 46.8947368 37.6073849 42.2015829 36.1898353 42.2015829 36.1898353 40.4243742 29.7920327 40.4243742 29.7920327 42.2015829 28.3471893 42.2015829 28.3471893 46.8947368 10.6836158 46.8947368 10.6836158 46.0707108 27.5294121 46.0707108 27.5294121 41.3775569 28.9742555 41.3775569 28.9742555 39.6 37.007958 39.6 37.007958 41.3775569 38.4255076 41.3775569 38.4255076 46.0707108 54.1073446 46.0707108 54.1073446 46.8947368"></polyline>
                        <g id="Group-9" transform="translate(0.000000, 23.621053)">
                            <mask id="mask-2" fill="white">
                                <use xlink:href="#path-1"></use>
                            </mask>
                            <g id="Clip-6"></g>
                            <path d="M4.15489266,3.44033684 C4.11905085,3.40247368 4.09458192,3.36704211 4.08217514,3.33438947 C4.06976836,3.30173684 4.0690791,3.26352632 4.08079661,3.22045263 C4.09148023,3.17842105 4.11767232,3.13777895 4.15937288,3.09713684 C4.20107345,3.05684211 4.24725424,3.00890526 4.29791525,2.95402105 C4.34857627,2.89844211 4.39923729,2.83313684 4.45024294,2.75775789 C4.50090395,2.68237895 4.54088136,2.58893684 4.57017514,2.47743158 C4.62187006,2.28082105 4.6170452,2.12207368 4.55535593,2.00014737 C4.49435593,1.87891579 4.39337853,1.79936842 4.25242373,1.76185263 C4.16281921,1.73788421 4.08114124,1.74483158 4.0080791,1.78304211 C3.93467232,1.82125263 3.8650565,1.87856842 3.79888701,1.95498947 C3.73271751,2.03106316 3.66827119,2.12068421 3.60520339,2.22315789 C3.54213559,2.32563158 3.47527684,2.42984211 3.40428249,2.53613684 C3.33328814,2.64243158 3.25574576,2.74421053 3.172,2.84147368 C3.08859887,2.93838947 2.99382486,3.01967368 2.88836723,3.08567368 C2.7829096,3.15167368 2.66332203,3.19544211 2.53029379,3.21767368 C2.39726554,3.23990526 2.24528249,3.22809474 2.07468927,3.18258947 C1.88927684,3.13326316 1.72385311,3.05406316 1.57876271,2.94568421 C1.43367232,2.83730526 1.31684181,2.70530526 1.22861582,2.55037895 C1.13970056,2.39545263 1.08421469,2.21829474 1.06250282,2.0196 C1.04044633,1.82055789 1.05940113,1.60657895 1.11936723,1.37835789 C1.15348588,1.24774737 1.20070056,1.12130526 1.2610113,0.999031579 C1.32132203,0.876757895 1.39059322,0.761778947 1.46882486,0.654094737 C1.5470565,0.546757895 1.63287006,0.4488 1.72626554,0.360568421 C1.81966102,0.272336842 1.91719209,0.199042105 2.01885876,0.141378947 L2.35246328,0.497084211 C2.3769322,0.525915789 2.39450847,0.559957895 2.40553672,0.599210526 C2.41622034,0.638463158 2.41656497,0.677021053 2.40691525,0.714884211 C2.39347458,0.765947368 2.36038983,0.814578947 2.30800565,0.861473684 C2.25562147,0.908021053 2.19737853,0.962210526 2.1329322,1.02369474 C2.06883051,1.08552632 2.00507345,1.16021053 1.94200565,1.2474 C1.87893785,1.33458947 1.82965537,1.44644211 1.79381356,1.58261053 C1.74177401,1.78095789 1.74659887,1.94595789 1.8079435,2.07865263 C1.86928814,2.21134737 1.98922034,2.30166316 2.16705085,2.34890526 C2.27009605,2.37634737 2.36073446,2.37183158 2.43862147,2.33501053 C2.51650847,2.29818947 2.58819209,2.24191579 2.65401695,2.16653684 C2.72018644,2.09115789 2.78325424,2.00188421 2.84356497,1.89871579 C2.90353107,1.79554737 2.9679774,1.69029474 3.03621469,1.58330526 C3.10445198,1.47631579 3.17923729,1.37384211 3.26125989,1.27623158 C3.34293785,1.17862105 3.4380565,1.09803158 3.54730508,1.03411579 C3.65620904,0.9702 3.78165537,0.928168421 3.9229548,0.908715789 C4.0649435,0.888568421 4.2300226,0.9042 4.41957062,0.954568421 C4.57120904,0.994863158 4.71078531,1.06433684 4.83726554,1.16264211 C4.96374576,1.26129474 5.06713559,1.38356842 5.14674576,1.53015789 C5.22670056,1.67709474 5.27770621,1.84487368 5.30045198,2.03418947 C5.32319774,2.22315789 5.30527684,2.42775789 5.24737853,2.64903158 C5.18224294,2.89635789 5.08436723,3.1152 4.95306215,3.30590526 C4.82175706,3.49626316 4.66977401,3.64597895 4.49642373,3.75574737 L4.15489266,3.44033684" id="Fill-5" fill="#0D465C" mask="url(#mask-2)"></path>
                            <path d="M1.84516384,6.73651579 C1.77072316,6.76152632 1.69455932,6.78514737 1.61632768,6.80703158 C1.69076836,6.84385263 1.76314124,6.88241053 1.83344633,6.92235789 C1.90375141,6.96265263 1.97061017,7.00433684 2.03471186,7.04775789 L4.15558192,8.43827368 C4.1869435,8.45876842 4.21072316,8.47995789 4.22726554,8.50114737 C4.24380791,8.52233684 4.25518079,8.54456842 4.26172881,8.56784211 C4.26827684,8.59076842 4.27137853,8.61682105 4.27068927,8.64530526 C4.27,8.67378947 4.26758757,8.70713684 4.26379661,8.74604211 L4.20107345,9.41125263 L0,9.00761053 L0.0734067797,8.23436842 L2.65263842,8.48238947 C2.7050226,8.48725263 2.76188701,8.4942 2.82323164,8.50323158 C2.88457627,8.51191579 2.9479887,8.52233684 3.01312429,8.53449474 L0.849175141,7.10750526 C0.729587571,7.02934737 0.676514124,6.92096842 0.689610169,6.78306316 L0.701327684,6.66009474 C0.707531073,6.59235789 0.729242938,6.53365263 0.766118644,6.48397895 C0.80299435,6.43430526 0.853655367,6.39748421 0.918446328,6.37212632 L3.31777966,5.37448421 C3.25161017,5.37413684 3.18716384,5.37274737 3.12409605,5.37066316 C3.06102825,5.36857895 3.00244068,5.36510526 2.94833333,5.35954737 L0.368757062,5.11187368 L0.441819209,4.33863158 L4.64254802,4.74262105 L4.57982486,5.40783158 C4.57637853,5.44465263 4.57224294,5.47765263 4.56741808,5.50648421 C4.56293785,5.53566316 4.5550113,5.56102105 4.54432768,5.58221053 C4.53364407,5.60409474 4.51813559,5.6232 4.49814689,5.63987368 C4.47781356,5.65654737 4.45058757,5.67217895 4.41612429,5.68642105 L2.06331638,6.65592632 C1.9919774,6.68441053 1.91960452,6.71115789 1.84516384,6.73651579" id="Fill-7" fill="#0D465C" mask="url(#mask-2)"></path>
                            <path d="M1.73315819,11.6774842 L1.83827119,12.9394737 L3.08687571,12.3718737 C3.15235593,12.3392211 3.22920904,12.3037895 3.31743503,12.2659263 C3.40600565,12.2277158 3.50077966,12.1902 3.60279096,12.1519895 C3.49423164,12.1339263 3.3929096,12.1137789 3.29848023,12.0925895 C3.20439548,12.0710526 3.12237288,12.0498632 3.05241243,12.0279789 L1.73315819,11.6774842 Z M0.364276836,14.5467474 L0.307412429,13.8662526 C0.30120904,13.7901789 0.313615819,13.7273053 0.345666667,13.6762421 C0.377372881,13.6258737 0.420107345,13.5859263 0.474559322,13.5581368 L1.25342938,13.2041684 L1.11281921,11.5152632 L0.286045198,11.2971158 C0.236073446,11.2818316 0.18920339,11.2512632 0.145779661,11.2061053 C0.102011299,11.1606 0.0771977401,11.1012 0.0709943503,11.0268632 L0.0137853107,10.3408105 L4.35684746,11.6413579 L4.43163277,12.5379158 L0.364276836,14.5467474 L0.364276836,14.5467474 Z" id="Fill-8" fill="#0D465C" mask="url(#mask-2)"></path>
                        </g>
                        <polyline id="Fill-10" fill="#333333" points="1.60659566 40.2259616 1.97460271 41.8730039 1.25435523 42.0315789 0.689265537 39.5043561 4.97276721 38.5578947 5.16949153 39.438788 1.60659566 40.2259616"></polyline>
                        <polyline id="Fill-11" fill="#333333" points="2.30426078 43.6979516 2.82300301 45.2675883 2.17415823 45.5052632 1.37853107 43.0955144 5.23690578 41.6842105 5.51412429 42.5239715 2.30426078 43.6979516"></polyline>
                        <path d="M6.35755482,47.896202 L6.64778279,48.4043216 C6.70967478,48.512297 6.77401448,48.6036879 6.83975286,48.6774359 C6.90584092,48.7511838 6.97472635,48.8051715 7.04640916,48.8390461 C7.11774231,48.8732736 7.19432053,48.8866823 7.27544449,48.8792723 C7.35656846,48.8725679 7.44223816,48.8425747 7.5324536,48.7903513 C7.62476708,48.7363636 7.69575055,48.6784944 7.74645302,48.6156852 C7.79680583,48.5532289 7.82687764,48.484421 7.83666847,48.4099674 C7.84645929,48.3358666 7.83736781,48.2540029 7.81009337,48.1643762 C7.78316861,48.0747496 7.73841056,47.9759485 7.67651857,47.8676203 L7.35936583,47.312923 L6.35755482,47.896202 Z M5.83584381,48.2000152 L4.82109492,48.7903513 L5.20013965,49.453024 C5.27077344,49.5768781 5.34385495,49.6700334 5.41938415,49.7328426 C5.49491336,49.795299 5.57114191,49.8362308 5.64806981,49.8556382 C5.72534738,49.8753984 5.80087659,49.8757512 5.87570645,49.8574025 C5.95053631,49.8390537 6.02186945,49.810472 6.09005554,49.7709516 C6.1648854,49.7271968 6.22607805,49.6763849 6.27258446,49.6195743 C6.31944054,49.5624108 6.34986203,49.4967787 6.3627999,49.4226779 C6.37608745,49.3485772 6.37084236,49.2649491 6.34741432,49.1724996 C6.32398628,49.0793443 6.27887856,48.9741918 6.21209116,48.8573949 L5.83584381,48.2000152 Z M3.79096045,48.3588025 L7.49993408,46.2 L8.25942222,47.528521 C8.40278785,47.7794051 8.5017451,48.007706 8.55664364,48.213071 C8.61154219,48.418436 8.62832646,48.6022765 8.60664678,48.7649453 C8.5849671,48.9272613 8.52727117,49.07017 8.43425835,49.1933184 C8.34089586,49.3164668 8.21851057,49.4223251 8.06675281,49.5105403 C7.98178245,49.5599408 7.89261603,49.5952269 7.79995288,49.6156928 C7.70728973,49.6365116 7.61147953,49.6407459 7.51252228,49.6283958 C7.41356503,49.6160457 7.31250975,49.5849939 7.20935644,49.5352405 C7.10550378,49.4854872 7.00200079,49.4152679 6.89779846,49.3242298 C7.06669016,49.8905714 6.93766109,50.2981256 6.51001192,50.5472454 C6.35300908,50.6386363 6.19006181,50.692624 6.02047076,50.7099142 C5.85087972,50.7272044 5.68338671,50.7063856 5.51764206,50.6467521 C5.35224708,50.5874715 5.19244686,50.4883176 5.03964008,50.3492905 C4.88648363,50.2106162 4.74626506,50.0299514 4.61933403,49.808002 L3.79096045,48.3588025 L3.79096045,48.3588025 Z" id="Fill-12" fill="#333333"></path>
                        <path d="M7.90302453,53.3372267 C7.99060818,53.4496053 8.08773402,53.5349428 8.19406126,53.5939416 C8.3003885,53.6529404 8.41114603,53.6852492 8.52667467,53.6912193 C8.6418625,53.6968382 8.75977668,53.6764696 8.88075799,53.6294111 C9.0017393,53.5823525 9.12169824,53.5093064 9.24131638,53.4102728 L11.1763358,51.8046635 L11.7175141,52.4964943 L9.78215395,54.1024548 C9.58517593,54.2661061 9.37865572,54.3837525 9.16225253,54.4550426 C8.94653093,54.526684 8.73115012,54.5512668 8.51645089,54.5287911 C8.30209246,54.5063154 8.0935275,54.4364299 7.89007442,54.3180812 C7.68730293,54.2000837 7.50020789,54.0315158 7.32947088,53.8127287 C7.15873388,53.594644 7.03877495,53.3702379 6.96925329,53.1395106 C6.90007243,52.9091345 6.87792092,52.6833237 6.90211718,52.4631319 C6.92665424,52.2422377 6.9958351,52.0304743 7.11000056,51.8281928 C7.22382523,51.6262625 7.37922658,51.4429449 7.57654539,51.2792935 L9.51190556,49.6736842 L10.0530839,50.3662174 L8.11772376,51.9721779 C7.99810562,52.0708603 7.90302453,52.1765664 7.83282129,52.2882427 C7.76227726,52.3999189 7.71797424,52.5144046 7.69888987,52.6313486 C7.6794647,52.7486438 7.68662134,52.8676949 7.720019,52.9870971 C7.75307586,53.1068506 7.81407771,53.2234434 7.90302453,53.3372267" id="Fill-13" fill="#333333"></path>
                        <path d="M13.6778564,55.2126565 C13.6261587,55.2263835 13.5819483,55.2310707 13.5462948,55.2270531 C13.5106412,55.2230354 13.4760573,55.2062952 13.4425429,55.1764977 C13.4100982,55.1483741 13.3858538,55.1071932 13.3698097,55.0532898 C13.353409,54.9990515 13.33273,54.9377824 13.3070594,54.8694824 C13.2821019,54.8008475 13.247518,54.7275255 13.2043772,54.6498509 C13.1608798,54.5718416 13.0959903,54.4951715 13.0093522,54.4191709 C12.856755,54.2859189 12.7105754,54.2176189 12.5704569,54.2149405 C12.4303384,54.2122621 12.3094729,54.2624827 12.2067906,54.3659371 C12.1411881,54.4322283 12.1076737,54.5052156 12.1066041,54.5852337 C12.1055345,54.6655867 12.1233613,54.7509617 12.1600845,54.8423632 C12.1968076,54.9337647 12.2460095,55.0298535 12.3080467,55.1306295 C12.3697274,55.2310707 12.4317646,55.3358644 12.4934452,55.4453453 C12.5551259,55.5541566 12.6093193,55.6666508 12.656382,55.782493 C12.7030881,55.8983352 12.7305414,56.016521 12.7387417,56.1367156 C12.746942,56.2569103 12.7284022,56.3794486 12.6834787,56.503326 C12.6381987,56.6275383 12.5536997,56.7520854 12.4292688,56.877637 C12.2941418,57.0139022 12.1419012,57.1200351 11.9729033,57.1943616 C11.804262,57.2693577 11.6277769,57.309869 11.444161,57.3152258 C11.2605452,57.3205827 11.0733641,57.2877719 10.8826175,57.2161238 C10.691871,57.144141 10.5075421,57.0306424 10.3303439,56.8752933 C10.2287313,56.7865703 10.1374582,56.6888075 10.0561681,56.5816702 C9.97487796,56.4745329 9.90464045,56.3630432 9.84545554,56.2465314 C9.78662717,56.1306892 9.73992101,56.0128381 9.7056936,55.8929783 C9.67110965,55.7724488 9.6525698,55.655937 9.64971751,55.5427733 L10.1346059,55.418561 C10.1727552,55.4105257 10.2123306,55.4108605 10.2529757,55.4192306 C10.2936208,55.4282703 10.3285612,55.4456801 10.3581537,55.4711252 C10.3977291,55.50561 10.4258955,55.5561654 10.4426526,55.6224566 C10.4594098,55.688413 10.4797323,55.7627395 10.5043333,55.8461057 C10.5285777,55.9291371 10.5649443,56.0178602 10.6130766,56.1116053 C10.6615655,56.2050157 10.7385771,56.2977564 10.8441117,56.3904971 C10.998135,56.5250883 11.1503757,56.5967364 11.3001207,56.6044369 C11.4502221,56.6121374 11.5903406,56.5501986 11.7201196,56.419625 C11.7953486,56.3436245 11.8352806,56.2639412 11.8399155,56.180575 C11.8445505,56.096874 11.8288629,56.0098249 11.7928528,55.919093 C11.7568427,55.8283611 11.7065712,55.7339464 11.6423948,55.6351792 C11.578575,55.5367468 11.5147551,55.433962 11.4509352,55.3268247 C11.3874719,55.2196874 11.3314958,55.1088673 11.2833635,54.9943643 C11.2345181,54.8801961 11.208491,54.7620103 11.2038561,54.6391372 C11.1992211,54.5169337 11.2223959,54.3903778 11.273737,54.260139 C11.3247216,54.1299003 11.4192036,53.995309 11.5575394,53.8560306 C11.6680654,53.7445408 11.7989139,53.6564874 11.9497285,53.5928746 C12.100543,53.5292618 12.2620536,53.4967858 12.4335473,53.494777 C12.6053974,53.4934378 12.782239,53.525579 12.9644287,53.5918702 C13.1462619,53.658831 13.3231035,53.7673075 13.4949537,53.9172997 C13.6871263,54.0857061 13.8372278,54.2691787 13.9456146,54.4683871 C14.0540014,54.6669259 14.1153255,54.8654647 14.1299435,55.0640035 L13.6778564,55.2126565" id="Fill-14" fill="#333333"></path>
                        <polyline id="Fill-15" fill="#333333" points="13.0722963 59.4 12.4067797 58.876916 14.8429579 55.5789474 15.5084746 56.1016928 13.0722963 59.4"></polyline>
                        <path d="M17.0442323,57.2573293 C17.0649171,57.2734381 17.0818718,57.2916481 17.0947574,57.3116091 C17.1073039,57.3322704 17.1174767,57.3546827 17.125615,57.3802467 C17.133075,57.4054605 17.1395178,57.4369777 17.1449433,57.4740981 L17.6017033,60.9206862 C17.6318826,60.8523988 17.6624011,60.7862125 17.694276,60.723178 C17.7254726,60.6601435 17.7566693,60.6016614 17.7875269,60.5470315 L18.9896159,58.4318728 L19.6440678,58.8279397 L17.5420227,62.5263158 L17.1595244,62.2944888 C17.1018784,62.2591194 17.0588134,62.2202481 17.0306686,62.1768243 C17.0021847,62.1334005 16.9825172,62.0759691 16.9716662,62.0059307 L16.5186363,58.5817549 C16.4898133,58.6444392 16.4603121,58.7046722 16.4308109,58.7631542 C16.4006315,58.8216363 16.3718085,58.8755658 16.3436637,58.9249429 L15.1283499,61.0628641 L14.4745763,60.6664469 L16.5762823,56.9684211 L16.9662407,57.2051507 C16.9974373,57.2237109 17.0235476,57.2412205 17.0442323,57.2573293" id="Fill-16" fill="#333333"></path>
                        <polyline id="Fill-17" fill="#333333" points="23.4350282 60.0481582 23.1750227 60.6747063 21.4718638 60.0045486 21.0592843 60.9987124 22.3845078 61.5203248 22.1332507 62.125068 20.8080272 61.6037964 20.3863493 62.6194243 22.0895082 63.2895821 21.8295026 63.9157895 19.299435 62.9202628 20.9049606 59.0526316 23.4350282 60.0481582"></polyline>
                        <path d="M25.8912862,61.9202246 C25.8548452,61.9556625 25.8213857,61.9796253 25.7905765,61.9917754 C25.7591047,62.0039255 25.7229949,62.0046006 25.6815847,61.9934629 C25.6418308,61.9823253 25.6027395,61.956675 25.5643108,61.9161746 C25.5255508,61.8753366 25.4801652,61.8301112 25.42716,61.7804981 C25.3744862,61.7305476 25.3122051,61.681272 25.2403169,61.6313215 C25.1684287,61.5817085 25.0793138,61.542558 24.9729723,61.5138702 C24.7854666,61.4632447 24.6340707,61.4679697 24.5181219,61.5283829 C24.4025045,61.588121 24.3266409,61.6870096 24.2908624,61.8250486 C24.268004,61.9127996 24.2746296,61.9931254 24.3110706,62.0646762 C24.3475117,62.136227 24.4021732,62.2047402 24.474724,62.2692034 C24.5476061,62.3336666 24.6327456,62.3974548 24.7308051,62.4588805 C24.8285333,62.5203062 24.9282492,62.5861194 25.0296215,62.6556451 C25.1309938,62.7255084 25.2280595,62.8011092 25.3204872,62.8827851 C25.4129149,62.965136 25.4904349,63.0572745 25.5533785,63.1608881 C25.6163221,63.2638267 25.6583949,63.3809405 25.6792657,63.5115544 C25.7004678,63.6418308 25.6892042,63.7906699 25.6461375,63.9577343 C25.5987642,64.1393112 25.5235631,64.3009755 25.4202031,64.4430645 C25.3165118,64.5851536 25.1909559,64.6995673 25.0432041,64.7866433 C24.895121,64.8737192 24.7268297,64.9277198 24.537005,64.9489825 C24.3475117,64.9709203 24.1434419,64.9523576 23.9254583,64.8932944 C23.8012275,64.8602191 23.6803095,64.8136436 23.5636982,64.7549179 C23.4467556,64.6958548 23.3374325,64.6280165 23.2347351,64.5514032 C23.1323689,64.4744524 23.0389474,64.390414 22.9548017,64.299288 C22.8703248,64.207487 22.8007555,64.1123109 22.7457627,64.0130849 L23.0849956,63.6857063 C23.112492,63.6620811 23.1449576,63.6445309 23.1820612,63.6340682 C23.2194961,63.6239431 23.2562684,63.6232681 23.2923782,63.6330557 C23.3410766,63.6462184 23.3877874,63.6782812 23.4321792,63.7292443 C23.4769023,63.7805448 23.5285823,63.8379205 23.5872192,63.9010336 C23.6458562,63.9638093 23.7170818,64.0262475 23.8005649,64.0880107 C23.8837167,64.1494363 23.9900583,64.1980369 24.1199209,64.2327998 C24.3090829,64.2837628 24.4671045,64.2790378 24.5936543,64.2189621 C24.7198727,64.1588864 24.8056748,64.0414352 24.8510605,63.8669458 C24.8772317,63.7663697 24.8729251,63.6776062 24.8378092,63.6013304 C24.802362,63.5250546 24.7490256,63.4548538 24.6768061,63.3900531 C24.6052491,63.3255899 24.5197784,63.2634892 24.4213876,63.2047636 C24.3229968,63.1460379 24.2226183,63.0829248 24.1205834,63.0164365 C24.0182173,62.9496108 23.9208203,62.876035 23.82773,62.7963842 C23.7346398,62.7160583 23.6577823,62.6225698 23.5968264,62.5155811 C23.5358705,62.4092674 23.4957854,62.2864161 23.4769023,62.1480396 C23.4580192,62.0089881 23.4725956,61.8469863 23.5206315,61.6616968 C23.5590603,61.5128577 23.6253167,61.3765062 23.7194008,61.2526424 C23.8131536,61.128441 23.9297649,61.0275274 24.0698973,60.9492266 C24.2096983,60.8709257 24.3693763,60.8209752 24.549925,60.7990375 C24.7301425,60.7764247 24.9255989,60.7939749 25.1362943,60.851013 C25.3724985,60.9141262 25.5812062,61.0103148 25.7630801,61.1385661 C25.9446227,61.267155 26.0877365,61.4163317 26.1920904,61.5857585 L25.8912862,61.9202246" id="Fill-18" fill="#333333"></path>
                        <path d="M29.3826014,62.4605016 C29.3510353,62.499686 29.3207845,62.5274835 29.2915202,62.5432242 C29.2625846,62.5592999 29.226744,62.5643235 29.1846559,62.5586301 C29.1442118,62.5529366 29.1024526,62.532842 29.0597068,62.4970067 C29.0169611,62.4618412 28.9663239,62.4233266 28.9087816,62.381128 C28.8505817,62.3389294 28.7835038,62.2977355 28.7065615,62.2572115 C28.6296192,62.2173572 28.5372227,62.1898947 28.4290431,62.1751586 C28.2386603,62.1487008 28.0897079,62.1724794 27.9828436,62.2461595 C27.8759793,62.3198396 27.8135048,62.4266757 27.7947625,62.5670028 C27.7829252,62.6567586 27.799037,62.7341227 27.8434268,62.8004348 C27.8881454,62.8664119 27.9499623,62.9263608 28.0295351,62.9812859 C28.1087791,63.0362111 28.200518,63.0877872 28.3044229,63.1360141 C28.4079991,63.184576 28.5138769,63.2368219 28.6223853,63.2927518 C28.7305648,63.3483468 28.8351274,63.4109749 28.9364019,63.4799662 C29.0373475,63.5489576 29.1248119,63.6303406 29.1991236,63.7241153 C29.2734354,63.8182249 29.3290049,63.9280752 29.3655031,64.0540012 C29.4020014,64.1799272 29.4089065,64.3272874 29.3865472,64.4970865 C29.3618862,64.6822915 29.3073032,64.8514208 29.2224694,65.0038047 C29.1379644,65.1568584 29.027812,65.2847938 28.8929986,65.3889507 C28.7575275,65.4931075 28.5980531,65.5674575 28.4135889,65.6123353 C28.2294535,65.6575481 28.0265758,65.6645812 27.8046269,65.6341045 C27.6783626,65.6166892 27.5537424,65.5862124 27.4317527,65.5430091 C27.309763,65.4994708 27.1933631,65.4465551 27.0832107,65.3832572 C26.9730583,65.320964 26.8707974,65.2499632 26.7770856,65.1702547 C26.683045,65.0908812 26.6028146,65.0058141 26.5367232,64.9147188 L26.8313398,64.5503372 C26.855672,64.5232095 26.8852652,64.5024451 26.920777,64.4870393 C26.9566176,64.4719683 26.9927871,64.4669447 27.0292853,64.4723032 C27.0789361,64.4786665 27.1285869,64.5047895 27.1785665,64.5496673 C27.2285461,64.5948801 27.2864173,64.6444467 27.3518511,64.699037 C27.4176137,64.7539622 27.4948848,64.806543 27.584322,64.8564445 C27.6737592,64.9070158 27.7845693,64.9411766 27.9167522,64.9595966 C28.1094367,64.9860545 28.2639789,64.9616061 28.3813652,64.8865863 C28.4987515,64.8112317 28.5691176,64.6849708 28.5924633,64.5078036 C28.6062734,64.4053213 28.591148,64.3185798 28.5474159,64.2475789 C28.5033549,64.176913 28.4421957,64.1142849 28.3636093,64.0596947 C28.2850229,64.0051044 28.1936129,63.9552029 28.0897079,63.9093203 C27.9854741,63.8637726 27.8792675,63.8145409 27.7704303,63.7612903 C27.6619219,63.7083746 27.5570305,63.6484257 27.4554272,63.5811089 C27.3544816,63.5137921 27.2673461,63.4314044 27.1943496,63.3339457 C27.1216818,63.236487 27.0674277,63.1209432 27.0322447,62.9866445 C26.996404,62.8526807 26.9914718,62.6909193 27.0164616,62.5027002 C27.0365192,62.3513211 27.0851836,62.2086496 27.1627835,62.0753556 C27.2403834,61.9410569 27.3429731,61.8265178 27.4715391,61.7320733 C27.5997762,61.6379637 27.7513591,61.5686374 27.9262877,61.5240945 C28.1008876,61.4795515 28.295545,61.4725184 28.51026,61.5019904 C28.7502936,61.5348116 28.9676392,61.603468 29.1619678,61.7069551 C29.3562964,61.810777 29.5147843,61.9397172 29.6384181,62.0934407 L29.3826014,62.4605016" id="Fill-19" fill="#333333"></path>
                        <path d="M33.4016488,64.2534814 L34.6426677,64.1743695 L34.1138709,62.8704496 C34.0828454,62.8016721 34.0497743,62.7222039 34.0146576,62.6299068 C33.9795408,62.5376096 33.9444241,62.4381853 33.9093074,62.3323465 C33.8891919,62.4442434 33.8673718,62.5483004 33.844188,62.6452303 C33.8206632,62.7421601 33.7981612,62.8266173 33.7753182,62.8982456 L33.4016488,64.2534814 Z M36.1864407,65.7362939 L35.5171769,65.7787007 C35.4425112,65.7836897 35.3808012,65.7690789 35.331706,65.7348684 C35.2826107,65.7010143 35.2451074,65.6554002 35.2185141,65.598739 L34.8884849,64.7855263 L33.2287926,64.8913651 L32.9959311,65.7409265 C32.979566,65.791886 32.9485405,65.8396382 32.9031956,65.8838268 C32.8578507,65.927659 32.7985273,65.9522478 32.7259072,65.9568805 L32.0508475,66 L33.4251736,61.5405154 L34.3068425,61.4842105 L36.1864407,65.7362939 L36.1864407,65.7362939 Z" id="Fill-20" fill="#333333"></path>
                        <path d="M40.0938321,62.9760376 C40.046457,62.7612788 39.9764094,62.5746514 39.8826743,62.4158123 C39.7892776,62.2569731 39.6776076,62.130039 39.547326,62.0346669 C39.4173827,61.9396379 39.2701814,61.876857 39.1067371,61.8463242 C38.9432929,61.8161345 38.7666513,61.8226527 38.5768123,61.8651928 L37.863478,62.0267764 L38.472587,64.7987425 L39.1862597,64.6375019 C39.3754219,64.5946188 39.5381894,64.5249766 39.6738853,64.4278891 C39.8099197,64.3314878 39.9165137,64.211072 39.9943443,64.0676708 C40.0721749,63.9246126 40.1198885,63.7613136 40.1381617,63.5770877 C40.1560966,63.3932048 40.1415457,63.1925117 40.0938321,62.9760376 Z M40.9523374,62.7822058 C41.0179858,63.0817017 41.0288145,63.3685041 40.9848232,63.6426131 C40.9404936,63.9167221 40.8477737,64.1640721 40.7063251,64.3863783 C40.5648764,64.6079983 40.378083,64.7983995 40.1459448,64.9575817 C39.9134682,65.1171069 39.6424147,65.2313476 39.3321075,65.301676 L37.7768491,65.6526316 L36.8757062,61.5526605 L38.4309645,61.2013618 C38.7412717,61.1310334 39.0349976,61.11834 39.3118038,61.1625954 C39.5889484,61.2068508 39.8380063,61.2994784 40.0589776,61.4401351 C40.2802872,61.5811349 40.4680958,61.7657039 40.6224034,61.9938422 C40.776711,62.2216374 40.886689,62.4847684 40.9523374,62.7822058 L40.9523374,62.7822058 Z" id="Fill-21" fill="#333333"></path>
                        <path d="M44.3896578,61.8123005 C44.4461721,61.8676367 44.5026863,61.925472 44.5581792,61.9861632 C44.5544343,61.9004814 44.5537534,61.8158706 44.5554556,61.7319738 C44.5568174,61.648434 44.5615837,61.5666793 44.5690735,61.4874236 L44.7716397,58.8748418 C44.7747037,58.836285 44.7815126,58.8045113 44.7920665,58.7791637 C44.8026204,58.7534592 44.8162383,58.7323957 44.8332606,58.7149024 C44.850283,58.697409 44.8710503,58.6824147 44.8959029,58.6692054 C44.9207556,58.6559961 44.9503745,58.6417158 44.985781,58.6256505 L45.5890536,58.3578947 L47.2146893,62.3835127 L46.5133679,62.6948234 L45.5155169,60.2232596 C45.4954306,60.1729215 45.4743228,60.1179423 45.4532151,60.057608 C45.4317669,59.9972738 45.4113401,59.9344404 45.3912537,59.868751 L45.1774528,62.5388111 C45.166218,62.6858982 45.0977881,62.7865743 44.9725035,62.8422675 L44.8615177,62.8918916 C44.7995563,62.9190242 44.7389567,62.9283064 44.679038,62.9190242 C44.6187788,62.909385 44.5629455,62.8815384 44.5108571,62.8347704 L42.5236663,61.1354141 C42.5543066,61.1964624 42.5835851,61.2557256 42.6115017,61.3142749 C42.639078,61.3728241 42.6635902,61.4281603 42.6846979,61.4799264 L43.6825488,63.9518472 L42.9815679,64.2631579 L41.3559322,60.2375399 L41.9592048,59.9697842 C41.992909,59.9547899 42.0232089,59.9422946 42.0504446,59.9326554 C42.0776804,59.9226592 42.103214,59.9173041 42.1267048,59.91659 C42.1501957,59.915876 42.174027,59.9208741 42.1978583,59.9305133 C42.2216896,59.9408666 42.247904,59.9580029 42.2765016,59.9826364 L44.217732,61.6527181 C44.2759484,61.7037702 44.3328031,61.7566073 44.3896578,61.8123005" id="Fill-22" fill="#333333"></path>
                        <polyline id="Fill-23" fill="#333333" points="49.2824859 61.0219935 48.5717621 61.4842105 46.5254237 57.7780065 47.2364727 57.3157895 49.2824859 61.0219935"></polyline>
                        <path d="M48.6942545,56.4240969 C48.7169391,56.4099486 48.7399728,56.4006313 48.7637045,56.3961453 C48.7870872,56.3913141 48.8125638,56.3899338 48.8387385,56.3916592 C48.8649131,56.3937297 48.8966717,56.399251 48.9333162,56.407533 L52.298677,57.229864 C52.2466767,57.1763762 52.1974684,57.1232336 52.150703,57.0707811 C52.1042866,57.0176384 52.0617092,56.9669113 52.0233197,56.9179096 L50.5212444,55.0109851 L51.1368719,54.5368421 L53.7627119,57.8706817 L53.4025488,58.1481279 C53.3484546,58.1895377 53.2957563,58.2161091 53.244803,58.2268066 C53.1938497,58.2381943 53.1334735,58.2361238 53.0640235,58.2205951 L49.7209984,57.4030953 C49.7677637,57.4527871 49.8127841,57.5028241 49.8553615,57.5521708 C49.8979389,57.6018627 49.9370264,57.6487938 49.9719259,57.6933095 L51.4904041,59.6205938 L50.8747765,60.0947368 L48.2485876,56.7612423 L48.6160795,56.4786199 C48.6453951,56.4561896 48.6712208,56.4375551 48.6942545,56.4240969" id="Fill-24" fill="#333333"></path>
                        <polyline id="Fill-25" fill="#333333" points="55.1412429 56.024749 54.5454103 56.6210526 51.6949153 53.7440037 52.290418 53.1473684 55.1412429 56.024749"></polyline>
                        <path d="M55.5175915,51.1304895 C55.5354432,51.1783523 55.5432979,51.2188517 55.5411557,51.2523222 C55.5386565,51.2861275 55.522947,51.319598 55.4936703,51.3530686 C55.4654647,51.3852003 55.4233348,51.4103032 55.3665665,51.4290467 C55.3101552,51.4474555 55.2462463,51.4708849 55.1748396,51.4986654 C55.103433,51.5267807 55.0277419,51.5632635 54.9474094,51.6087835 C54.867434,51.6543034 54.7896007,51.719571 54.7142667,51.8055903 C54.5814503,51.9568771 54.5178984,52.0981228 54.523968,52.2293273 C54.5296805,52.3605318 54.5907332,52.4709846 54.706769,52.5606856 C54.781389,52.618255 54.8613644,52.6450314 54.9466954,52.6413496 C55.0320263,52.6373332 55.1219987,52.6155773 55.2169695,52.5754127 C55.3119404,52.535248 55.4111956,52.483034 55.5143782,52.4191053 C55.6175608,52.3545071 55.7253849,52.2902437 55.8378504,52.2259802 C55.9503158,52.1613821 56.0667087,52.1034781 56.1870289,52.0526028 C56.3069921,52.0013929 56.4312396,51.9682571 56.5587005,51.9531953 C56.6861614,51.9384683 56.8175496,51.9485095 56.9525082,51.9829841 C57.0874667,52.0174588 57.2252816,52.088751 57.3666667,52.197865 C57.519834,52.3163507 57.6419394,52.4522411 57.7322688,52.6058709 C57.8222412,52.7595006 57.8757962,52.9225022 57.8929338,53.0938713 C57.9100714,53.2655752 57.8861501,53.4429691 57.8218841,53.6260529 C57.7572611,53.8094715 57.648009,53.9888736 57.4934136,54.1649286 C57.4055834,54.2650055 57.3070422,54.3567148 57.197433,54.439387 C57.0885378,54.522394 56.9742872,54.5950251 56.854324,54.657615 C56.7343609,54.7202049 56.6118985,54.7710801 56.4858657,54.8102406 C56.36019,54.8500706 56.2373706,54.8748388 56.1170504,54.8842105 L55.9549573,54.4377135 C55.9442463,54.4029042 55.9421041,54.3654172 55.9485307,54.326926 C55.9553143,54.2881002 55.9713808,54.2539603 55.9970872,54.2248409 C56.0313624,54.1856804 56.0834892,54.1562263 56.1527537,54.1364787 C56.2220181,54.1170657 56.3002084,54.0933017 56.3869675,54.0651864 C56.4740836,54.0370712 56.5658412,53.9975759 56.6625972,53.9467007 C56.7593532,53.8958255 56.853967,53.8181738 56.9457245,53.7130763 C57.079612,53.5604507 57.1460202,53.4138497 57.1453061,53.272604 C57.143878,53.1316931 57.0699721,53.0041703 56.9221603,52.8907052 C56.8371864,52.8247682 56.7500703,52.7923018 56.660812,52.7929712 C56.5719107,52.7936406 56.4801532,52.8140576 56.3855394,52.8532182 C56.2912826,52.8927134 56.1934555,52.9452621 56.0927721,53.0111991 C55.9917317,53.0774708 55.8864069,53.1434077 55.7764406,53.2096794 C55.6657603,53.2759511 55.5515097,53.3351939 55.4329746,53.387408 C55.3140826,53.4399567 55.189478,53.4717537 55.0595179,53.4834684 C54.9295578,53.4955178 54.7935281,53.4817949 54.6517859,53.4416303 C54.5100437,53.4014656 54.3608038,53.321471 54.2040662,53.2006424 C54.0783905,53.1039125 53.976993,52.9864309 53.8998739,52.848867 C53.8231117,52.7116378 53.7781255,52.5626939 53.7659864,52.4017006 C53.7534902,52.241042 53.7766974,52.0733546 53.836679,51.8983037 C53.8963035,51.7239221 54.0005572,51.5515489 54.1501542,51.3811838 C54.3172457,51.1910711 54.5036171,51.0387802 54.7085542,50.9249803 C54.9134913,50.8115152 55.1212846,50.7418965 55.3312202,50.7157895 L55.5175915,51.1304895" id="Fill-26" fill="#333333"></path>
                        <polyline id="Fill-27" fill="#333333" points="56.9665015 46.8947368 57.5791707 47.2815931 56.9055887 48.3619383 59.9661017 50.2958632 59.4880072 51.0631579 56.4274942 49.1295896 55.7539122 50.2099348 55.1412429 49.8230785 56.9665015 46.8947368"></polyline>
                        <path d="M59.3641867,46.5338067 L59.5457696,46.1159844 C59.6033447,45.9835385 59.6367314,45.8616884 59.6459298,45.7504339 C59.6554689,45.6395326 59.6449078,45.5399334 59.6149279,45.4516362 C59.5849479,45.3636922 59.537934,45.2870502 59.4735453,45.2220634 C59.4091566,45.1574299 59.3314814,45.1037452 59.2405196,45.0610093 C59.0606401,44.9773036 58.8940471,44.9741249 58.7404001,45.0518264 C58.586753,45.1291748 58.4549095,45.2944672 58.3448696,45.5487631 L58.1609019,45.9725897 L59.3641867,46.5338067 Z M59.9171118,46.7923409 L61.3670496,47.4690507 L61.0130821,48.2842105 L57.2090395,46.5087303 L57.7473153,45.2693907 C57.8668943,44.9942567 57.996353,44.7713945 58.1367136,44.6011575 C58.2767334,44.4316269 58.4225448,44.306598 58.5748292,44.2274837 C58.7271135,44.1480162 58.883486,44.1112846 59.0439467,44.1162292 C59.2047481,44.1215271 59.3662308,44.1621438 59.5290763,44.2377262 C59.6544468,44.2967087 59.7658495,44.3708784 59.8626028,44.4605883 C59.9590155,44.5506515 60.0383942,44.6523699 60.1003981,44.7660967 C60.1620613,44.8801767 60.2066905,45.0052055 60.2332636,45.1422428 C60.2601774,45.2785737 60.2663097,45.4244406 60.2520011,45.5787842 C60.3027625,45.5395802 60.3576122,45.5056741 60.4172313,45.4777721 C60.4765098,45.4498702 60.5412391,45.430798 60.6110787,45.419496 L62.3785311,45.1397704 L62.0582911,45.8765223 C61.9990126,46.0139128 61.9049847,46.0898484 61.7768887,46.1039759 L60.2843658,46.309885 C60.225428,46.3194211 60.177392,46.3377869 60.1402578,46.3653357 C60.1034642,46.3928844 60.0690555,46.4423308 60.0377128,46.5147345 L59.9171118,46.7923409 L59.9171118,46.7923409 Z" id="Fill-28" fill="#333333"></path>
                        <path d="M61.7839289,42.553805 L62.1307364,41.3028866 L60.7431565,41.3945041 C60.6693155,41.4019904 60.583576,41.4084072 60.486288,41.4123286 C60.3889999,41.4166064 60.2850626,41.4187454 60.1748261,41.4183889 C60.2714143,41.475427 60.3606533,41.5310393 60.4428933,41.586295 C60.5247832,41.6408377 60.5951246,41.6914591 60.6539174,41.7374462 L61.7839289,42.553805 Z M64.1016949,40.2947368 L63.9144679,40.9692132 C63.8938204,41.0440759 63.8588247,41.100401 63.8108806,41.1378324 C63.7625865,41.1749072 63.7079932,41.1973659 63.6464007,41.2044957 L62.7806068,41.2618904 L62.3165637,42.9352478 L63.0248769,43.445383 C63.0668717,43.4781799 63.1008176,43.5245234 63.1263644,43.5837005 C63.1515613,43.6432341 63.154361,43.7098975 63.1340635,43.7829777 L62.9450866,44.4631579 L59.2768362,41.6347774 L59.523206,40.7460514 L64.1016949,40.2947368 L64.1016949,40.2947368 Z" id="Fill-29" fill="#333333"></path>
                        <polyline id="Fill-30" fill="#333333" points="60.4499289 35.7789474 61.1460335 35.882912 60.9675275 37.1262732 64.4463277 37.6446916 64.3198572 38.5273376 60.841057 38.0092704 60.6625509 39.2526316 59.9661017 39.1486669 60.4499289 35.7789474"></polyline>
                        <polyline id="Fill-31" fill="#333333" points="64.4463277 34.2102975 64.4121354 35.0842105 60.3107345 34.9163616 60.3445916 34.0421053 64.4463277 34.2102975"></polyline>
                        <path d="M62.4367916,29.4224177 C62.2082747,29.4421932 62.0058638,29.4900138 61.8295589,29.5662391 C61.653254,29.6424645 61.5066312,29.7427799 61.3889754,29.8679045 C61.2713196,29.9926695 61.1858493,30.1390078 61.1325645,30.3069193 C61.0792796,30.4748308 61.0613988,30.6617986 61.078922,30.8674631 C61.0964452,31.0727682 61.1457963,31.2543427 61.2269752,31.4118271 C61.3081541,31.5693115 61.4172271,31.6998294 61.5541942,31.8026617 C61.6911613,31.905494 61.852804,31.9792025 62.0394797,32.0241467 C62.2257979,32.0690909 62.433573,32.0813157 62.6620899,32.0618998 C62.8927525,32.0417648 63.0958787,31.9939442 63.2721836,31.9177188 C63.4484885,31.8414935 63.5947536,31.7411781 63.7113366,31.616413 C63.8279195,31.491648 63.9130322,31.3445906 63.9663171,31.17596 C64.0196019,31.0066103 64.0371251,30.819283 64.0196019,30.6136184 C64.0020787,30.4079538 63.9530853,30.2270984 63.8719063,30.0706926 C63.7907274,29.9142869 63.6823696,29.7844881 63.5461178,29.6816558 C63.4102235,29.5788235 63.2489385,29.5047555 63.0622627,29.4601708 C62.8759446,29.4152267 62.6670966,29.4026423 62.4367916,29.4224177 Z M62.3577584,28.4944102 C62.6763946,28.4667246 62.9767924,28.4954889 63.2585942,28.5796244 C63.5403959,28.6641195 63.7889393,28.795716 64.0042244,28.9751332 C64.2191519,29.1545504 64.3950992,29.3774735 64.5320663,29.6435431 C64.6690334,29.9099722 64.7516428,30.2116376 64.7806097,30.5481797 C64.809219,30.8850813 64.778464,31.1957355 64.6890599,31.48194 C64.5992982,31.767785 64.4634039,32.0180343 64.2820924,32.2326877 C64.1004232,32.4473411 63.8779858,32.6202863 63.6144225,32.7515234 C63.3512168,32.8831199 63.060117,32.9622217 62.7411232,32.9899073 C62.4224869,33.0172334 62.1228044,32.9891882 61.8420755,32.9043336 C61.5613466,32.8198385 61.3131608,32.6875228 61.0978757,32.5073865 C60.8822329,32.3268907 60.7062857,32.103608 60.5696762,31.8375384 C60.4327091,31.5707497 60.3500997,31.2694439 60.3211328,30.9329019 C60.2925234,30.5963598 60.3229208,30.2849865 60.4126826,29.9991415 C60.5024443,29.7132965 60.6386962,29.4634068 60.8214382,29.2498321 C61.0038225,29.0362573 61.2266176,28.8636716 61.4887504,28.7324346 C61.7512409,28.6011976 62.0409102,28.5217363 62.3577584,28.4944102 L62.3577584,28.4944102 Z" id="Fill-32" fill="#333333"></path>
                        <path d="M59.7691484,27.2643111 C59.7648946,27.2386109 59.7652491,27.2142634 59.7698574,27.1912685 C59.7748202,27.1686118 59.7829734,27.1459551 59.795026,27.1229602 C59.8070786,27.0999653 59.8244485,27.0735888 59.8467812,27.0441689 L61.939321,24.3426082 C61.868778,24.3686465 61.798944,24.392994 61.7308824,24.4146363 C61.6628208,24.4366167 61.5979496,24.4555536 61.5362687,24.4717853 L59.1417055,25.0980577 L58.9322034,24.3686465 L63.117992,23.2736842 L63.2406447,23.700104 C63.2590781,23.7643545 63.2636864,23.8215035 63.2541153,23.871213 C63.2448986,23.9212607 63.219021,23.9743519 63.1775459,24.0304864 L61.0981221,26.7137865 C61.1640568,26.6904535 61.228928,26.6691494 61.2923813,26.6495361 C61.3558346,26.630261 61.4153885,26.6130148 61.4713975,26.5984739 L63.8918383,25.9651001 L64.1016949,26.6945114 L59.9155518,27.7894737 L59.7904177,27.354938 C59.780492,27.3197694 59.7734023,27.2896731 59.7691484,27.2643111" id="Fill-33" fill="#333333"></path>
                        <path d="M12.3242668,11.7746136 C12.4272218,11.6776737 12.503319,11.5727993 12.552214,11.4610252 C12.6014534,11.3492511 12.6241793,11.2347172 12.620736,11.1181133 C12.6172927,11.0011645 12.5876802,10.8835257 12.5322428,10.765197 C12.4768055,10.6468682 12.3958877,10.5312993 12.2894893,10.4184903 L10.5664557,8.58905199 L11.2003696,7.98947368 L12.9234031,9.81925697 C13.0990121,10.0052021 13.2305466,10.2046016 13.3173181,10.4174554 C13.4044339,10.6299641 13.4454093,10.8455777 13.4402443,11.0636062 C13.435768,11.2819797 13.3834297,11.4979382 13.2842623,11.7118269 C13.1847506,11.9260606 13.0349665,12.12753 12.83491,12.31658 C12.6348535,12.505975 12.4248115,12.6443127 12.2051281,12.731938 C11.9854448,12.8195634 11.7667945,12.8595813 11.5488328,12.8516467 C11.3312154,12.8440571 11.1191074,12.7905849 10.9125086,12.6912302 C10.7055656,12.5918754 10.5144617,12.449053 10.3388528,12.2627628 L8.61581921,10.4333245 L9.24973304,9.83374621 L10.9727666,11.6631845 C11.079165,11.7759935 11.1896953,11.8639639 11.3043576,11.9260606 C11.4190199,11.9885023 11.5347152,12.0247254 11.6510992,12.0350749 C11.7667945,12.0454243 11.8821454,12.0292102 11.9964634,11.9864324 C12.1107814,11.9439997 12.2199344,11.8729334 12.3242668,11.7746136" id="Fill-34" fill="#333333"></path>
                        <path d="M13.2272758,6.58737552 C13.2514061,6.57522825 13.2755363,6.56759283 13.3000215,6.56446925 C13.3241518,6.56134566 13.3497015,6.56169273 13.3763158,6.56516338 C13.40293,6.56898109 13.4345123,6.57626945 13.4707077,6.58772258 L16.8262364,7.64522885 C16.7769112,7.58796316 16.7307798,7.53104455 16.6874873,7.47516712 C16.6438398,7.4192897 16.6044507,7.3651476 16.5686101,7.31343495 L15.1814738,5.29629469 L15.8397337,4.86315789 L18.2655367,8.38933565 L17.8801619,8.64269291 C17.8223202,8.68052296 17.7669625,8.70342924 17.7144437,8.71106466 C17.6619248,8.71870008 17.6008894,8.71210585 17.5316923,8.6919761 L14.1988745,7.640717 C14.2428768,7.69416497 14.2847499,7.74726588 14.3248488,7.79967265 C14.3645928,7.8524265 14.4004333,7.90240382 14.4327253,7.94925756 L15.8354754,9.9882629 L15.1768606,10.4210526 L12.7514124,6.89522194 L13.1438844,6.63700578 C13.1754666,6.61618189 13.2035004,6.59986985 13.2272758,6.58737552" id="Fill-35" fill="#333333"></path>
                        <polyline id="Fill-36" fill="#333333" points="19.9887006 7.24322156 19.1877742 7.64210526 17.2316384 3.87256792 18.0325648 3.47368421 19.9887006 7.24322156"></polyline>
                        <polyline id="Fill-37" fill="#333333" points="22.392591 1.73684211 22.6419289 2.41760567 21.5004395 2.87418491 22.7457627 6.27586087 21.9355854 6.6 20.6902622 3.19796706 19.5487729 3.6545463 19.299435 2.97378273 22.392591 1.73684211"></polyline>
                        <g id="Group-41" transform="translate(23.435028, 0.000000)">
                            <mask id="mask-4" fill="white">
                                <use xlink:href="#path-3"></use>
                            </mask>
                            <g id="Clip-39"></g>
                            <polyline id="Fill-38" fill="#0D465C" mask="url(#mask-4)" points="2.86458757 0.745452632 3.02346328 1.41517895 1.26376836 1.83896842 1.51569492 2.90226316 2.8849209 2.57261053 3.03828249 3.22010526 1.6690565 3.54941053 1.92649718 4.63597895 3.68619209 4.21253684 3.84472316 4.88261053 1.23102825 5.51169474 0.250892655 1.37453684 2.86458757 0.745452632"></polyline>
                            <path d="M7.49335028,2.32424211 C7.47370621,2.10192632 7.42718079,1.90531579 7.35377401,1.73336842 C7.2800226,1.56142105 7.18352542,1.419 7.06462712,1.30610526 C6.94572881,1.19321053 6.80546328,1.11053684 6.64417514,1.05843158 C6.48288701,1.00597895 6.30367797,0.988610526 6.10689266,1.00632632 L5.36524294,1.07302105 L5.61785876,3.93742105 L6.35985311,3.87072632 C6.55663842,3.85301053 6.7299887,3.80472632 6.87990395,3.72552632 C7.02947458,3.64632632 7.15285311,3.54037895 7.25038418,3.40698947 C7.34722599,3.2736 7.41718644,3.11589474 7.45957627,2.93352632 C7.50162147,2.75115789 7.51299435,2.54794737 7.49335028,2.32424211 Z M8.38560452,2.244 C8.41283051,2.55350526 8.38629379,2.84286316 8.30599435,3.11207368 C8.22535028,3.38128421 8.09955932,3.61749474 7.92758757,3.8214 C7.75596045,4.02530526 7.54228814,4.19134737 7.28691525,4.32022105 C7.03188701,4.44909474 6.74308475,4.52794737 6.42016384,4.55677895 L4.80383616,4.70197895 L4.4299096,0.465126316 L6.04623729,0.319926316 C6.36881356,0.291094737 6.6669209,0.317494737 6.94090395,0.398778947 C7.21454237,0.480063158 7.45406215,0.606505263 7.65877401,0.777410526 C7.86383051,0.948663158 8.02925424,1.15882105 8.15538983,1.40823158 C8.28187006,1.65798947 8.35837853,1.93657895 8.38560452,2.244 L8.38560452,2.244 Z" id="Fill-40" fill="#0D465C" mask="url(#mask-4)"></path>
                        </g>
                        <path d="M37.3115675,1.30232203 C37.280477,1.34247451 37.2500551,1.37024665 37.2206361,1.38697685 C37.1912172,1.40337244 37.1551121,1.40906071 37.1123209,1.40404165 C37.0712012,1.39902259 37.02841,1.37961556 36.9842815,1.34515135 C36.9401531,1.31035253 36.8880013,1.27287688 36.8284947,1.23138598 C36.7686539,1.19056429 36.6997868,1.15074642 36.6205561,1.11226696 C36.5419941,1.07345289 36.4473854,1.04802299 36.3373986,1.03497343 C36.1431666,1.01222036 35.9920601,1.03865407 35.885082,1.11427458 C35.7774354,1.18989509 35.715923,1.29763758 35.699542,1.43783666 C35.6891785,1.52784513 35.7068967,1.60513866 35.7533653,1.67038644 C35.7998339,1.73529962 35.8636864,1.79452453 35.9455915,1.84772657 C36.0274966,1.9009286 36.1214367,1.95045 36.2277461,1.99729456 C36.3340555,2.04380452 36.4427051,2.09399512 36.5540292,2.14753176 C36.6650189,2.201403 36.7726655,2.26196633 36.8766348,2.32888713 C36.9806041,2.39580793 37.0708669,2.47577829 37.148426,2.568129 C37.2256507,2.6604797 37.2838201,2.76922601 37.3232682,2.8940333 C37.3627164,3.0191752 37.3724113,3.16673557 37.3526872,3.33671441 C37.3309573,3.52175042 37.2784712,3.69172926 37.1952289,3.84598171 C37.1119866,3.99989955 37.0026684,4.13039512 36.86694,4.23679919 C36.7315459,4.34320327 36.5704102,4.42049679 36.3838672,4.46867977 C36.1976585,4.51719735 35.9913915,4.52823928 35.7654003,4.50180557 C35.636358,4.48674839 35.5093216,4.45864165 35.3846253,4.41748536 C35.2595947,4.37632906 35.1405816,4.32546925 35.0272518,4.26490593 C34.9142562,4.2043426 34.809284,4.13507957 34.7123351,4.05745144 C34.6150519,3.97982331 34.532144,3.89617231 34.4632768,3.80683304 L34.7561293,3.43709561 C34.7801993,3.40965808 34.8099526,3.38790882 34.8460577,3.37218243 C34.8818285,3.35645604 34.9186022,3.35076778 34.9560445,3.35545223 C35.0065248,3.3611405 35.0576736,3.3859012 35.1091568,3.43006893 C35.1609743,3.47390205 35.2204809,3.52275424 35.2880108,3.57595627 C35.355875,3.62949291 35.4354399,3.68035272 35.5273742,3.72920491 C35.6193084,3.77772249 35.732304,3.80984448 35.8670295,3.82557086 C36.062933,3.84865854 36.220057,3.82155562 36.3377329,3.74426209 C36.4557431,3.66696856 36.5249445,3.53948444 36.5456715,3.36180971 C36.5577065,3.25942088 36.5409912,3.17275844 36.4948569,3.1028262 C36.4490569,3.03322857 36.385873,2.97199604 36.3049709,2.918794 C36.2240687,2.86592657 36.1304629,2.81740898 36.0234849,2.77357586 C35.9168411,2.72974273 35.8078572,2.68256357 35.6965332,2.63170376 C35.5852092,2.58084395 35.4775625,2.52262285 35.3732589,2.45737507 C35.2689553,2.39212729 35.1790269,2.31148772 35.1031393,2.21545637 C35.0272518,2.11942502 34.9700854,2.00465585 34.9316401,1.87114885 C34.8931949,1.73797645 34.8851715,1.57669732 34.9072358,1.38798066 C34.924954,1.23640504 34.9717569,1.09319453 35.0483131,0.958014508 C35.1245349,0.823169092 35.227167,0.707061501 35.355875,0.610360942 C35.4845829,0.513660384 35.637361,0.441385918 35.8142091,0.393872149 C35.9910572,0.346023775 36.1886322,0.335316447 36.4072686,0.360746352 C36.6523152,0.389522297 36.8742947,0.453766266 37.0735413,0.553812865 C37.2731223,0.653859464 37.4369324,0.779670571 37.5649718,0.930911583 L37.3115675,1.30232203" id="Fill-42" fill="#333333"></path>
                        <polyline id="Fill-43" fill="#333333" points="42.3898305 1.48853984 42.2175663 2.15798375 41.009281 1.86533437 40.1493521 5.21052632 39.2915113 5.00236001 40.1517882 1.65716806 38.9435028 1.36418075 39.115767 0.694736842 42.3898305 1.48853984"></polyline>
                        <path d="M42.9027695,4.80380059 L44.0363148,5.26416481 L44.0824319,3.89342516 C44.0817635,3.82026383 44.084437,3.73571418 44.0894497,3.63977621 C44.0947966,3.54383824 44.102817,3.44203355 44.113845,3.33367196 C44.051353,3.42305302 43.990866,3.50518697 43.93205,3.5804189 C43.8728998,3.65565084 43.8194307,3.71983955 43.7706401,3.77333015 L42.9027695,4.80380059 Z M44.7902293,7.29473684 L44.1790105,7.0462644 C44.1108374,7.01865635 44.0613784,6.97931488 44.031302,6.92858509 C44.0012257,6.8778553 43.9858533,6.821949 43.9845166,6.76086619 L44.0132562,5.90570686 L42.4964042,5.28970226 L41.9530243,5.93607571 C41.9186035,5.97438188 41.8721522,6.00302523 41.8143387,6.02200577 C41.7565253,6.0413314 41.6943674,6.03753529 41.6278652,6.01061745 L41.0112994,5.7604195 L43.9965471,2.43157895 L44.8022599,2.75873433 L44.7902293,7.29473684 L44.7902293,7.29473684 Z" id="Fill-44" fill="#333333"></path>
                        <polyline id="Fill-45" fill="#333333" points="49.9717514 5.14214991 49.6393702 5.77760349 48.5874459 5.16206339 46.9278925 8.33684211 46.180791 7.8998122 47.8400083 4.72467788 46.788084 4.10913779 47.1201291 3.47368421 49.9717514 5.14214991"></polyline>
                        <polyline id="Fill-46" fill="#333333" points="53.4180791 7.4617289 52.9985571 7.99700536 51.4949733 6.94962313 50.8290089 7.7995508 51.9985421 8.61489035 51.5929092 9.13236904 50.423376 8.31669368 49.7428102 9.18509075 51.2460379 10.2328088 50.8261598 10.7684211 48.5932203 9.21195531 51.1847835 5.90526316 53.4180791 7.4617289"></polyline>
                        <path d="M55.7208215,10.7823763 C55.6685231,10.7951676 55.6247633,10.799207 55.5891862,10.7944944 C55.5536091,10.7894451 55.519455,10.7719412 55.4867241,10.7416459 C55.4547047,10.7123605 55.4315796,10.6706204 55.4166372,10.6157523 C55.4016948,10.5612208 55.3821274,10.4992838 55.3586465,10.4299412 C55.3348098,10.3605987 55.3020789,10.2865436 55.2604536,10.2071027 C55.2188284,10.128335 55.1555012,10.0499039 55.0711834,9.97214601 C54.9217595,9.83480744 54.7769607,9.76344525 54.6374984,9.75805942 C54.4980361,9.75267359 54.3760066,9.80080942 54.2717656,9.9028035 C54.2045249,9.96810664 54.1696593,10.0408153 54.1668131,10.1216027 C54.1636112,10.2017169 54.1796209,10.2882267 54.2144865,10.3807956 C54.2493521,10.4733645 54.2963138,10.5709826 54.3560834,10.6733133 C54.4154972,10.7753074 54.474911,10.882014 54.533969,10.9927601 C54.593027,11.1038428 54.6446138,11.2179549 54.6890852,11.3354333 C54.7332008,11.452575 54.7584606,11.5717364 54.7637971,11.6929175 C54.7691337,11.813762 54.7481432,11.9362895 54.7008256,12.0605001 C54.6527965,12.1840375 54.5656326,12.3082482 54.4389781,12.4314489 C54.3009389,12.5660946 54.14689,12.6694351 53.9764756,12.7414706 C53.806417,12.813506 53.6295987,12.8505335 53.4463766,12.8525532 C53.2631544,12.8545729 53.0774419,12.8175453 52.8885274,12.7421438 C52.6999687,12.666069 52.5185254,12.5485906 52.3449091,12.3890355 C52.245649,12.2978131 52.1567062,12.1978387 52.077725,12.0884391 C51.9987438,11.9790395 51.9311473,11.8656006 51.8749355,11.7477856 C51.8187236,11.6299707 51.774608,11.5104726 51.7429444,11.3889549 C51.7112807,11.2674372 51.695271,11.1499589 51.6949153,11.0361833 L52.1816102,10.9207247 C52.2196777,10.9136558 52.2588125,10.9146656 52.2993704,10.9240908 C52.3399283,10.9338526 52.3744381,10.9513565 52.4032556,10.9776125 C52.4420347,11.0136302 52.4687175,11.0647955 52.4840156,11.1314451 C52.4993138,11.1984313 52.5181697,11.2734963 52.5405833,11.3576498 C52.5633526,11.4414667 52.5978624,11.5313427 52.6437569,11.6262679 C52.6896514,11.7215297 52.7647191,11.8167915 52.8678927,11.9113801 C53.0187397,12.0500651 53.1688751,12.1244568 53.318299,12.1348919 C53.4680786,12.1456635 53.6086082,12.0864194 53.7413109,11.9574962 C53.8181574,11.8827679 53.8594269,11.8036636 53.8658308,11.71951 C53.8725904,11.6360297 53.8587153,11.5478368 53.8249171,11.4559411 C53.7907631,11.3640455 53.7427339,11.2681105 53.6811855,11.1677994 C53.6196371,11.0674884 53.557733,10.963138 53.4965403,10.8540751 C53.4353477,10.7450121 53.3823378,10.632583 53.3364433,10.5167877 C53.2905488,10.4009924 53.2667122,10.2814944 53.2649333,10.1582936 C53.2631544,10.0350929 53.28877,9.90852594 53.3428472,9.77825627 C53.3965686,9.64832321 53.4940499,9.51502401 53.6349353,9.37768544 C53.7477147,9.26761262 53.8800616,9.18177601 54.0319759,9.12084885 C54.1838902,9.05992169 54.3454103,9.02996303 54.516892,9.0316461 C54.6880179,9.03332917 54.8637688,9.06934689 55.0441448,9.13969924 C55.224165,9.2100516 55.3984928,9.32248072 55.5664168,9.47698661 C55.7546198,9.64933305 55.9004859,9.83682713 56.0040153,10.0391322 C56.1079005,10.2411007 56.1644681,10.4420594 56.1751412,10.6413349 L55.7208215,10.7823763" id="Fill-47" fill="#333333"></path>
                        <polyline id="Fill-48" fill="#333333" points="52.3841808 48.9789474 45.5373479 48.9789474 45.5373479 19.5605316 36.3185543 19.521263 36.3185543 33.0842108 31.936114 33.0842108 31.936114 17.1741839 26.2555036 15.074184 26.2555036 35.655086 23.4657096 35.655086 23.4657096 25.3013883 20.4267961 21.8686896 17.3878826 25.3013883 17.3878826 44.7056232 9.64971751 44.7056232 9.64971751 43.8809832 16.5728325 43.8809832 16.5728325 24.9858497 20.4267961 20.6325983 24.2807596 24.9858497 24.2807596 34.830446 25.4401099 34.830446 25.4401099 13.8947368 32.751164 16.5980132 32.751164 32.2599183 35.5035043 32.2599183 35.5035043 18.6934954 46.352398 18.7393666 46.352398 48.1543074 52.3841808 48.1543074 52.3841808 48.9789474"></polyline>
                        <polyline id="Fill-49" fill="#333333" points="20.7910082 48.9789474 12.0621469 48.9789474 12.0621469 48.1566822 19.9763053 48.1566822 19.9763053 29.6437603 30.0828113 26.1467942 30.1034193 34.9214348 37.7259745 34.9214348 38.2978465 21.5368421 40.1639007 21.5368421 40.7261556 36.9994476 41.139346 36.9994476 41.7459081 21.5368421 43.6174579 21.5368421 44.0083229 37.0389496 49.0785775 37.0389496 49.0785775 43.8956643 54.7966102 43.8956643 54.7966102 44.7179295 48.2638746 44.7179295 48.2638746 37.8612148 43.214228 37.8612148 42.8230195 22.3587608 42.5290121 22.3587608 41.92245 37.8217128 39.940304 37.8217128 39.3783925 22.3587608 39.0785462 22.3587608 38.5066742 35.7440465 29.2907772 35.7440465 29.2708561 27.2968567 20.7910082 30.2307461 20.7910082 48.9789474"></polyline>
                        <path d="M32.2233364,8.11832871 C18.5166259,8.11832871 7.36546809,19.3580786 7.36546809,33.1736842 C7.36546809,46.9892898 18.5166259,58.2290397 32.2233364,58.2290397 C45.930047,58.2290397 57.0812048,46.9892898 57.0812048,33.1736842 C57.0812048,19.3580786 45.930047,8.11832871 32.2233364,8.11832871 Z M32.2233364,59.0526316 C18.0661333,59.0526316 6.5480226,47.4433614 6.5480226,33.1736842 C6.5480226,18.904007 18.0661333,7.29473684 32.2233364,7.29473684 C46.3805396,7.29473684 57.8983051,18.904007 57.8983051,33.1736842 C57.8983051,47.4433614 46.3805396,59.0526316 32.2233364,59.0526316 L32.2233364,59.0526316 Z" id="Fill-50" fill="#333333"></path>
                        <polyline id="Fill-51" fill="#333333" points="5.85892671 15.2842105 6.39129731 16.4277215 7.5819209 16.6111147 6.72042381 17.5011115 6.92366791 18.7578947 5.85892671 18.1645636 4.79384622 18.7578947 4.99709031 17.5011115 4.13559322 16.6111147 5.32621681 16.4277215 5.85892671 15.2842105"></polyline>
                        <polyline id="Fill-52" fill="#333333" points="58.5875706 15.2842105 59.1198888 16.4277215 60.3107345 16.6111147 59.4493222 17.5011115 59.6525463 18.7578947 58.5875706 18.1645636 57.522595 18.7578947 57.7261583 17.5011115 56.8644068 16.6111147 58.0552524 16.4277215 58.5875706 15.2842105"></polyline>
                    </g>
                </g>
            </g>
        </g>
    </g>
</svg>