<?xml version="1.0" encoding="UTF-8" standalone="no"?>
<svg width="122px" height="37px" viewBox="0 0 122 37" version="1.1" xmlns="http://www.w3.org/2000/svg" xmlns:xlink="http://www.w3.org/1999/xlink">
    <!-- Generator: Sketch 41.2 (35397) - http://www.bohemiancoding.com/sketch -->
    <title>SBA Logo Color Mobile</title>
    <desc>Created with Sketch.</desc>
    <defs></defs>
    <g id="Homepage" stroke="none" stroke-width="1" fill="none" fill-rule="evenodd">
        <g id="Mobile" transform="translate(-20.000000, -12.000000)">
            <g id="mobile-header">
                <g id="SBA-Logo-Color-Mobile" transform="translate(20.000000, 12.000000)">
                    <g id="SBA-Horizontal_full-color">
                        <path d="M62.4001316,7.99649393 C62.2398308,8.31586235 62.0538722,8.54053998 61.8429887,8.67125709 C61.6318609,8.80173077 61.3801692,8.86696761 61.0891353,8.86696761 C60.7976128,8.86696761 60.4699248,8.75475051 60.1060714,8.52982945 C59.7417293,8.3049084 59.3118985,8.05442814 58.8168233,7.77887551 C58.3212594,7.50332287 57.7426128,7.25284261 57.0796617,7.02792156 C56.4167105,6.80300051 55.6337782,6.69053998 54.7308647,6.69053998 C53.9149436,6.69053998 53.2048308,6.78839524 52.600282,6.98434919 C51.9959774,7.18030314 51.4859962,7.45220445 51.0710714,7.80053998 C50.6556579,8.14863209 50.3460526,8.56609919 50.1422556,9.05196761 C49.9382143,9.53832287 49.8365602,10.0716584 49.8365602,10.6517308 C49.8365602,11.3919742 50.0440226,12.0088031 50.4591917,12.5019742 C50.8743609,12.9953887 51.4239286,13.4160202 52.1088722,13.7643558 C52.7933271,14.1126913 53.5728383,14.4247571 54.4466729,14.7003097 C55.3209962,14.9763492 56.2129135,15.269915 57.1234023,15.5817373 C58.0336466,15.8940466 58.9260526,16.2565005 59.8001316,16.6700729 C60.6739662,17.0838887 61.4532331,17.6060268 62.1379323,18.2372176 C62.8226316,18.8686518 63.3724436,19.6412702 63.7878571,20.5553163 C64.202782,21.4696058 64.4104887,22.5798492 64.4104887,23.8855597 C64.4104887,25.3078689 64.1663722,26.6391387 63.6786278,27.8796123 C63.1903947,29.1203295 62.4766165,30.2016058 61.5370489,31.122711 C60.5974812,32.0445466 59.4504511,32.7699413 58.0957143,33.2993821 C56.7409774,33.8290663 55.1895301,34.0941518 53.4418609,34.0941518 C52.4365602,34.0941518 51.4459211,33.9960531 50.470188,33.8003426 C49.4939662,33.6041452 48.5580639,33.3249413 47.6622368,32.9620005 C46.7664098,32.5995466 45.9287406,32.1643097 45.1494737,31.65629 C44.3699624,31.1482702 43.6747556,30.5825597 43.0628759,29.9584281 L44.7672932,27.1505663 C44.9271053,26.9475531 45.1201504,26.7771584 45.3461842,26.6391387 C45.5719737,26.5013623 45.8229323,26.4322308 46.1000376,26.4322308 C46.463891,26.4322308 46.857312,26.5812045 47.2800564,26.8784216 C47.702312,27.1761255 48.2010526,27.5064479 48.7765226,27.8686584 C49.3519925,28.2318426 50.0293609,28.5619216 50.8086278,28.8593821 C51.5878947,29.1565992 52.5240414,29.3055729 53.6165789,29.3055729 C55.2914286,29.3055729 56.5880075,28.9102571 57.5058271,28.1191387 C58.4234023,27.3285071 58.882312,26.1929479 58.882312,24.7127045 C58.882312,23.8855597 58.6746053,23.21104 58.2596805,22.688415 C57.8445113,22.1660334 57.2944549,21.7273887 56.61,21.3715071 C55.9250564,21.0163558 55.1460338,20.7152439 54.2719549,20.468415 C53.3978759,20.2218295 52.5093797,19.9535795 51.6062218,19.6629347 C50.7028195,19.3727768 49.8145677,19.0244413 48.9404887,18.6181716 C48.0666541,18.2121452 47.2871429,17.6822176 46.602688,17.0293623 C45.9177444,16.3762637 45.3681767,15.5600729 44.9527632,14.58079 C44.5378383,13.6012637 44.3303759,12.393165 44.3303759,10.9564939 C44.3303759,9.81046761 44.5598308,8.69292156 45.0184962,7.60458603 C45.477406,6.51625051 46.1471992,5.55157287 47.0288534,4.70982287 C47.9097744,3.86855972 48.9913158,3.19379656 50.2734774,2.6855334 C51.5551504,2.17775709 53.0191165,1.92362551 54.6651316,1.92362551 C56.5296053,1.92362551 58.2486842,2.21402682 59.8221241,2.79409919 C61.3950752,3.37490182 62.734906,4.1874413 63.8423496,5.23220445 L62.4001316,7.99649393" id="Fill-1" fill="#0D465C"></path>
                        <path d="M73.3289286,19.94579 L73.3289286,29.1748558 L79.2940226,29.1748558 C80.3868045,29.1748558 81.3007143,29.0441387 82.0362406,28.7829479 C82.7717669,28.5220005 83.3616541,28.1734216 83.8061466,27.7381847 C84.2501504,27.3029479 84.5707519,26.7951716 84.7674624,26.2143689 C84.9641729,25.63454 85.0626504,25.0174676 85.0626504,24.3646123 C85.0626504,23.6825466 84.9531767,23.0693689 84.734718,22.5250795 C84.5162594,21.9810334 84.1739098,21.5168295 83.7079135,21.1322242 C83.2411842,20.7478623 82.6444549,20.4540531 81.9162594,20.2505531 C81.1875752,20.04754 80.3064098,19.94579 79.2722744,19.94579 L73.3289286,19.94579 Z M73.3289286,15.8974545 L78.0270113,15.8974545 C80.0224624,15.8974545 81.5370113,15.5347571 82.571391,14.8091189 C83.6057707,14.0837242 84.1228383,12.9301518 84.1228383,11.3484018 C84.1228383,9.70896103 83.6568421,8.54053998 82.7246053,7.84411235 C81.7921241,7.1474413 80.3354887,6.79934919 78.3544549,6.79934919 L73.3289286,6.79934919 L73.3289286,15.8974545 Z M67.4513158,33.7455729 L67.4513158,2.27196103 L78.3544549,2.27196103 C80.4227256,2.27196103 82.1894549,2.46791498 83.6531767,2.85982287 C85.1171429,3.25148735 86.3189098,3.81013866 87.2584774,4.5355334 C88.1980451,5.26141498 88.8861654,6.1391913 89.3233271,7.16934919 C89.7602444,8.19975051 89.978703,9.36062551 89.978703,10.6517308 C89.978703,11.3919742 89.8694737,12.0993558 89.651015,12.7741189 C89.432312,13.4488821 89.0938722,14.0800729 88.6349624,14.6676913 C88.1760526,15.2553097 87.5934962,15.7886452 86.8870489,16.2674545 C86.1803571,16.7462637 85.3390226,17.1527768 84.3632895,17.4865071 C88.7041165,18.4587308 90.8745301,20.795086 90.8745301,24.495086 C90.8745301,25.8302505 90.6196617,27.063665 90.1099248,28.1953295 C89.5999436,29.3272373 88.8568421,30.3031123 87.8813534,31.122711 C86.9051316,31.9427966 85.7033647,32.5846979 84.2760526,33.0491452 C82.8482519,33.513836 81.2168985,33.7455729 79.3815038,33.7455729 L67.4513158,33.7455729 L67.4513158,33.7455729 Z" id="Fill-2" fill="#0D465C"></path>
                        <path d="M101.413571,21.8615137 L111.486372,21.8615137 L107.64062,11.3919742 C107.465902,10.9277702 107.272857,10.3798295 107.061729,9.74839524 C106.850357,9.11744787 106.642895,8.43173077 106.439098,7.69173077 C106.234812,8.43173077 106.03468,9.12109919 105.83797,9.75934919 C105.641259,10.398086 105.448214,10.9564939 105.259079,11.4355466 L101.413571,21.8615137 Z M121.865113,33.7455729 L117.320244,33.7455729 C116.810263,33.7455729 116.391673,33.6187505 116.063985,33.3646189 C115.736297,33.1109742 115.499267,32.7955005 115.353872,32.4179545 L112.994079,25.9969939 L99.9058647,25.9969939 L97.5458271,32.4179545 C97.4292669,32.7519281 97.1995677,33.0566913 96.8577068,33.3322439 C96.5153571,33.6077966 96.0965226,33.7455729 95.601203,33.7455729 L91.0345865,33.7455729 L103.445432,2.27196103 L109.454267,2.27196103 L121.865113,33.7455729 L121.865113,33.7455729 Z" id="Fill-3" fill="#0D465C"></path>
                        <polyline id="Fill-4" fill="#BA233F" points="34.2058271 27.8270334 22.5356391 27.8270334 22.5356391 24.5454742 21.5330263 24.5454742 21.5330263 23.3028097 17.0079511 23.3028097 17.0079511 24.5454742 15.9860338 24.5454742 15.9860338 27.8270334 3.49283835 27.8270334 3.49283835 27.2508558 15.4076316 27.2508558 15.4076316 23.9692966 16.4295489 23.9692966 16.4295489 22.7263887 22.1116729 22.7263887 22.1116729 23.9692966 23.1142857 23.9692966 23.1142857 27.2508558 34.2058271 27.2508558 34.2058271 27.8270334"></polyline>
                        <polyline id="Fill-48" fill="#009DCD" points="33.1900188 29.283665 28.3208835 29.283665 28.3208835 8.67685577 21.7649248 8.64934919 21.7649248 18.1498295 18.6483459 18.1498295 18.6483459 7.0052834 14.6085714 5.53428998 14.6085714 19.9506584 12.6246053 19.9506584 12.6246053 12.6981716 10.4634774 10.2936584 8.30234962 12.6981716 8.30234962 26.2903163 2.79934211 26.2903163 2.79934211 25.7126781 7.72272556 25.7126781 7.72272556 12.4771452 10.4634774 9.42780972 13.2042293 12.4771452 13.2042293 19.3730202 14.028703 19.3730202 14.028703 4.70811893 19.2279699 6.6016913 19.2279699 17.5724347 21.1853008 17.5724347 21.1853008 8.06952024 28.9005075 8.10165182 28.9005075 28.7060268 33.1900188 28.7060268 33.1900188 29.283665"></polyline>
                        <polyline id="Fill-49" fill="#0D465C" points="10.7906767 29.283665 4.58048872 29.283665 4.58048872 28.7060268 10.2110526 28.7060268 10.2110526 15.7007702 17.4013722 13.244165 17.4160338 19.4083163 22.8391353 19.4083163 23.2459962 10.0056913 24.573609 10.0056913 24.9736278 20.8681123 25.267594 20.8681123 25.6991353 10.0056913 27.0306579 10.0056913 27.3087406 20.8958623 30.9159962 20.8958623 30.9159962 25.7126781 34.9841165 25.7126781 34.9841165 26.2903163 30.3363722 26.2903163 30.3363722 21.4735005 26.7437782 21.4735005 26.4654511 10.583086 26.2562782 10.583086 25.8247368 21.4457505 24.4145301 21.4457505 24.0147556 10.583086 23.8014286 10.583086 23.3945677 19.9861979 16.8378759 19.9861979 16.823703 14.0520795 10.7906767 16.1131255 10.7906767 29.283665"></polyline>
                        <path d="M18.9217857,0.723803138 C9.21919173,0.723803138 1.3256015,8.5870334 1.3256015,18.2523097 C1.3256015,27.917586 9.21919173,35.7808163 18.9217857,35.7808163 C28.6243797,35.7808163 36.5179699,27.917586 36.5179699,18.2523097 C36.5179699,8.5870334 28.6243797,0.723803138 18.9217857,0.723803138 Z M18.9217857,36.3569939 C8.90030075,36.3569939 0.746954887,28.2352505 0.746954887,18.2523097 C0.746954887,8.26936893 8.90030075,0.147625506 18.9217857,0.147625506 C28.9432707,0.147625506 37.0963722,8.26936893 37.0963722,18.2523097 C37.0963722,28.2352505 28.9432707,36.3569939 18.9217857,36.3569939 L18.9217857,36.3569939 Z" id="Fill-50" fill="#0D465C"></path>
                    </g>
                </g>
            </g>
        </g>
    </g>
</svg>