<?xml version="1.0" encoding="UTF-8" standalone="no"?>
<svg width="183px" height="65px" viewBox="0 0 183 65" version="1.1" xmlns="http://www.w3.org/2000/svg" xmlns:xlink="http://www.w3.org/1999/xlink">
    <!-- Generator: Sketch 41.2 (35397) - http://www.bohemiancoding.com/sketch -->
    <title>SBA Logo Color</title>
    <desc>Created with Sketch.</desc>
    <defs>
        <polygon id="path-1" points="0.0206390977 0.139236842 0.0206390977 14.3263421 5.30002754 14.3263421 5.30002754 0.139236842 0.0206390977 0.139236842"></polygon>
        <polygon id="path-3" points="8.38016331 0.304131579 0.250421053 0.304131579 0.250421053 5.42818421 8.38016331 5.42818421 8.38016331 0.304131579"></polygon>
    </defs>
    <g id="Symbols" stroke="none" stroke-width="1" fill="none" fill-rule="evenodd">
        <g id="Header-Main-Nav-SBA-Blue" transform="translate(-149.000000, -19.000000)">
            <g id="Header-Main-Nav">
                <g id="SBA-Logo" transform="translate(149.000000, 19.000000)">
                    <g id="SBA-Horizontal_full-color">
                        <path d="M99.1017237,18.2383158 C98.8760695,18.6871579 98.614297,19.0029211 98.317438,19.1866316 C98.020235,19.37 97.6659305,19.4616842 97.2562444,19.4616842 C96.8458703,19.4616842 96.3845865,19.3039737 95.8723929,18.9878684 C95.3595113,18.6717632 94.7544417,18.3197368 94.0575282,17.9324737 C93.3599267,17.5452105 92.5453703,17.1931842 91.6121391,16.8770789 C90.6789079,16.5609737 89.5767801,16.4029211 88.3057556,16.4029211 C87.1571898,16.4029211 86.1575695,16.5404474 85.3065508,16.8158421 C84.4558759,17.0912368 83.7379793,17.4733684 83.1538929,17.9629211 C82.5691184,18.4521316 82.1332895,19.0388421 81.846406,19.7216842 C81.5591786,20.4052105 81.4160808,21.1547632 81.4160808,21.97 C81.4160808,23.0103421 81.7081241,23.8772368 82.2925545,24.5703421 C82.876985,25.2637895 83.6506071,25.8549474 84.614797,26.3445 C85.5782989,26.8340526 86.6756109,27.2726316 87.9057011,27.6598947 C89.1364793,28.0478421 90.3920244,28.4604211 91.6737124,28.8986579 C92.9550564,29.3375789 94.2112895,29.8469737 95.4417237,30.4282105 C96.6718139,31.0097895 97.768782,31.7436053 98.7326278,32.6306842 C99.6964737,33.5181053 100.47044,34.6039474 101.055214,35.8885526 C101.639301,37.1735 101.931688,38.7338421 101.931688,40.5688947 C101.931688,42.5678158 101.588047,44.4387895 100.901453,46.1821579 C100.214171,47.9258684 99.209391,49.4455 97.8867688,50.7400263 C96.5641466,52.0355789 94.9494812,53.0550526 93.0424286,53.7991316 C91.1353759,54.5435526 88.9514154,54.9161053 86.491235,54.9161053 C85.0760808,54.9161053 83.6815658,54.7782368 82.3080338,54.5031842 C80.9338139,54.2274474 79.6163515,53.8350526 78.3553026,53.3249737 C77.0942538,52.8155789 75.9150733,52.2038947 74.8181053,51.4899211 C73.7207932,50.7759474 72.742156,49.9808947 71.8808177,49.1037368 L74.2801128,45.1575526 C74.5050789,44.8722368 74.7768271,44.6327632 75.0950132,44.4387895 C75.4128553,44.2451579 75.7661278,44.148 76.1562068,44.148 C76.6684004,44.148 77.2222162,44.3573684 77.8173102,44.7750789 C78.4117162,45.1934737 79.1137895,45.6577105 79.9238741,46.1667632 C80.7339586,46.6771842 81.687485,47.1410789 82.784453,47.5591316 C83.8814211,47.9768421 85.1992274,48.1862105 86.7371842,48.1862105 C89.0948571,48.1862105 90.9200414,47.6306316 92.2120489,46.5187895 C93.5037124,45.4076316 94.1497162,43.8117105 94.1497162,41.7313684 C94.1497162,40.5688947 93.8573289,39.6209211 93.2732425,38.8864211 C92.688812,38.1522632 91.9145019,37.5357895 90.951,37.0356316 C89.9868102,36.5365 88.8901861,36.1133158 87.6597519,35.7664211 C86.4293177,35.4198684 85.1785883,35.0428684 83.9072199,34.6343947 C82.6355075,34.2266053 81.3851222,33.7370526 80.154688,33.1660789 C78.9245977,32.5954474 77.8272857,31.8506842 76.8637838,30.9331579 C75.899594,30.0152895 75.1259718,28.8682105 74.5411974,27.4919211 C73.9571109,26.1152895 73.6650677,24.4174211 73.6650677,22.3983158 C73.6650677,20.7876842 73.9880695,19.2170789 74.6337293,17.6875263 C75.2797331,16.1579737 76.2225959,14.8022105 77.4636936,13.6192105 C78.7037594,12.4368947 80.2262368,11.4885789 82.0311259,10.7742632 C83.8353271,10.0606316 85.896141,9.70347368 88.2132237,9.70347368 C90.8378289,9.70347368 93.2577632,10.1116053 95.4726823,10.9268421 C97.6869135,11.7431053 99.5729831,12.8850526 101.131923,14.3533684 L99.1017237,18.2383158" id="Fill-1" fill="#0D465C"></path>
                        <path d="M114.486107,35.0319211 L114.486107,48.0025 L122.883124,48.0025 C124.421425,48.0025 125.707929,47.8187895 126.743323,47.4517105 C127.778718,47.0849737 128.609098,46.5950789 129.234806,45.9833947 C129.859827,45.3717105 130.311135,44.6580789 130.588043,43.8418158 C130.864951,43.0269211 131.003577,42.1596842 131.003577,41.2421579 C131.003577,40.2835789 130.849472,39.4218158 130.541949,38.6568684 C130.234427,37.8922632 129.752504,37.2398684 129.096524,36.6993421 C128.439513,36.1591579 127.599502,35.7462368 126.574427,35.4602368 C125.548664,35.1749211 124.308254,35.0319211 122.852509,35.0319211 L114.486107,35.0319211 Z M114.486107,29.3423684 L121.099562,29.3423684 C123.908543,29.3423684 126.040562,28.8326316 127.49665,27.8128158 C128.952739,26.7933421 129.680611,25.1721053 129.680611,22.9491053 C129.680611,20.6450263 129.024632,19.0029211 127.712329,18.0241579 C126.399682,17.0450526 124.349188,16.5558421 121.560502,16.5558421 L114.486107,16.5558421 L114.486107,29.3423684 Z M106.212237,54.4262105 L106.212237,10.1930263 L121.560502,10.1930263 C124.471991,10.1930263 126.959002,10.4684211 129.019472,11.0192105 C131.080286,11.5696579 132.772004,12.3547895 134.094626,13.3742632 C135.417248,14.3944211 136.38591,15.6280526 137.001299,17.0758421 C137.616344,18.5239737 137.923867,20.1554737 137.923867,21.97 C137.923867,23.0103421 137.770105,24.0045 137.462583,24.9528158 C137.154716,25.9011316 136.678297,26.7882105 136.032293,27.6140526 C135.386289,28.4398947 134.566229,29.1894474 133.571769,29.8623684 C132.576964,30.5352895 131.392624,31.1066053 130.019092,31.5756316 C136.129641,32.942 139.184915,36.2255263 139.184915,41.4255263 C139.184915,43.3019737 138.826139,45.0354211 138.108586,46.6258684 C137.39069,48.2166579 136.344632,49.5881579 134.971444,50.7400263 C133.597224,51.8925789 131.905506,52.7947105 129.896289,53.4474474 C127.886385,54.1005263 125.589942,54.4262105 123.006271,54.4262105 L106.212237,54.4262105 L106.212237,54.4262105 Z" id="Fill-2" fill="#0D465C"></path>
                        <path d="M154.020643,37.7242895 L168.200047,37.7242895 L162.786412,23.0103421 C162.540462,22.3579474 162.268714,21.5878684 161.971511,20.7004474 C161.673964,19.8137105 161.381921,18.85 161.095038,17.81 C160.807466,18.85 160.525742,19.8188421 160.248835,20.7158421 C159.971927,21.6135263 159.700179,22.3983158 159.433934,23.0715789 L154.020643,37.7242895 Z M182.81012,54.4262105 L176.412344,54.4262105 C175.694447,54.4262105 175.105201,54.2479737 174.643917,53.8908158 C174.182633,53.5343421 173.848968,53.0909737 173.644297,52.5603684 L170.322434,43.5363158 L151.898256,43.5363158 L148.576049,52.5603684 C148.411968,53.0297368 148.088622,53.4580526 147.607387,53.8453158 C147.125464,54.2325789 146.535874,54.4262105 145.838617,54.4262105 L139.410226,54.4262105 L156.880878,10.1930263 L165.339468,10.1930263 L182.81012,54.4262105 L182.81012,54.4262105 Z" id="Fill-3" fill="#0D465C"></path>
                        <polyline id="Fill-4" fill="#BA233F" points="53.7820489 46.1082632 37.354015 46.1082632 37.354015 41.4963421 35.9426447 41.4963421 35.9426447 39.7498947 29.5727312 39.7498947 29.5727312 41.4963421 28.1341861 41.4963421 28.1341861 46.1082632 10.5476109 46.1082632 10.5476109 45.2985 27.3199737 45.2985 27.3199737 40.6865789 28.7585188 40.6865789 28.7585188 38.9397895 36.7572011 38.9397895 36.7572011 40.6865789 38.1685714 40.6865789 38.1685714 45.2985 53.7820489 45.2985 53.7820489 46.1082632"></polyline>
                        <g id="Group-9" transform="translate(0.000000, 23.263158)">
                            <mask id="mask-2" fill="white">
                                <use xlink:href="#path-1"></use>
                            </mask>
                            <g id="Clip-6"></g>
                            <path d="M4.14708271,3.38821053 C4.11130827,3.35092105 4.08688534,3.31602632 4.07450188,3.28386842 C4.06211842,3.25171053 4.06143045,3.21407895 4.07312594,3.17165789 C4.08378947,3.13026316 4.10993233,3.09023684 4.15155451,3.05021053 C4.19317669,3.01052632 4.23927068,2.96331579 4.28983647,2.90926316 C4.34040226,2.85452632 4.39096805,2.79021053 4.44187782,2.71597368 C4.49244361,2.64173684 4.53234586,2.54971053 4.56158459,2.43989474 C4.61318233,2.24626316 4.60836654,2.08992105 4.54679323,1.96984211 C4.48590789,1.85044737 4.3851203,1.77210526 4.24443045,1.73515789 C4.15499436,1.71155263 4.07346992,1.71839474 4.00054511,1.75602632 C3.92727632,1.79365789 3.85779135,1.85010526 3.79174624,1.92536842 C3.72570113,2.00028947 3.66137594,2.08855263 3.59842669,2.18947368 C3.53547744,2.29039474 3.46874436,2.39302632 3.39788346,2.49771053 C3.32702256,2.60239474 3.24962594,2.70263158 3.16603759,2.79842105 C3.08279323,2.89386842 2.98819737,2.97392105 2.88293797,3.03892105 C2.77767857,3.10392105 2.65831579,3.14702632 2.52553759,3.16892105 C2.3927594,3.19081579 2.24106203,3.17918421 2.07078947,3.13436842 C1.88572556,3.08578947 1.72061278,3.00778947 1.57579511,2.90105263 C1.43097744,2.79431579 1.31436654,2.66431579 1.22630639,2.51173684 C1.13755827,2.35915789 1.08217669,2.18468421 1.06050564,1.989 C1.0384906,1.79297368 1.05740977,1.58223684 1.11726316,1.35747368 C1.15131767,1.22884211 1.19844361,1.10431579 1.25864098,0.983894737 C1.31883835,0.863473684 1.38797932,0.750236842 1.46606391,0.644184211 C1.5441485,0.538473684 1.62980075,0.442 1.72302068,0.355105263 C1.8162406,0.268210526 1.91358835,0.196026316 2.01506391,0.139236842 L2.34804135,0.489552632 C2.37246429,0.517947368 2.39000752,0.551473684 2.40101504,0.590131579 C2.41167857,0.628789474 2.41202256,0.666763158 2.40239098,0.704052632 C2.38897556,0.754342105 2.35595301,0.802236842 2.30366729,0.848421053 C2.25138158,0.894263158 2.19324812,0.947631579 2.12892293,1.00818421 C2.06494173,1.06907895 2.00130451,1.14263158 1.93835526,1.2285 C1.87540602,1.31436842 1.82621617,1.42452632 1.79044173,1.55863158 C1.7385,1.75397368 1.74331579,1.91647368 1.80454511,2.04715789 C1.86577444,2.17784211 1.9854812,2.26678947 2.16297744,2.31331579 C2.26582895,2.34034211 2.35629699,2.33589474 2.43403759,2.29963158 C2.5117782,2.26336842 2.58332707,2.20794737 2.6490282,2.13371053 C2.71507331,2.05947368 2.77802256,1.97155263 2.83821992,1.86994737 C2.89807331,1.76834211 2.9623985,1.66468421 3.03050752,1.55931579 C3.09861654,1.45394737 3.17326128,1.35302632 3.2551297,1.25689474 C3.33665414,1.16076316 3.43159398,1.08139474 3.54063722,1.01844737 C3.64933647,0.9555 3.77454699,0.914105263 3.91558083,0.894947368 C4.05730263,0.875105263 4.22207143,0.8905 4.41126316,0.940105263 C4.56261654,0.979789474 4.70193045,1.04821053 4.82817293,1.14502632 C4.95441541,1.24218421 5.0576109,1.36260526 5.13707143,1.50697368 C5.21687594,1.65168421 5.26778571,1.81692105 5.29048872,2.00336842 C5.31319173,2.18947368 5.29530451,2.39097368 5.23751504,2.60889474 C5.17250188,2.85247368 5.07481015,3.068 4.94375188,3.25581579 C4.81269361,3.44328947 4.66099624,3.59073684 4.4879718,3.69884211 L4.14708271,3.38821053" id="Fill-5" fill="#0D465C" mask="url(#mask-2)"></path>
                            <path d="M1.84169549,6.63444737 C1.76739474,6.65907895 1.69137406,6.68234211 1.61328947,6.70389474 C1.68759023,6.74015789 1.75982707,6.77813158 1.83,6.81747368 C1.90017293,6.85715789 1.96690602,6.89821053 2.03088722,6.94097368 L4.14777068,8.31042105 C4.17907331,8.33060526 4.20280827,8.35147368 4.21931955,8.37234211 C4.23583083,8.39321053 4.24718233,8.41510526 4.25371805,8.43802632 C4.26025376,8.46060526 4.26334962,8.48626316 4.26266165,8.51431579 C4.26197368,8.54236842 4.25956579,8.57521053 4.25578195,8.61352632 L4.19317669,9.26865789 L0,8.87113158 L0.073268797,8.10960526 L2.64765226,8.35386842 C2.69993797,8.35865789 2.75669549,8.3655 2.81792481,8.37439474 C2.87915414,8.38294737 2.94244737,8.39321053 3.00746053,8.40518421 L0.847578947,6.99981579 C0.728216165,6.92284211 0.675242481,6.81610526 0.68831391,6.68028947 L0.700009398,6.55918421 C0.706201128,6.49247368 0.72787218,6.43465789 0.764678571,6.38573684 C0.801484962,6.33681579 0.852050752,6.30055263 0.916719925,6.27557895 L3.31154323,5.29305263 C3.24549812,5.29271053 3.18117293,5.29134211 3.11822368,5.28928947 C3.05527444,5.28723684 2.99679699,5.28381579 2.94279135,5.27834211 L0.36806391,5.03442105 L0.440988722,4.27289474 L4.63382143,4.67076316 L4.57121617,5.32589474 C4.56777632,5.36215789 4.5636485,5.39465789 4.55883271,5.42305263 C4.5543609,5.45178947 4.54644925,5.47676316 4.53578571,5.49763158 C4.52512218,5.51918421 4.50964286,5.538 4.48969173,5.55442105 C4.46939662,5.57084211 4.4422218,5.58623684 4.40782331,5.60026316 L2.05943797,6.55507895 C1.98823308,6.58313158 1.91599624,6.60947368 1.84169549,6.63444737" id="Fill-7" fill="#0D465C" mask="url(#mask-2)"></path>
                            <path d="M1.72990038,11.5005526 L1.83481579,12.7434211 L3.08107331,12.1844211 C3.14643045,12.1522632 3.2231391,12.1173684 3.31119925,12.0800789 C3.39960338,12.0424474 3.49419925,12.0055 3.5960188,11.9678684 C3.48766353,11.9500789 3.38653195,11.9302368 3.29228008,11.9093684 C3.19837218,11.8881579 3.11650376,11.8672895 3.04667481,11.8457368 L1.72990038,11.5005526 Z M0.363592105,14.3263421 L0.306834586,13.6561579 C0.300642857,13.5812368 0.313026316,13.5193158 0.345016917,13.4690263 C0.376663534,13.4194211 0.419317669,13.3800789 0.473667293,13.3527105 L1.25107331,13.0041053 L1.11072744,11.3407895 L0.285507519,11.1259474 C0.235629699,11.1108947 0.188847744,11.0807895 0.145505639,11.0363158 C0.101819549,10.9915 0.0770526316,10.933 0.0708609023,10.8597895 L0.0137593985,10.1841316 L4.34865789,11.4649737 L4.42330263,12.3479474 L0.363592105,14.3263421 L0.363592105,14.3263421 Z" id="Fill-8" fill="#0D465C" mask="url(#mask-2)"></path>
                        </g>
                        <polyline id="Fill-10" fill="#0D465C" points="1.49392669 39.4577368 1.84719925 41.0389474 1.15578947 41.1911842 0.613325188 38.7649737 4.72532143 37.8563421 4.91416917 38.7020263 1.49392669 39.4577368"></polyline>
                        <polyline id="Fill-11" fill="#0D465C" points="2.48253947 43.0101579 3.01743609 44.5397105 2.34838534 44.7713158 1.5279812 42.4231053 5.50651128 41.0478421 5.79236278 41.8661579 2.48253947 43.0101579"></polyline>
                        <path d="M6.17865789,47.1790526 L6.46416541,47.6716842 C6.52505075,47.7763684 6.58834398,47.8649737 6.65301316,47.9364737 C6.71802632,48.0079737 6.78579135,48.0603158 6.85630827,48.0931579 C6.9264812,48.1263421 7.00181391,48.1393421 7.08161842,48.1321579 C7.16142293,48.1256579 7.24569925,48.0965789 7.33444737,48.0459474 C7.4252594,47.9936053 7.49508835,47.9375 7.54496617,47.8766053 C7.5945,47.8160526 7.62408271,47.7493421 7.63371429,47.6771579 C7.64334586,47.6053158 7.63440226,47.5259474 7.60757143,47.4390526 C7.58108459,47.3521579 7.53705451,47.2563684 7.47616917,47.1513421 L7.16417481,46.6135526 L6.17865789,47.1790526 Z M5.66543233,47.4736053 L4.66718797,48.0459474 L5.04006767,48.6884211 C5.10955263,48.8085 5.18144549,48.8988158 5.25574624,48.9597105 C5.33004699,49.0202632 5.40503571,49.0599474 5.48071241,49.0787632 C5.55673308,49.0979211 5.63103383,49.0982632 5.70464662,49.0804737 C5.7782594,49.0626842 5.84843233,49.0349737 5.9155094,48.9966579 C5.98912218,48.9542368 6.04931955,48.9049737 6.09506955,48.8498947 C6.14116353,48.7944737 6.17109023,48.7308421 6.18381767,48.659 C6.1968891,48.5871579 6.19172932,48.5060789 6.16868233,48.4164474 C6.14563534,48.3261316 6.10126128,48.2241842 6.03556015,48.1109474 L5.66543233,47.4736053 Z M3.65380827,47.6275526 L7.30245677,45.5345526 L8.04959211,46.8225789 C8.19062594,47.0658158 8.28797368,47.2871579 8.34197932,47.4862632 C8.39598496,47.6853684 8.41249624,47.8636053 8.39116917,48.0213158 C8.36984211,48.1786842 8.31308459,48.3172368 8.22158459,48.4366316 C8.1297406,48.5560263 8.00934586,48.6586579 7.86005639,48.7441842 C7.77646805,48.7920789 7.68875188,48.8262895 7.59759586,48.8461316 C7.50643985,48.8663158 7.41218797,48.8704211 7.31484023,48.8584474 C7.21749248,48.8464737 7.11808083,48.8163684 7.01660526,48.7681316 C6.91444173,48.7198947 6.81262218,48.6518158 6.71011466,48.5635526 C6.8762594,49.1126316 6.74932895,49.5077632 6.32863534,49.7492895 C6.17418609,49.8378947 6.0138891,49.8902368 5.84705639,49.907 C5.68022368,49.9237632 5.51545489,49.9035789 5.35240602,49.8457632 C5.18970113,49.7882895 5.0325,49.6921579 4.88217857,49.5573684 C4.73151316,49.4229211 4.59357519,49.2477632 4.46870865,49.0325789 L3.65380827,47.6275526 L3.65380827,47.6275526 Z" id="Fill-12" fill="#0D465C"></path>
                        <path d="M7.73450188,52.5319737 C7.82290602,52.6414474 7.92094173,52.7245789 8.02826504,52.7820526 C8.13558835,52.8395263 8.24738346,52.871 8.36399436,52.8768158 C8.48026128,52.8822895 8.59928008,52.8624474 8.72139474,52.8166053 C8.8435094,52.7707632 8.96459211,52.6996053 9.08533083,52.6031316 L11.0384774,51.0390263 L11.5847256,51.7129737 L9.63123496,53.2774211 C9.43241165,53.4368421 9.22395677,53.5514474 9.00552632,53.6208947 C8.78778383,53.6906842 8.57038534,53.7146316 8.35367481,53.6927368 C8.13730827,53.6708421 7.92678947,53.6027632 7.72143045,53.4874737 C7.5167594,53.3725263 7.32791165,53.2083158 7.15557519,52.9951842 C6.98323872,52.7827368 6.86215602,52.5641316 6.79198308,52.3393684 C6.72215414,52.1149474 6.69979511,51.8949737 6.72421805,51.6804737 C6.74898496,51.4652895 6.81881391,51.259 6.93404887,51.0619474 C7.04893985,50.8652368 7.20579699,50.6866579 7.40496429,50.5272368 L9.35845489,48.9631316 L9.90470301,49.6377632 L7.95121241,51.2022105 C7.83047368,51.2983421 7.73450188,51.4013158 7.66364098,51.5101053 C7.59243609,51.6188947 7.54771805,51.7304211 7.52845489,51.8443421 C7.50884774,51.9586053 7.51607143,52.0745789 7.54978195,52.1908947 C7.5831485,52.3075526 7.6447218,52.4211316 7.73450188,52.5319737" id="Fill-13" fill="#0D465C"></path>
                        <path d="M13.4615075,54.5917895 C13.4116297,54.6058158 13.3689756,54.6106053 13.3345771,54.6065 C13.3001786,54.6023947 13.266812,54.5852895 13.2344774,54.5548421 C13.2031748,54.5261053 13.1797838,54.4840263 13.1643045,54.4289474 C13.1484812,54.3735263 13.1285301,54.3109211 13.1037632,54.2411316 C13.0796842,54.171 13.0463177,54.0960789 13.0046955,54.0167105 C12.9627293,53.937 12.9001241,53.8586579 12.8165357,53.781 C12.6693102,53.6448421 12.5282763,53.5750526 12.3930902,53.5723158 C12.2579041,53.5695789 12.1412932,53.6208947 12.0422256,53.7266053 C11.9789323,53.7943421 11.9465977,53.8689211 11.9455658,53.9506842 C11.9445338,54.0327895 11.9617331,54.1200263 11.9971635,54.2134211 C12.032594,54.3068158 12.0800639,54.405 12.1399173,54.5079737 C12.1994267,54.6106053 12.2592801,54.7176842 12.3187895,54.8295526 C12.3782989,54.9407368 12.4305846,55.0556842 12.4759906,55.1740526 C12.5210526,55.2924211 12.5475395,55.4131842 12.5554511,55.536 C12.5633628,55.6588158 12.5454756,55.7840263 12.5021335,55.9106053 C12.4584474,56.0375263 12.3769229,56.1647895 12.2568722,56.2930789 C12.1265019,56.4323158 11.9796203,56.5407632 11.8165714,56.6167105 C11.6538665,56.6933421 11.483594,56.7347368 11.3064417,56.7402105 C11.1292895,56.7456842 10.9486974,56.7121579 10.7646654,56.6389474 C10.5806335,56.5653947 10.4027932,56.4494211 10.2318327,56.2906842 C10.133797,56.2000263 10.0457368,56.1001316 9.96730827,55.9906579 C9.8888797,55.8811842 9.82111466,55.7672632 9.76401316,55.6482105 C9.70725564,55.5298421 9.66219361,55.4094211 9.62917105,55.2869474 C9.59580451,55.1637895 9.57791729,55.0447368 9.57516541,54.9291053 L10.042985,54.8021842 C10.0797914,54.7939737 10.1179737,54.7943158 10.157188,54.8028684 C10.1964023,54.8121053 10.2301128,54.8298947 10.2586635,54.8558947 C10.2968459,54.8911316 10.3240207,54.9427895 10.340188,55.0105263 C10.3563553,55.0779211 10.3759624,55.1538684 10.3996974,55.2390526 C10.4230883,55.3238947 10.4581748,55.4145526 10.5046128,55.5103421 C10.5513947,55.6057895 10.6256955,55.7005526 10.727515,55.7953158 C10.8761165,55.9328421 11.0229981,56.0060526 11.1674718,56.0139211 C11.3122895,56.0217895 11.4474756,55.9585 11.5726861,55.8250789 C11.6452669,55.7474211 11.6837932,55.666 11.688265,55.5808158 C11.6927368,55.4952895 11.6776015,55.4063421 11.642859,55.3136316 C11.6081165,55.2209211 11.5596147,55.1244474 11.4976974,55.0235263 C11.4361241,54.9229474 11.3745508,54.8179211 11.3129774,54.7084474 C11.2517481,54.5989737 11.1977425,54.4857368 11.1513045,54.3687368 C11.1041786,54.2520789 11.0790677,54.1313158 11.0745959,54.0057632 C11.0701241,53.8808947 11.0924831,53.7515789 11.1420169,53.6185 C11.1912068,53.4854211 11.2823628,53.3478947 11.4158289,53.2055789 C11.5224643,53.0916579 11.6487068,53.0016842 11.7942124,52.9366842 C11.939718,52.8716842 12.0955432,52.8385 12.261,52.8364474 C12.4268008,52.8350789 12.5974173,52.8679211 12.7731936,52.9356579 C12.9486259,53.0040789 13.1192425,53.1149211 13.2850432,53.2681842 C13.4704511,53.4402632 13.6152688,53.6277368 13.7198402,53.8312895 C13.8244117,54.0341579 13.8835771,54.2370263 13.8976805,54.4398947 L13.4615075,54.5917895" id="Fill-14" fill="#0D465C"></path>
                        <polyline id="Fill-15" fill="#0D465C" points="13.1113308 58.6221316 12.4140733 58.0935789 14.9664417 54.7611316 15.6636992 55.2893421 13.1113308 58.6221316"></polyline>
                        <path d="M17.0482387,56.2766579 C17.0692218,56.2923947 17.0864211,56.3101842 17.0994925,56.3296842 C17.1122199,56.3498684 17.1225395,56.3717632 17.1307951,56.3967368 C17.1383628,56.4213684 17.1448985,56.4521579 17.1504023,56.4884211 L17.61375,59.8554211 C17.6443647,59.7887105 17.6753233,59.7240526 17.7076579,59.6624737 C17.7393045,59.6008947 17.7709511,59.5437632 17.8022538,59.4903947 L19.0216805,57.4240789 L19.6855714,57.811 L17.5532086,61.4239737 L17.1651936,61.1975 C17.1067162,61.1629474 17.0630301,61.1249737 17.0344793,61.0825526 C17.0055846,61.0401316 16.9856335,60.9840263 16.9746259,60.9156053 L16.515062,57.5705 C16.4858233,57.6317368 16.4558966,57.6905789 16.4259699,57.7477105 C16.3953553,57.8048421 16.3661165,57.8575263 16.3375658,57.9057632 L15.1047237,59.9943158 L14.4415207,59.6070526 L16.5735395,55.9944211 L16.9691222,56.2256842 C17.0007688,56.2438158 17.0272556,56.2609211 17.0482387,56.2766579" id="Fill-16" fill="#0D465C"></path>
                        <polyline id="Fill-17" fill="#0D465C" points="23.1856184 59.2601579 22.9300376 59.8892895 21.2558628 59.2163684 20.8503045 60.2146316 22.1529756 60.7383947 21.9059944 61.3456316 20.6033233 60.8222105 20.1888214 61.8420263 21.8629962 62.5149474 21.6074154 63.1437368 19.1204041 62.1441053 20.6986071 58.2605263 23.1856184 59.2601579"></polyline>
                        <path d="M26.055485,60.8848158 C26.0176466,60.9207368 25.9829041,60.9450263 25.9509135,60.9573421 C25.918235,60.9696579 25.8807406,60.9703421 25.8377425,60.9590526 C25.7964643,60.9477632 25.7558741,60.9217632 25.7159718,60.8807105 C25.6757256,60.8393158 25.6285996,60.7934737 25.573562,60.7431842 C25.5188684,60.6925526 25.4541992,60.6426053 25.3795545,60.5919737 C25.3049098,60.5416842 25.2123778,60.502 25.1019586,60.4729211 C24.9072632,60.4216053 24.750062,60.4263947 24.6296673,60.4876316 C24.5096165,60.5481842 24.430844,60.6484211 24.3936936,60.7883421 C24.3699586,60.8772895 24.3768383,60.9587105 24.4146767,61.0312368 C24.452515,61.1037632 24.5092726,61.1732105 24.5846053,61.2385526 C24.660282,61.3038947 24.7486861,61.3685526 24.8505056,61.4308158 C24.9519812,61.4930789 25.0555207,61.5597895 25.1607801,61.6302632 C25.2660395,61.7010789 25.3668271,61.7777105 25.4627989,61.8605 C25.5587707,61.9439737 25.6392632,62.0373684 25.7046203,62.1423947 C25.7699774,62.2467368 25.8136635,62.3654474 25.8353346,62.4978421 C25.8573496,62.6298947 25.8456541,62.7807632 25.8009361,62.9501053 C25.7517462,63.1341579 25.6736617,63.2980263 25.5663383,63.4420526 C25.4586711,63.5860789 25.3283008,63.7020526 25.1748835,63.7903158 C25.0211222,63.8785789 24.8463778,63.9333158 24.6492744,63.9548684 C24.452515,63.9771053 24.2406203,63.9582895 24.0142782,63.8984211 C23.8852838,63.8648947 23.7597293,63.8176842 23.6386466,63.7581579 C23.5172199,63.6982895 23.4037049,63.6295263 23.2970695,63.5518684 C23.1907782,63.4738684 23.0937744,63.3886842 23.0064023,63.2963158 C22.9186861,63.2032632 22.8464492,63.1067895 22.7893477,63.0062105 L23.1415883,62.6743684 C23.1701391,62.6504211 23.2038496,62.6326316 23.2423759,62.6220263 C23.2812462,62.6117632 23.3194286,62.6110789 23.3569229,62.621 C23.4074887,62.6343421 23.4559906,62.6668421 23.5020846,62.7185 C23.5485226,62.7705 23.6021842,62.8286579 23.6630695,62.8926316 C23.7239549,62.9562632 23.7979117,63.0195526 23.8845959,63.0821579 C23.9709361,63.1444211 24.0813553,63.1936842 24.2161974,63.2289211 C24.4126128,63.2805789 24.5766936,63.2757895 24.7080959,63.2148947 C24.8391541,63.154 24.9282462,63.0349474 24.9753722,62.8580789 C25.002547,62.7561316 24.9980752,62.6661579 24.9616128,62.5888421 C24.9248064,62.5115263 24.8694248,62.4403684 24.7944361,62.3746842 C24.7201353,62.3093421 24.6313872,62.2463947 24.5292237,62.1868684 C24.4270602,62.1273421 24.3228327,62.0633684 24.2168853,61.9959737 C24.110594,61.9282368 24.0094624,61.8536579 23.9128026,61.7729211 C23.8161429,61.6915 23.7363383,61.5967368 23.6730451,61.4882895 C23.6097519,61.3805263 23.5681297,61.256 23.5485226,61.1157368 C23.5289154,60.9747895 23.5440508,60.8105789 23.5939286,60.6227632 C23.6338308,60.4718947 23.7026278,60.3336842 23.8003195,60.2081316 C23.8976673,60.0822368 24.01875,59.9799474 24.1642556,59.9005789 C24.3094173,59.8212105 24.475218,59.7705789 24.6626898,59.7483421 C24.8498177,59.7254211 25.0527688,59.7432105 25.2715432,59.8010263 C25.5168045,59.865 25.733515,59.9625 25.9223628,60.0925 C26.1108665,60.2228421 26.259468,60.3740526 26.3678233,60.5457895 L26.055485,60.8848158" id="Fill-18" fill="#0D465C"></path>
                        <path d="M29.5703233,61.4393684 C29.5373008,61.4793947 29.5056541,61.5077895 29.4750395,61.5238684 C29.4447688,61.5402895 29.4072744,61.5454211 29.3632444,61.5396053 C29.3209342,61.5337895 29.2772481,61.5132632 29.2325301,61.4766579 C29.187812,61.4407368 29.1348383,61.4013947 29.074641,61.3582895 C29.0137556,61.3151842 28.9435827,61.2731053 28.8630902,61.2317105 C28.7825977,61.191 28.685938,61.1629474 28.5727669,61.1478947 C28.3735996,61.1208684 28.2177744,61.1451579 28.1059793,61.2204211 C27.9941842,61.2956842 27.9288271,61.4048158 27.9092199,61.5481579 C27.8968365,61.6398421 27.9136917,61.7188684 27.9601297,61.7866053 C28.0069117,61.854 28.0715808,61.9152368 28.1548252,61.9713421 C28.2377256,62.0274474 28.3336974,62.0801316 28.4423966,62.1293947 C28.5507519,62.179 28.661515,62.2323684 28.7750301,62.2895 C28.8882011,62.3462895 28.9975883,62.4102632 29.1035357,62.4807368 C29.2091391,62.5512105 29.3006391,62.6343421 29.3783797,62.7301316 C29.4561203,62.8262632 29.5142538,62.9384737 29.5524361,63.0671053 C29.5906184,63.1957368 29.5978421,63.3462632 29.5744511,63.5197105 C29.5486523,63.7088947 29.4915508,63.8816579 29.4028026,64.0373158 C29.3143985,64.1936579 29.1991635,64.3243421 29.0581297,64.4307368 C28.9164079,64.5371316 28.7495752,64.6130789 28.5565996,64.6589211 C28.363968,64.7051053 28.1517293,64.7122895 27.9195395,64.6811579 C27.7874492,64.6633684 27.6570789,64.6322368 27.5294605,64.5881053 C27.4018421,64.5436316 27.2800714,64.4895789 27.1648365,64.4249211 C27.0496015,64.3612895 26.9426222,64.2887632 26.8445865,64.2073421 C26.7462068,64.1262632 26.6622744,64.0393684 26.5931335,63.9463158 L26.901344,63.5741053 C26.9267989,63.5463947 26.9577575,63.5251842 26.9949079,63.5094474 C27.0324023,63.4940526 27.0702406,63.4889211 27.1084229,63.4943947 C27.1603647,63.5008947 27.2123064,63.5275789 27.2645921,63.5734211 C27.3168778,63.6196053 27.3774192,63.6702368 27.4458722,63.726 C27.5146692,63.7821053 27.5955056,63.8358158 27.6890695,63.8867895 C27.7826335,63.9384474 27.8985564,63.9733421 28.0368383,63.9921579 C28.2384135,64.0191842 28.4000865,63.9942105 28.5228891,63.9175789 C28.6456917,63.8406053 28.7193045,63.7116316 28.7437274,63.5306579 C28.7581748,63.4259737 28.7423515,63.3373684 28.6966015,63.2648421 C28.6505075,63.1926579 28.5865263,63.1286842 28.5043139,63.0729211 C28.4221015,63.0171579 28.3264737,62.9661842 28.2177744,62.9193158 C28.1087312,62.8727895 27.9976241,62.8225 27.883765,62.7681053 C27.77025,62.7140526 27.6605188,62.6528158 27.5542274,62.5840526 C27.4486241,62.5152895 27.357468,62.4311316 27.2811034,62.3315789 C27.2050827,62.2320263 27.1483252,62.114 27.1115188,61.9768158 C27.0740244,61.8399737 27.0688647,61.6747368 27.0950075,61.4824737 C27.1159906,61.3278421 27.1669004,61.1821053 27.2480808,61.0459474 C27.3292613,60.9087632 27.4365846,60.7917632 27.5710827,60.6952895 C27.7052368,60.5991579 27.8638139,60.5283421 28.0468139,60.4828421 C28.2294699,60.4373421 28.433109,60.4301579 28.6577312,60.4602632 C28.9088402,60.4937895 29.1362143,60.5639211 29.3395094,60.6696316 C29.5428045,60.7756842 29.7086053,60.9073947 29.8379436,61.0644211 L29.5703233,61.4393684" id="Fill-19" fill="#0D465C"></path>
                        <path d="M33.5141109,63.3233421 L34.7662162,63.2473947 L34.2326955,61.9956316 C34.2013929,61.9296053 34.1680263,61.8533158 34.1325959,61.7647105 C34.0971654,61.6761053 34.061735,61.5806579 34.0263045,61.4790526 C34.0060094,61.5864737 33.9839944,61.6863684 33.9606034,61.7794211 C33.9368684,61.8724737 33.9141654,61.9535526 33.8911184,62.0223158 L33.5141109,63.3233421 Z M36.3237801,64.7468421 L35.6485376,64.7875526 C35.5732049,64.7923421 35.5109436,64.7783158 35.4614098,64.7454737 C35.4118759,64.7129737 35.3740376,64.6691842 35.3472068,64.6147895 L35.0142293,63.8341053 L33.3397105,63.9357105 L33.1047688,64.7512895 C33.0882575,64.8002105 33.0569549,64.8460526 33.0112049,64.8884737 C32.9654549,64.9305526 32.9056015,64.9541579 32.8323327,64.9586053 L32.1512425,65 L33.5378459,60.7188947 L34.427391,60.6648421 L36.3237801,64.7468421 L36.3237801,64.7468421 Z" id="Fill-20" fill="#0D465C"></path>
                        <path d="M39.9277105,61.8752105 C39.8795526,61.6610526 39.8083477,61.4749474 39.7130639,61.3165526 C39.6181241,61.1581579 39.504609,61.0315789 39.3721748,60.9364737 C39.2400846,60.8417105 39.0904511,60.7791053 38.9243064,60.7486579 C38.7581617,60.7185526 38.5786015,60.7250526 38.3856259,60.7674737 L37.6605056,60.9286053 L38.2796786,63.6928158 L39.0051429,63.5320263 C39.1974305,63.4892632 39.3628872,63.4198158 39.5008252,63.323 C39.6391071,63.2268684 39.7474624,63.1067895 39.8265789,62.9637895 C39.9056955,62.8211316 39.9541974,62.6582895 39.9727726,62.4745789 C39.9910038,62.2912105 39.9762124,62.0910789 39.9277105,61.8752105 Z M40.8004004,61.6819211 C40.8671335,61.9805789 40.878141,62.2665789 40.8334229,62.5399211 C40.7883609,62.8132632 40.694109,63.0599211 40.5503233,63.2816053 C40.4065376,63.5026053 40.2166579,63.6924737 39.9806842,63.8512105 C39.7443665,64.0102895 39.4688346,64.1242105 39.1534004,64.1943421 L37.5724455,64.5443158 L36.6564135,60.4558158 L38.2373684,60.1055 C38.5528026,60.0353684 38.8513816,60.0227105 39.1327613,60.0668421 C39.414485,60.1109737 39.6676579,60.2033421 39.8922801,60.3436053 C40.1172462,60.4842105 40.3081579,60.6682632 40.465015,60.8957632 C40.6218722,61.1229211 40.7336673,61.3853158 40.8004004,61.6819211 L40.8004004,61.6819211 Z" id="Fill-21" fill="#0D465C"></path>
                        <path d="M44.1979398,60.9282632 C44.2550414,60.9812895 44.3121429,61.0367105 44.3682124,61.0948684 C44.3644286,61.0127632 44.3637406,60.9316842 44.3654605,60.8512895 C44.3668365,60.7712368 44.3716523,60.6928947 44.3792199,60.6169474 L44.583891,58.1134211 C44.5869868,58.0764737 44.5938665,58.0460263 44.6045301,58.0217368 C44.6151936,57.9971053 44.628953,57.9769211 44.6461523,57.9601579 C44.6633515,57.9433947 44.6843346,57.9290263 44.7094455,57.9163684 C44.7345564,57.9037105 44.7644831,57.8900263 44.8002575,57.8746316 L45.4097989,57.6180526 L47.0523271,61.4756316 L46.343718,61.7739474 L45.3354981,59.4055526 C45.315203,59.3573158 45.2938759,59.3046316 45.2725489,59.2468158 C45.2508778,59.189 45.2302387,59.1287895 45.2099436,59.0658421 L44.9939211,61.6244474 C44.9825695,61.7653947 44.9134286,61.8618684 44.7868421,61.9152368 L44.674703,61.9627895 C44.6120977,61.9887895 44.5508684,61.9976842 44.4903271,61.9887895 C44.4294417,61.9795526 44.3730282,61.9528684 44.3203985,61.9080526 L42.3125583,60.2796316 C42.3435169,60.3381316 42.3730996,60.3949211 42.4013064,60.4510263 C42.4291692,60.5071316 42.4539361,60.5601579 42.4752632,60.6097632 L43.4834831,62.9785 L42.775218,63.2768158 L41.1326898,59.4192368 L41.7422312,59.1626579 C41.7762857,59.1482895 41.8069004,59.1363158 41.8344192,59.1270789 C41.861938,59.1175 41.8877368,59.1123684 41.9114718,59.1116842 C41.9352068,59.111 41.9592857,59.1157895 41.9833647,59.1250263 C42.0074436,59.1349474 42.0339305,59.1513684 42.0628252,59.1749737 L44.0242274,60.7753421 C44.0830489,60.8242632 44.1404944,60.8748947 44.1979398,60.9282632" id="Fill-22" fill="#0D465C"></path>
                        <polyline id="Fill-23" fill="#0D465C" points="49.2638064 60.1434737 48.5118553 60.5916316 46.3468139 56.9981579 47.099109 56.55 49.2638064 60.1434737"></polyline>
                        <path d="M48.5307744,55.6396579 C48.5531335,55.6256316 48.5758365,55.6163947 48.5992274,55.6119474 C48.6222744,55.6071579 48.6473853,55.6057895 48.6731842,55.6075 C48.6989831,55.6095526 48.7302857,55.6150263 48.7664041,55.6232368 L52.0834511,56.4384737 C52.0321974,56.3854474 51.9836955,56.3327632 51.9376015,56.2807632 C51.8918515,56.2280789 51.8498853,56.1777895 51.812047,56.1292105 L50.3315357,54.2387368 L50.9383252,53.7686842 L53.526468,57.0737632 L53.1714756,57.3488158 C53.1181579,57.3898684 53.0662162,57.4162105 53.0159944,57.4268158 C52.9657726,57.4381053 52.9062632,57.4360526 52.8378102,57.4206579 L49.5427782,56.6102105 C49.5888722,56.6594737 49.6332462,56.7090789 49.6752124,56.758 C49.7171786,56.8072632 49.7557049,56.8537895 49.7901034,56.8979211 L51.286782,58.8085789 L50.6799925,59.2786316 L48.0915056,55.9738947 L48.4537218,55.6937105 C48.4826165,55.6714737 48.5080714,55.653 48.5307744,55.6396579" id="Fill-24" fill="#0D465C"></path>
                        <polyline id="Fill-25" fill="#0D465C" points="55.3406447 55.302 54.7194079 55.9171053 51.7473778 52.9493421 52.3682707 52.3338947 55.3406447 55.302"></polyline>
                        <path d="M55.2635921,50.245 C55.2807914,50.2939211 55.288359,50.3353158 55.2862951,50.3695263 C55.2838872,50.4040789 55.2687519,50.4382895 55.2405451,50.4725 C55.2133703,50.5053421 55.1727801,50.531 55.1180865,50.5501579 C55.0637368,50.5689737 55.0021635,50.5929211 54.9333665,50.6213158 C54.8645695,50.6500526 54.7916447,50.6873421 54.7142481,50.7338684 C54.6371955,50.7803947 54.5622068,50.8471053 54.4896259,50.9350263 C54.3616635,51.0896579 54.3004342,51.2340263 54.306282,51.3681316 C54.3117857,51.5022368 54.3706071,51.6151316 54.4824023,51.7068158 C54.5542951,51.7656579 54.6313477,51.7930263 54.7135602,51.7892632 C54.7957726,51.7851579 54.8824568,51.7629211 54.9739568,51.7218684 C55.0654568,51.6808158 55.1610846,51.6274474 55.2604962,51.5621053 C55.3599079,51.4960789 55.4637914,51.4303947 55.5721466,51.3647105 C55.6805019,51.2986842 55.792641,51.2395 55.9085639,51.1875 C56.0241429,51.1351579 56.1438496,51.1012895 56.2666523,51.0858947 C56.3894549,51.0708421 56.5160414,51.0811053 56.6460677,51.1163421 C56.776094,51.1515789 56.9088722,51.2244474 57.0450902,51.3359737 C57.1926598,51.4570789 57.3103026,51.5959737 57.3973308,51.753 C57.484015,51.9100263 57.5356128,52.0766316 57.5521241,52.2517895 C57.5686353,52.4272895 57.5455883,52.6086053 57.4836711,52.7957368 C57.4214098,52.9832105 57.3161504,53.1665789 57.1672049,53.3465263 C57.0825846,53.4488158 56.9876447,53.5425526 56.8820414,53.6270526 C56.7771259,53.7118947 56.6670508,53.7861316 56.5514718,53.8501053 C56.4358929,53.9140789 56.317906,53.9660789 56.1964793,54.0061053 C56.0753966,54.0468158 55.9570658,54.0721316 55.8411429,54.0817105 L55.6849737,53.6253421 C55.6746541,53.5897632 55.6725902,53.5514474 55.678782,53.5121053 C55.6853177,53.4724211 55.700797,53.4375263 55.7255639,53.4077632 C55.7585865,53.3677368 55.8088083,53.3376316 55.8755414,53.3174474 C55.9422744,53.2976053 56.0176071,53.2733158 56.1011955,53.2445789 C56.1851278,53.2158421 56.273532,53.1754737 56.3667519,53.1234737 C56.4599718,53.0714737 56.5511278,52.9921053 56.639532,52.8846842 C56.7685263,52.7286842 56.8325075,52.5788421 56.8318195,52.4344737 C56.8304436,52.2904474 56.7592387,52.1601053 56.6168289,52.0441316 C56.5349605,51.9767368 56.4510282,51.9435526 56.365032,51.9442368 C56.2793797,51.9449211 56.1909756,51.9657895 56.0998195,52.0058158 C56.0090075,52.0461842 55.9147556,52.0998947 55.8177519,52.1672895 C55.7204041,52.2350263 55.6189286,52.3024211 55.5129812,52.3701579 C55.4063459,52.4378947 55.2962707,52.4984474 55.1820677,52.5518158 C55.0675207,52.6055263 54.9474699,52.6380263 54.8222594,52.65 C54.6970489,52.6623158 54.5659906,52.6482895 54.4294286,52.6072368 C54.2928665,52.5661842 54.1490808,52.4844211 53.9980714,52.3609211 C53.8769887,52.2620526 53.779297,52.1419737 53.7049962,52.0013684 C53.6310395,51.8611053 53.5876974,51.7088684 53.5760019,51.5443158 C53.5639624,51.3801053 53.5863214,51.2087105 53.6441109,51.0297895 C53.7015564,50.8515526 53.802,50.6753684 53.9461297,50.5012368 C54.1071147,50.3069211 54.2866748,50.1512632 54.4841222,50.0349474 C54.6815695,49.9189737 54.8817688,49.8478158 55.084032,49.8211316 L55.2635921,50.245" id="Fill-26" fill="#0D465C"></path>
                        <polyline id="Fill-27" fill="#0D465C" points="56.9215996 46.2823947 57.5166936 46.6535789 56.8624342 47.6901579 59.8351523 49.5457368 59.3707726 50.2819474 56.3980545 48.4267105 55.7437951 49.4632895 55.1487011 49.0921053 56.9215996 46.2823947"></polyline>
                        <path d="M59.4454173,45.6279474 L59.6287613,45.2232368 C59.6868947,45.0949474 59.7206053,44.9769211 59.7298929,44.8691579 C59.7395244,44.7617368 59.7288609,44.6652632 59.6985902,44.5797368 C59.6683195,44.4945526 59.6208496,44.4203158 59.5558365,44.3573684 C59.4908233,44.2947632 59.4123947,44.2427632 59.3205508,44.2013684 C59.1389267,44.1202895 58.970718,44.1172105 58.8155808,44.1924737 C58.6604436,44.2673947 58.5273214,44.4275 58.4162143,44.6738158 L58.2304624,45.0843421 L59.4454173,45.6279474 Z M60.0037049,45.8783684 L61.4677049,46.5338421 L61.1103045,47.3234211 L57.2693684,45.6036579 L57.8128647,44.4032105 C57.9336034,44.1367105 58.0643177,43.9208421 58.2060395,43.7559474 C58.3474173,43.5917368 58.4946429,43.4706316 58.6484041,43.394 C58.8021654,43.3170263 58.9600545,43.2814474 59.1220714,43.2862368 C59.2844323,43.2913684 59.4474812,43.3307105 59.611906,43.4039211 C59.7384925,43.4610526 59.8509756,43.5328947 59.9486673,43.6197895 C60.046015,43.7070263 60.1261635,43.8055526 60.1887688,43.9157105 C60.2510301,44.0262105 60.2960921,44.1473158 60.3229229,44.2800526 C60.3500977,44.4121053 60.3562895,44.5533947 60.3418421,44.7028947 C60.3930959,44.6649211 60.4484774,44.6320789 60.5086748,44.6050526 C60.5685282,44.5780263 60.6338853,44.5595526 60.7044023,44.5486053 L62.4889962,44.2776579 L62.1656504,44.9912895 C62.105797,45.1243684 62.0108571,45.1979211 61.8815188,45.2116053 L60.3745207,45.4110526 C60.3150113,45.4202895 60.2665094,45.4380789 60.229015,45.4647632 C60.1918647,45.4914474 60.1571222,45.5393421 60.1254756,45.6094737 L60.0037049,45.8783684 L60.0037049,45.8783684 Z" id="Fill-28" fill="#0D465C"></path>
                        <path d="M61.6231861,41.7310263 L61.9640752,40.5305789 L60.6001748,40.6185 C60.527594,40.6256842 60.4433177,40.6318421 60.3476898,40.6356053 C60.252062,40.6397105 60.1498985,40.6417632 60.0415432,40.6414211 C60.1364831,40.6961579 60.2241992,40.7495263 60.3050357,40.8025526 C60.3855282,40.8548947 60.4546692,40.9034737 60.5124586,40.9476053 L61.6231861,41.7310263 Z M63.9013985,39.5631053 L63.7173665,40.2103684 C63.6970714,40.2822105 63.6626729,40.3362632 63.615547,40.3721842 C63.5680771,40.4077632 63.5144154,40.4293158 63.4538741,40.4361579 L62.6028553,40.4912368 L62.1467312,42.0970789 L62.8429568,42.5866316 C62.884235,42.6181053 62.9176015,42.6625789 62.9427124,42.7193684 C62.9674793,42.7765 62.9702312,42.8404737 62.9502801,42.9106053 L62.7645282,43.5633421 L59.1588778,40.8490789 L59.4010432,39.9962105 L63.9013985,39.5631053 L63.9013985,39.5631053 Z" id="Fill-29" fill="#0D465C"></path>
                        <polyline id="Fill-30" fill="#0D465C" points="60.2788929 35.2532632 60.9737425 35.3545263 60.7955583 36.5655789 64.2680865 37.0705263 64.141844 37.9302368 60.6693158 37.4256316 60.4911316 38.6366842 59.795938 38.5354211 60.2788929 35.2532632"></polyline>
                        <polyline id="Fill-31" fill="#0D465C" points="64.5336429 33.735 64.4985564 34.606 60.2899004 34.4387105 60.3246429 33.5673684 64.5336429 33.735"></polyline>
                        <path d="M62.2162162,29.0991316 C61.9964098,29.1179474 61.8017143,29.1634474 61.6321297,29.2359737 C61.4625451,29.3085 61.3215113,29.4039474 61.2083402,29.523 C61.0951692,29.6417105 61.0129568,29.7809474 60.961703,29.9407105 C60.9104492,30.1004737 60.89325,30.2783684 60.9101053,30.4740526 C60.9269605,30.6693947 60.9744305,30.8421579 61.052515,30.992 C61.1305996,31.1418421 61.235515,31.2660263 61.3672613,31.3638684 C61.4990075,31.4617105 61.6544887,31.5318421 61.8340489,31.5746053 C62.013265,31.6173684 62.2131203,31.629 62.4329267,31.6105263 C62.654797,31.5913684 62.8501805,31.5458684 63.019765,31.4733421 C63.1893496,31.4008158 63.3300395,31.3053684 63.4421786,31.1866579 C63.5543177,31.0679474 63.6361861,30.9280263 63.6874398,30.7675789 C63.7386936,30.6064474 63.7555489,30.4282105 63.7386936,30.2325263 C63.7218383,30.0368421 63.6747124,29.8647632 63.5966278,29.7159474 C63.5185432,29.5671316 63.4143158,29.4436316 63.2832575,29.3457895 C63.1525432,29.2479474 62.997406,29.1774737 62.8178459,29.1350526 C62.6386297,29.0922895 62.4377425,29.0803158 62.2162162,29.0991316 Z M62.1401955,28.2161579 C62.4466861,28.1898158 62.7356335,28.2171842 63.0066936,28.2972368 C63.2777538,28.3776316 63.5168233,28.5028421 63.7239023,28.6735526 C63.9306372,28.8442632 64.0998778,29.0563684 64.2316241,29.3095263 C64.3633703,29.5630263 64.4428308,29.8500526 64.4706936,30.1702632 C64.4982124,30.4908158 64.4686297,30.7863947 64.3826335,31.0587105 C64.2962932,31.3306842 64.1655789,31.5687895 63.9911786,31.7730263 C63.8164342,31.9772632 63.6024756,32.1418158 63.3489586,32.2666842 C63.0957857,32.3918947 62.815782,32.4671579 62.5089474,32.4935 C62.2024568,32.5195 61.9141974,32.4928158 61.6441692,32.4120789 C61.374141,32.3316842 61.1354154,32.2057895 60.9283365,32.0343947 C60.7209135,31.8626579 60.5516729,31.6502105 60.4202707,31.3970526 C60.2885244,31.1432105 60.2090639,30.8565263 60.1812011,30.5363158 C60.1536823,30.2161053 60.1829211,29.9198421 60.2692613,29.6478684 C60.3556015,29.3758947 60.4866598,29.1381316 60.6624361,28.9349211 C60.8378684,28.7317105 61.0521711,28.5675 61.304312,28.4426316 C61.556797,28.3177632 61.8354248,28.2421579 62.1401955,28.2161579 L62.1401955,28.2161579 Z" id="Fill-32" fill="#0D465C"></path>
                        <path d="M59.7567237,27.0673684 C59.7525959,27.0413684 59.7529398,27.0167368 59.7574117,26.9934737 C59.7622274,26.9705526 59.7701391,26.9476316 59.7818346,26.9243684 C59.7935301,26.9011053 59.8103853,26.8744211 59.8320564,26.8446579 L61.8625996,24.1115789 C61.7941466,24.1379211 61.7263816,24.1625526 61.6603365,24.1844474 C61.5942914,24.2066842 61.5313421,24.2258421 61.4714887,24.2422632 L59.1478703,24.8758421 L58.9445752,24.1379211 L63.0063496,23.0301842 L63.1253684,23.4615789 C63.1432556,23.5265789 63.1477274,23.5843947 63.1384398,23.6346842 C63.1294962,23.6853158 63.1043853,23.7390263 63.0641391,23.7958158 L61.0463233,26.5104211 C61.1103045,26.4868158 61.1732538,26.4652632 61.2348271,26.4454211 C61.2964004,26.4259211 61.3541898,26.4084737 61.4085395,26.3937632 L63.7572688,25.753 L63.9609079,26.4909211 L59.8987895,27.5986579 L59.7773628,27.1590526 C59.7677312,27.1234737 59.7608515,27.0930263 59.7567237,27.0673684" id="Fill-33" fill="#0D465C"></path>
                        <path d="M12.3621316,11.6141316 C12.4649831,11.518 12.5410038,11.414 12.5898496,11.3031579 C12.6390395,11.1923158 12.6617425,11.0787368 12.6583026,10.9631053 C12.6548628,10.8471316 12.6252801,10.7304737 12.5698985,10.6131316 C12.5145169,10.4957895 12.4336805,10.3811842 12.3273891,10.2693158 L10.6060883,8.45513158 L11.2393647,7.86055263 L12.9606654,9.67507895 C13.1360977,9.85947368 13.2675,10.0572105 13.3541842,10.2682895 C13.4412124,10.4790263 13.4821466,10.6928421 13.4769868,10.9090526 C13.472515,11.1256053 13.4202293,11.3397632 13.3211617,11.5518684 C13.22175,11.7643158 13.0721165,11.9641053 12.8722613,12.1515789 C12.672406,12.3393947 12.4625752,12.4765789 12.2431128,12.5634737 C12.0236504,12.6503684 11.8052199,12.6900526 11.5874774,12.6821842 C11.3700789,12.6746579 11.1581842,12.6216316 10.9517932,12.5231053 C10.7450583,12.4245789 10.5541466,12.2829474 10.3787143,12.0982105 L8.65741353,10.2840263 L9.29068985,9.68944737 L11.0119906,11.5036316 C11.118282,11.6155 11.2287011,11.7027368 11.3432481,11.7643158 C11.4577951,11.8262368 11.5733741,11.8621579 11.689641,11.8724211 C11.8052199,11.8826842 11.9204549,11.8666053 12.0346579,11.8241842 C12.1488609,11.7821053 12.2579041,11.7116316 12.3621316,11.6141316" id="Fill-34" fill="#0D465C"></path>
                        <path d="M13.1244023,6.42097368 C13.1477932,6.409 13.1711842,6.40147368 13.1949192,6.39839474 C13.2183102,6.39531579 13.2430771,6.39565789 13.2688759,6.39907895 C13.2946748,6.40284211 13.3252895,6.41002632 13.3603759,6.42131579 L16.6130977,7.46371053 C16.5652838,7.40726316 16.5205658,7.35115789 16.4785996,7.29607895 C16.4362895,7.241 16.3981071,7.18763158 16.3633647,7.13665789 L15.0187274,5.14834211 L15.6568195,4.72139474 L18.0083008,8.19718421 L17.6347331,8.44692105 C17.5786635,8.48421053 17.5250019,8.50678947 17.4740921,8.51431579 C17.4231823,8.52184211 17.3640169,8.51534211 17.2969398,8.4955 L14.0662331,7.45926316 C14.1088872,7.51194737 14.1494774,7.56428947 14.1883477,7.61594737 C14.2268741,7.66794737 14.2616165,7.71721053 14.2929192,7.76339474 L15.6526917,9.77326316 L15.0142556,10.1998684 L12.6631184,6.72442105 L13.0435658,6.46989474 C13.0741805,6.44936842 13.1013553,6.43328947 13.1244023,6.42097368" id="Fill-35" fill="#0D465C"></path>
                        <polyline id="Fill-36" fill="#0D465C" points="19.8888665 7.25502632 19.1073327 7.65015789 17.1985602 3.91607895 17.980094 3.52094737 19.8888665 7.25502632"></polyline>
                        <polyline id="Fill-37" fill="#0D465C" points="22.2836898 1.74063158 22.5347989 2.39302632 21.3852011 2.83057895 22.6393703 6.0905 21.823438 6.40113158 20.5692688 3.14086842 19.4196711 3.57842105 19.168562 2.92602632 22.2836898 1.74063158"></polyline>
                        <g id="Group-41" transform="translate(23.390977, 0.000000)">
                            <mask id="mask-4" fill="white">
                                <use xlink:href="#path-3"></use>
                            </mask>
                            <g id="Clip-39"></g>
                            <polyline id="Fill-38" fill="#0D465C" mask="url(#mask-4)" points="2.85920301 0.734157895 3.01778008 1.39373684 1.26139286 1.81110526 1.51284586 2.85828947 2.87949812 2.53363158 3.03257143 3.17131579 1.66591917 3.49563158 1.92287594 4.56573684 3.67926316 4.14871053 3.83749624 4.80863158 1.22871429 5.42818421 0.250421053 1.35371053 2.85920301 0.734157895"></polyline>
                            <path d="M7.47926504,2.28902632 C7.45965789,2.07007895 7.41321992,1.87644737 7.33995113,1.70710526 C7.26633835,1.53776316 7.17002256,1.3975 7.05134774,1.28631579 C6.93267293,1.17513158 6.79267105,1.09371053 6.63168609,1.04239474 C6.47070113,0.990736842 6.29182895,0.973631579 6.09541353,0.991078947 L5.35515789,1.05676316 L5.60729887,3.87776316 L6.3478985,3.81207895 C6.54431391,3.79463158 6.71733835,3.74707895 6.8669718,3.66907895 C7.01626128,3.59107895 7.13940789,3.48673684 7.23675564,3.35536842 C7.33341541,3.224 7.40324436,3.06868421 7.44555451,2.88907895 C7.48752068,2.70947368 7.49887218,2.50934211 7.47926504,2.28902632 Z M8.36984211,2.21 C8.39701692,2.51481579 8.37053008,2.79978947 8.29038158,3.06492105 C8.2098891,3.33005263 8.08433459,3.56268421 7.91268609,3.7635 C7.74138158,3.96431579 7.5281109,4.12784211 7.27321805,4.25476316 C7.01866917,4.38168421 6.73040977,4.45934211 6.40809586,4.48773684 L4.79480639,4.63073684 L4.42158271,0.458078947 L6.03487218,0.315078947 C6.35684211,0.286684211 6.6543891,0.312684211 6.92785714,0.392736842 C7.2009812,0.472789474 7.44005075,0.597315789 7.64437782,0.765631579 C7.84904887,0.934289474 8.01416165,1.14126316 8.14006015,1.38689474 C8.26630263,1.63286842 8.34266729,1.90723684 8.36984211,2.21 L8.36984211,2.21 Z" id="Fill-40" fill="#0D465C" mask="url(#mask-4)"></path>
                        </g>
                        <path d="M37.355735,1.32155263 C37.3237444,1.36260526 37.2924417,1.391 37.2621711,1.40810526 C37.2319004,1.42486842 37.19475,1.43068421 37.1507199,1.42555263 C37.1084098,1.42042105 37.0643797,1.40057895 37.0189737,1.36534211 C36.9735677,1.32976316 36.919906,1.29144737 36.8586767,1.24902632 C36.7971034,1.20728947 36.7262425,1.16657895 36.644718,1.12723684 C36.5638816,1.08755263 36.4665338,1.06155263 36.3533628,1.04821053 C36.1535075,1.02494737 35.9980263,1.05197368 35.8879511,1.12928947 C35.777188,1.20660526 35.7138947,1.31676316 35.6970395,1.46010526 C35.6863759,1.55213158 35.7046071,1.63115789 35.7524211,1.69786842 C35.800235,1.76423684 35.8659361,1.82478947 35.9502124,1.87918421 C36.0344887,1.93357895 36.1311485,1.98421053 36.2405357,2.03210526 C36.3499229,2.07965789 36.461718,2.13097368 36.576265,2.18571053 C36.690468,2.24078947 36.8012312,2.30271053 36.9082105,2.37113158 C37.0151898,2.43955263 37.1080658,2.52131579 37.1878703,2.61573684 C37.2673308,2.71015789 37.3271842,2.82134211 37.3677744,2.94894737 C37.4083647,3.07689474 37.4183402,3.22776316 37.3980451,3.40155263 C37.3756861,3.59073684 37.3216805,3.76452632 37.2360282,3.92223684 C37.1503759,4.07960526 37.0378929,4.21302632 36.898235,4.32181579 C36.7589211,4.43060526 36.5931203,4.50963158 36.4011767,4.55889474 C36.2095771,4.6085 35.9973383,4.61978947 35.7648045,4.59276316 C35.6320263,4.57736842 35.501312,4.54863158 35.3730056,4.50655263 C35.2443553,4.46447368 35.1218966,4.41247368 35.0052857,4.35055263 C34.8890188,4.28863158 34.7810075,4.21781579 34.6812519,4.13844737 C34.5811523,4.05907895 34.495844,3.97355263 34.4249831,3.88221053 L34.7263139,3.50418421 C34.7510808,3.47613158 34.7816955,3.45389474 34.8188459,3.43781579 C34.8556523,3.42173684 34.8934906,3.41592105 34.9320169,3.42071053 C34.9839586,3.42652632 35.0365883,3.45184211 35.089562,3.497 C35.1428797,3.54181579 35.204109,3.59176316 35.273594,3.64615789 C35.3434229,3.70089474 35.4252914,3.75289474 35.5198872,3.80284211 C35.6144831,3.85244737 35.73075,3.88528947 35.8693759,3.90136842 C36.0709511,3.92497368 36.2326241,3.89726316 36.3537068,3.81823684 C36.4751335,3.73921053 36.5463383,3.60886842 36.5676654,3.42721053 C36.5800489,3.32252632 36.5628496,3.23392105 36.5153797,3.16242105 C36.4682538,3.09126316 36.4032406,3.02865789 36.3199962,2.97426316 C36.2367519,2.92021053 36.1404361,2.87060526 36.0303609,2.82578947 C35.9206297,2.78097368 35.8084906,2.73273684 35.6939436,2.68073684 C35.5793966,2.62873684 35.4686335,2.56921053 35.3613102,2.5025 C35.2539868,2.43578947 35.1614549,2.35334211 35.0833703,2.25515789 C35.0052857,2.15697368 34.9464643,2.03963158 34.906906,1.90313158 C34.8673477,1.76697368 34.8590921,1.60207895 34.8817951,1.40913158 C34.9000263,1.25415789 34.9481842,1.10773684 35.0269568,0.969526316 C35.1053853,0.831657895 35.2109887,0.712947368 35.3434229,0.614078947 C35.4758571,0.515210526 35.6330583,0.441315789 35.8150263,0.392736842 C35.9969944,0.343815789 36.2002895,0.332868421 36.4252556,0.358868421 C36.6773966,0.388289474 36.9058026,0.453973684 37.1108177,0.556263158 C37.3161767,0.658552632 37.4847293,0.787184211 37.6164756,0.941815789 L37.355735,1.32155263" id="Fill-42" fill="#0D465C"></path>
                        <polyline id="Fill-43" fill="#0D465C" points="42.1092632 1.55076316 41.9389906 2.22847368 40.7446748 1.93221053 39.894688 5.31871053 39.046765 5.10797368 39.8970959 1.72147368 38.7027801 1.42486842 38.8730526 0.747157895 42.1092632 1.55076316"></polyline>
                        <path d="M43.0008722,4.62697368 L44.1676692,5.08334211 L44.2151391,3.7245 C44.2144511,3.65197368 44.217203,3.56815789 44.2223628,3.47305263 C44.2278665,3.37794737 44.2361222,3.27702632 44.2474737,3.16960526 C44.1831485,3.25821053 44.1208872,3.33963158 44.0603459,3.41421053 C43.9994605,3.48878947 43.9444229,3.55242105 43.8942011,3.60544737 L43.0008722,4.62697368 Z M44.9436992,7.09628947 L44.3145508,6.84997368 C44.2443778,6.82260526 44.193468,6.78360526 44.1625094,6.73331579 C44.1315508,6.68302632 44.1157274,6.62760526 44.1143515,6.56705263 L44.1439342,5.71931579 L42.5825865,5.10865789 L42.0232669,5.74942105 C41.9878365,5.78739474 41.9400226,5.81578947 41.8805132,5.83460526 C41.8210038,5.85376316 41.7570226,5.85 41.6885695,5.82331579 L41.0539173,5.57528947 L44.126735,2.27534211 L44.9560827,2.59965789 L44.9436992,7.09628947 L44.9436992,7.09628947 Z" id="Fill-44" fill="#0D465C"></path>
                        <polyline id="Fill-45" fill="#0D465C" points="49.8558045 5.04468421 49.5156034 5.65602632 48.4389305 5.06384211 46.7403327 8.11815789 45.9756541 7.69771053 47.6739079 4.64305263 46.597235 4.05086842 46.9370921 3.43952632 49.8558045 5.04468421"></polyline>
                        <polyline id="Fill-46" fill="#0D465C" points="53.1859229 7.41444737 52.7807086 7.95976316 51.3284041 6.89273684 50.6851523 7.75860526 51.8147989 8.58923684 51.423 9.11642105 50.2933534 8.28544737 49.6359981 9.17013158 51.0879586 10.2375 50.6824004 10.7831579 48.5256147 9.1975 51.0287932 5.82878947 53.1859229 7.41444737"></polyline>
                        <path d="M55.4369605,10.5659211 C55.3863947,10.5789211 55.3440846,10.5830263 55.3096861,10.5782368 C55.2752876,10.5731053 55.242265,10.5553158 55.2106184,10.5245263 C55.1796598,10.4947632 55.1573008,10.4523421 55.1428534,10.3965789 C55.128406,10.3411579 55.1094868,10.2782105 55.0867838,10.2077368 C55.0637368,10.1372632 55.0320902,10.062 54.991844,9.98126316 C54.9515977,9.90121053 54.8903684,9.8215 54.808844,9.74247368 C54.6643703,9.60289474 54.5243684,9.53036842 54.3895263,9.52489474 C54.2546842,9.51942105 54.1366974,9.56834211 54.0359098,9.672 C53.9708966,9.73836842 53.9371861,9.81226316 53.9344342,9.89436842 C53.9313383,9.97578947 53.9468177,10.0637105 53.9805282,10.1577895 C54.0142387,10.2518684 54.0596447,10.3510789 54.1174342,10.4550789 C54.1748797,10.5587368 54.2323252,10.6671842 54.2894267,10.7797368 C54.3465282,10.8926316 54.396406,11.0086053 54.4394041,11.128 C54.4820583,11.2470526 54.5064812,11.3681579 54.511641,11.4913158 C54.5168008,11.6141316 54.4965056,11.7386579 54.4507556,11.8648947 C54.4043177,11.9904474 54.3200414,12.1166842 54.1975827,12.2418947 C54.0641165,12.3787368 53.9151711,12.4837632 53.7504023,12.5569737 C53.5859774,12.6301842 53.4150169,12.6678158 53.2378647,12.6698684 C53.0607124,12.6719211 52.8811523,12.6342895 52.6984962,12.5576579 C52.5161842,12.4803421 52.3407519,12.3609474 52.1728872,12.1987895 C52.0769154,12.1060789 51.9909192,12.0044737 51.9145545,11.8932895 C51.8381898,11.7821053 51.7728327,11.6668158 51.7184831,11.5470789 C51.6641335,11.4273421 51.6214793,11.3058947 51.5908647,11.1823947 C51.56025,11.0588947 51.5447707,10.9395 51.5444267,10.8238684 L52.0149981,10.7065263 C52.0518045,10.6993421 52.0896429,10.7003684 52.1288571,10.7099474 C52.1680714,10.7198684 52.201438,10.7376579 52.2293008,10.7643421 C52.2667951,10.8009474 52.292594,10.8529474 52.3073853,10.9206842 C52.3221767,10.9887632 52.3404079,11.0650526 52.3620789,11.1505789 C52.384094,11.2357632 52.4174605,11.3271053 52.4618346,11.4235789 C52.5062086,11.5203947 52.5787895,11.6172105 52.6785451,11.7133421 C52.8243947,11.8542895 52.9695564,11.9298947 53.1140301,11.9405 C53.2588477,11.9514474 53.3947218,11.8912368 53.5230282,11.7602105 C53.5973289,11.6842632 53.6372312,11.6038684 53.6434229,11.5183421 C53.6499586,11.4335 53.6365432,11.3438684 53.6038647,11.2504737 C53.5708421,11.1570789 53.5244041,11.0595789 53.4648947,10.9576316 C53.4053853,10.8556842 53.345532,10.7496316 53.2863665,10.6387895 C53.2272011,10.5279474 53.1759474,10.4136842 53.1315733,10.296 C53.0871992,10.1783158 53.0641523,10.0568684 53.0624323,9.93165789 C53.0607124,9.80644737 53.0854793,9.67781579 53.137765,9.54542105 C53.1897068,9.41336842 53.2839586,9.27789474 53.4201767,9.13831579 C53.5292199,9.02644737 53.6571823,8.93921053 53.8040639,8.87728947 C53.9509455,8.81536842 54.1071147,8.78492105 54.2729154,8.78663158 C54.4383722,8.78834211 54.6083008,8.82494737 54.7827011,8.89644737 C54.9567575,8.96794737 55.1253102,9.08221053 55.2876711,9.23923684 C55.4696391,9.41439474 55.6106729,9.60494737 55.7107726,9.81055263 C55.8112162,10.0158158 55.8659098,10.2200526 55.8762293,10.4225789 L55.4369605,10.5659211" id="Fill-47" fill="#0D465C"></path>
                        <polyline id="Fill-48" fill="#009DCD" points="52.3521034 48.1554211 45.497859 48.1554211 45.497859 19.1945 36.2690865 19.1558421 36.2690865 32.5078684 31.8819023 32.5078684 31.8819023 16.8452632 26.1951429 14.7779211 26.1951429 35.0387632 23.4023289 35.0387632 23.4023289 24.8460789 20.3601259 21.4667632 17.3179229 24.8460789 17.3179229 43.9485526 9.57138158 43.9485526 9.57138158 43.1367368 16.5019906 43.1367368 16.5019906 24.5354474 20.3601259 20.2498947 24.2182613 24.5354474 24.2182613 34.2269474 25.3788665 34.2269474 25.3788665 13.6168158 32.6978346 16.2780526 32.6978346 31.6963947 35.4531541 31.6963947 35.4531541 18.3409474 46.3137914 18.3861053 46.3137914 47.3436053 52.3521034 47.3436053 52.3521034 48.1554211"></polyline>
                        <polyline id="Fill-49" fill="#0D465C" points="20.8207218 48.1554211 12.078688 48.1554211 12.078688 47.3436053 20.0047895 47.3436053 20.0047895 29.0659474 30.126547 25.6134211 30.1471861 34.2765526 37.7812444 34.2765526 38.3539793 21.0620526 40.2228496 21.0620526 40.785953 36.3281579 41.1997669 36.3281579 41.8072444 21.0620526 43.6816184 21.0620526 44.0730733 36.3671579 49.1509793 36.3671579 49.1509793 43.1367368 54.877641 43.1367368 54.877641 43.9485526 48.335047 43.9485526 48.335047 37.1789737 43.2777801 37.1789737 42.8859812 21.8735263 42.5915301 21.8735263 41.9840526 37.1399737 39.9989154 37.1399737 39.436156 21.8735263 39.1358571 21.8735263 38.5631222 35.0887105 29.3333177 35.0887105 29.3133665 26.7488684 20.8207218 29.6454737 20.8207218 48.1554211"></polyline>
                        <path d="M32.2668214,8.01723684 C18.6085545,8.01723684 7.49680827,19.0682632 7.49680827,32.6518947 C7.49680827,46.2355263 18.6085545,57.2865526 32.2668214,57.2865526 C45.9250883,57.2865526 57.0368346,46.2355263 57.0368346,32.6518947 C57.0368346,19.0682632 45.9250883,8.01723684 32.2668214,8.01723684 Z M32.2668214,58.0963158 C18.1596541,58.0963158 6.68225188,46.6819737 6.68225188,32.6518947 C6.68225188,18.6218158 18.1596541,7.20747368 32.2668214,7.20747368 C46.3739887,7.20747368 57.851047,18.6218158 57.851047,32.6518947 C57.851047,46.6819737 46.3739887,58.0963158 32.2668214,58.0963158 L32.2668214,58.0963158 Z" id="Fill-50" fill="#0D465C"></path>
                        <polyline id="Fill-51" fill="#0D465C" points="5.89693421 15.0307368 6.43664662 16.1186316 7.64368985 16.2931053 6.77031203 17.1398158 6.97635902 18.3354737 5.89693421 17.771 4.81716541 18.3354737 5.02321241 17.1398158 4.14983459 16.2931053 5.35687782 16.1186316 5.89693421 15.0307368"></polyline>
                        <polyline id="Fill-52" fill="#0D465C" points="58.6367086 15.0307368 59.1764211 16.1186316 60.3838083 16.2931053 59.5104305 17.1398158 59.7164774 18.3354737 58.6367086 17.771 57.5569398 18.3354737 57.7633308 17.1398158 56.889609 16.2931053 58.0969962 16.1186316 58.6367086 15.0307368"></polyline>
                    </g>
                </g>
            </g>
        </g>
    </g>
</svg>